M48
INCH,TZ
T1C0.010
T2C0.016
T3C0.020
T4C0.024
T5C0.030
T6C0.031
T7C0.032
%
G90
G05
T1
X78700Y-34800
X78700Y-35300
X78700Y-35800
X79100Y-35050
X79100Y-35550
T2
X59401Y-34000
X60660Y-35774
X61091Y-31884
X61597Y-30142
X61746Y-30932
X61795Y-32850
X62773Y-31403
X63036Y-32172
X63114Y-35436
X63332Y-31629
X63765Y-35637
X63797Y-32341
X63904Y-34927
X63922Y-34200
X64107Y-32483
X64252Y-33032
X64362Y-31840
X64697Y-34419
X64823Y-35343
X64904Y-30576
X65157Y-32008
X65167Y-31024
X65472Y-31969
X65535Y-33168
X65952Y-32402
X66095Y-33335
X66131Y-30660
X66266Y-31739
X66512Y-32687
X66599Y-34064
X66779Y-32412
X66917Y-29855
X67007Y-34171
X67015Y-30766
X67263Y-33844
X67274Y-30995
X67535Y-33670
X67639Y-30741
X67660Y-35326
X67838Y-32402
X68481Y-33833
X68486Y-31000
X68487Y-36142
X68745Y-30153
X68806Y-32011
X68810Y-31658
X68842Y-32665
X69644Y-30911
X69694Y-33753
X69782Y-34298
X70025Y-35894
X70342Y-31614
X70348Y-30864
X71317Y-32759
X71352Y-32200
X71885Y-30195
X72144Y-33512
X73491Y-34756
X73597Y-31250
X74631Y-35106
X78411Y-33739
T4
X79500Y-31400
T5
X61500Y-29000
X62500Y-29000
X63500Y-29000
X63500Y-37000
X64500Y-37000
X65500Y-29000
X65500Y-37000
X66500Y-29000
X66500Y-37000
X67500Y-29000
X68500Y-29000
X69500Y-29000
X69500Y-37000
X70500Y-29000
X70500Y-37000
X71500Y-29000
T6
X59500Y-37000
X60500Y-29000
X60500Y-37000
X62500Y-37000
X64500Y-29000
X67500Y-37000
X68500Y-37000
X72500Y-29000
X73500Y-29000
X74500Y-29000
X75500Y-29000
X75500Y-37000
X76500Y-29000
T7
X59500Y-29000
X61500Y-37000
X71500Y-37000
X72500Y-37000
X73500Y-37000
X74500Y-37000
T3
X78900Y-34338G85X78900Y-34062
G05
X78900Y-36538G85X78900Y-36262
G05
T0
M30
