G04 #@! TF.FileFunction,Paste,Top*
%FSLAX46Y46*%
G04 Gerber Fmt 4.6, Leading zero omitted, Abs format (unit mm)*
G04 Created by KiCad (PCBNEW 4.0.6) date 07/20/17 20:23:09*
%MOMM*%
%LPD*%
G01*
G04 APERTURE LIST*
%ADD10C,0.100000*%
%ADD11R,0.800000X0.750000*%
%ADD12R,0.600000X0.800000*%
%ADD13R,0.500000X0.900000*%
%ADD14R,1.000000X0.250000*%
%ADD15R,0.250000X1.000000*%
%ADD16R,0.900000X0.800000*%
%ADD17R,1.700000X0.900000*%
%ADD18R,2.500000X1.700000*%
%ADD19R,1.000000X0.900000*%
%ADD20R,2.000000X2.400000*%
%ADD21R,0.600000X1.100000*%
%ADD22R,1.500000X0.450000*%
G04 APERTURE END LIST*
D10*
D11*
X184416000Y-83312000D03*
X185916000Y-83312000D03*
X179590000Y-80772000D03*
X181090000Y-80772000D03*
X151650000Y-89408000D03*
X153150000Y-89408000D03*
X151650000Y-87884000D03*
X153150000Y-87884000D03*
X159524000Y-78740000D03*
X161024000Y-78740000D03*
X159524000Y-76454000D03*
X161024000Y-76454000D03*
X155460000Y-82550000D03*
X156960000Y-82550000D03*
X179590000Y-78740000D03*
X181090000Y-78740000D03*
X159778000Y-83058000D03*
X161278000Y-83058000D03*
D12*
X151550000Y-80518000D03*
X153250000Y-80518000D03*
D13*
X158230000Y-90170000D03*
X156730000Y-90170000D03*
X184670000Y-81280000D03*
X186170000Y-81280000D03*
X151650000Y-86360000D03*
X153150000Y-86360000D03*
X190996000Y-87376000D03*
X189496000Y-87376000D03*
X184416000Y-85598000D03*
X185916000Y-85598000D03*
X187210000Y-90678000D03*
X188710000Y-90678000D03*
X151650000Y-84582000D03*
X153150000Y-84582000D03*
X184670000Y-79375000D03*
X186170000Y-79375000D03*
X188480000Y-78994000D03*
X189980000Y-78994000D03*
X188480000Y-76962000D03*
X189980000Y-76962000D03*
X179590000Y-76708000D03*
X181090000Y-76708000D03*
X184670000Y-77470000D03*
X186170000Y-77470000D03*
D14*
X164480000Y-78800000D03*
X164480000Y-79300000D03*
X164480000Y-79800000D03*
X164480000Y-80300000D03*
X164480000Y-80800000D03*
X164480000Y-81300000D03*
X164480000Y-81800000D03*
X164480000Y-82300000D03*
X164480000Y-82800000D03*
X164480000Y-83300000D03*
X164480000Y-83800000D03*
X164480000Y-84300000D03*
X164480000Y-84800000D03*
X164480000Y-85300000D03*
X164480000Y-85800000D03*
X164480000Y-86300000D03*
D15*
X166430000Y-88250000D03*
X166930000Y-88250000D03*
X167430000Y-88250000D03*
X167930000Y-88250000D03*
X168430000Y-88250000D03*
X168930000Y-88250000D03*
X169430000Y-88250000D03*
X169930000Y-88250000D03*
X170430000Y-88250000D03*
X170930000Y-88250000D03*
X171430000Y-88250000D03*
X171930000Y-88250000D03*
X172430000Y-88250000D03*
X172930000Y-88250000D03*
X173430000Y-88250000D03*
X173930000Y-88250000D03*
D14*
X175880000Y-86300000D03*
X175880000Y-85800000D03*
X175880000Y-85300000D03*
X175880000Y-84800000D03*
X175880000Y-84300000D03*
X175880000Y-83800000D03*
X175880000Y-83300000D03*
X175880000Y-82800000D03*
X175880000Y-82300000D03*
X175880000Y-81800000D03*
X175880000Y-81300000D03*
X175880000Y-80800000D03*
X175880000Y-80300000D03*
X175880000Y-79800000D03*
X175880000Y-79300000D03*
X175880000Y-78800000D03*
D15*
X173930000Y-76850000D03*
X173430000Y-76850000D03*
X172930000Y-76850000D03*
X172430000Y-76850000D03*
X171930000Y-76850000D03*
X171430000Y-76850000D03*
X170930000Y-76850000D03*
X170430000Y-76850000D03*
X169930000Y-76850000D03*
X169430000Y-76850000D03*
X168930000Y-76850000D03*
X168430000Y-76850000D03*
X167930000Y-76850000D03*
X167430000Y-76850000D03*
X166930000Y-76850000D03*
X166430000Y-76850000D03*
D16*
X151400000Y-76520000D03*
X151400000Y-78420000D03*
X153400000Y-77470000D03*
D17*
X200660000Y-78408000D03*
X200660000Y-75008000D03*
D18*
X200406000Y-84328000D03*
X200406000Y-81788000D03*
X196342000Y-84328000D03*
X196374000Y-81858000D03*
D10*
G36*
X155252000Y-80460000D02*
X155252000Y-79560000D01*
X156152000Y-79560000D01*
X156152000Y-80460000D01*
X155252000Y-80460000D01*
X155252000Y-80460000D01*
G37*
D19*
X156718000Y-80010000D03*
D11*
X153150000Y-90932000D03*
X151650000Y-90932000D03*
X151396000Y-82804000D03*
X152896000Y-82804000D03*
D13*
X188710000Y-89154000D03*
X187210000Y-89154000D03*
D20*
X157154000Y-86868000D03*
X160854000Y-86868000D03*
D21*
X183958000Y-88392000D03*
X185358000Y-88392000D03*
D13*
X183908000Y-90932000D03*
X185408000Y-90932000D03*
D22*
X200406000Y-89662000D03*
X200406000Y-89027000D03*
X200406000Y-90297000D03*
X200406000Y-88392000D03*
X200406000Y-90932000D03*
D13*
X155460000Y-77470000D03*
X156960000Y-77470000D03*
M02*
