G04 #@! TF.FileFunction,Soldermask,Top*
%FSLAX46Y46*%
G04 Gerber Fmt 4.6, Leading zero omitted, Abs format (unit mm)*
G04 Created by KiCad (PCBNEW 4.0.6) date 07/20/17 20:23:09*
%MOMM*%
%LPD*%
G01*
G04 APERTURE LIST*
%ADD10C,0.100000*%
%ADD11R,2.400000X2.400000*%
%ADD12R,1.200000X1.150000*%
%ADD13R,1.000000X1.200000*%
%ADD14R,2.398980X2.398980*%
%ADD15R,2.400000X2.398980*%
%ADD16C,2.398980*%
%ADD17C,1.924000*%
%ADD18R,0.900000X1.300000*%
%ADD19R,1.400000X0.650000*%
%ADD20R,0.650000X1.400000*%
%ADD21R,1.300000X1.200000*%
%ADD22R,2.100000X1.300000*%
%ADD23R,2.900000X2.100000*%
%ADD24R,1.400000X1.300000*%
%ADD25C,1.400000*%
%ADD26R,2.400000X2.800000*%
%ADD27R,1.000000X1.500000*%
%ADD28R,1.900000X0.850000*%
%ADD29O,1.500000X2.200000*%
%ADD30C,0.900000*%
G04 APERTURE END LIST*
D10*
D11*
X194310000Y-73660000D03*
X151130000Y-93980000D03*
D12*
X184416000Y-83312000D03*
X185916000Y-83312000D03*
X179590000Y-80772000D03*
X181090000Y-80772000D03*
X151650000Y-89408000D03*
X153150000Y-89408000D03*
X151650000Y-87884000D03*
X153150000Y-87884000D03*
X159524000Y-78740000D03*
X161024000Y-78740000D03*
X159524000Y-76454000D03*
X161024000Y-76454000D03*
X155460000Y-82550000D03*
X156960000Y-82550000D03*
X179590000Y-78740000D03*
X181090000Y-78740000D03*
X159778000Y-83058000D03*
X161278000Y-83058000D03*
D13*
X151550000Y-80518000D03*
X153250000Y-80518000D03*
D11*
X158750000Y-93980000D03*
X191770000Y-93980000D03*
X163830000Y-73660000D03*
D14*
X156210000Y-93980000D03*
D15*
X153670000Y-93980000D03*
D11*
X189230000Y-73660000D03*
X191770000Y-73660000D03*
X184150000Y-73660000D03*
X186690000Y-73660000D03*
D16*
X189230000Y-93980000D03*
X186690000Y-93980000D03*
X184150000Y-93980000D03*
X181610000Y-93980000D03*
D17*
X176530000Y-93980000D03*
D11*
X173990000Y-93980000D03*
X171450000Y-93980000D03*
D18*
X158230000Y-90170000D03*
X156730000Y-90170000D03*
X184670000Y-81280000D03*
X186170000Y-81280000D03*
X151650000Y-86360000D03*
X153150000Y-86360000D03*
X190996000Y-87376000D03*
X189496000Y-87376000D03*
X184416000Y-85598000D03*
X185916000Y-85598000D03*
X187210000Y-90678000D03*
X188710000Y-90678000D03*
X151650000Y-84582000D03*
X153150000Y-84582000D03*
X184670000Y-79375000D03*
X186170000Y-79375000D03*
X188480000Y-78994000D03*
X189980000Y-78994000D03*
X188480000Y-76962000D03*
X189980000Y-76962000D03*
X179590000Y-76708000D03*
X181090000Y-76708000D03*
X184670000Y-77470000D03*
X186170000Y-77470000D03*
D19*
X164480000Y-78800000D03*
X164480000Y-79300000D03*
X164480000Y-79800000D03*
X164480000Y-80300000D03*
X164480000Y-80800000D03*
X164480000Y-81300000D03*
X164480000Y-81800000D03*
X164480000Y-82300000D03*
X164480000Y-82800000D03*
X164480000Y-83300000D03*
X164480000Y-83800000D03*
X164480000Y-84300000D03*
X164480000Y-84800000D03*
X164480000Y-85300000D03*
X164480000Y-85800000D03*
X164480000Y-86300000D03*
D20*
X166430000Y-88250000D03*
X166930000Y-88250000D03*
X167430000Y-88250000D03*
X167930000Y-88250000D03*
X168430000Y-88250000D03*
X168930000Y-88250000D03*
X169430000Y-88250000D03*
X169930000Y-88250000D03*
X170430000Y-88250000D03*
X170930000Y-88250000D03*
X171430000Y-88250000D03*
X171930000Y-88250000D03*
X172430000Y-88250000D03*
X172930000Y-88250000D03*
X173430000Y-88250000D03*
X173930000Y-88250000D03*
D19*
X175880000Y-86300000D03*
X175880000Y-85800000D03*
X175880000Y-85300000D03*
X175880000Y-84800000D03*
X175880000Y-84300000D03*
X175880000Y-83800000D03*
X175880000Y-83300000D03*
X175880000Y-82800000D03*
X175880000Y-82300000D03*
X175880000Y-81800000D03*
X175880000Y-81300000D03*
X175880000Y-80800000D03*
X175880000Y-80300000D03*
X175880000Y-79800000D03*
X175880000Y-79300000D03*
X175880000Y-78800000D03*
D20*
X173930000Y-76850000D03*
X173430000Y-76850000D03*
X172930000Y-76850000D03*
X172430000Y-76850000D03*
X171930000Y-76850000D03*
X171430000Y-76850000D03*
X170930000Y-76850000D03*
X170430000Y-76850000D03*
X169930000Y-76850000D03*
X169430000Y-76850000D03*
X168930000Y-76850000D03*
X168430000Y-76850000D03*
X167930000Y-76850000D03*
X167430000Y-76850000D03*
X166930000Y-76850000D03*
X166430000Y-76850000D03*
D21*
X151400000Y-76520000D03*
X151400000Y-78420000D03*
X153400000Y-77470000D03*
D17*
X163830000Y-93980000D03*
X176530000Y-73660000D03*
X161290000Y-93980000D03*
X179070000Y-73660000D03*
X168910000Y-93980000D03*
X181610000Y-73660000D03*
X166370000Y-93980000D03*
X173990000Y-73660000D03*
X168910000Y-73660000D03*
X179070000Y-93980000D03*
X161290000Y-73660000D03*
X166370000Y-73660000D03*
X171450000Y-73660000D03*
X156210000Y-73660000D03*
X158750000Y-73660000D03*
D22*
X200660000Y-78408000D03*
X200660000Y-75008000D03*
D23*
X200406000Y-84328000D03*
X200406000Y-81788000D03*
X196342000Y-84328000D03*
X196374000Y-81858000D03*
D10*
G36*
X155052000Y-80660000D02*
X155052000Y-79360000D01*
X156352000Y-79360000D01*
X156352000Y-80660000D01*
X155052000Y-80660000D01*
X155052000Y-80660000D01*
G37*
D24*
X156718000Y-80010000D03*
D12*
X153150000Y-90932000D03*
X151650000Y-90932000D03*
X151396000Y-82804000D03*
X152896000Y-82804000D03*
D25*
X201930000Y-79756000D03*
D18*
X188710000Y-89154000D03*
X187210000Y-89154000D03*
D26*
X157154000Y-86868000D03*
X160854000Y-86868000D03*
D27*
X183958000Y-88392000D03*
X185358000Y-88392000D03*
D11*
X153670000Y-73660000D03*
D18*
X183908000Y-90932000D03*
X185408000Y-90932000D03*
D28*
X200406000Y-89662000D03*
X200406000Y-89027000D03*
X200406000Y-90297000D03*
X200406000Y-88392000D03*
X200406000Y-90932000D03*
D29*
X200406000Y-92456000D03*
X200406000Y-86868000D03*
D30*
X200914000Y-90297000D03*
X200914000Y-89027000D03*
X199898000Y-88392000D03*
X199898000Y-89662000D03*
X199898000Y-90932000D03*
D14*
X151130000Y-73660000D03*
D18*
X155460000Y-77470000D03*
X156960000Y-77470000D03*
M02*
