G04 #@! TF.FileFunction,Copper,L1,Top,Signal*
%FSLAX46Y46*%
G04 Gerber Fmt 4.6, Leading zero omitted, Abs format (unit mm)*
G04 Created by KiCad (PCBNEW 4.0.6) date 07/20/17 20:23:09*
%MOMM*%
%LPD*%
G01*
G04 APERTURE LIST*
%ADD10C,0.100000*%
%ADD11R,2.000000X2.000000*%
%ADD12R,0.800000X0.750000*%
%ADD13R,0.600000X0.800000*%
%ADD14R,1.998980X1.998980*%
%ADD15R,2.000000X1.998980*%
%ADD16C,1.998980*%
%ADD17C,1.524000*%
%ADD18R,0.500000X0.900000*%
%ADD19R,1.000000X0.250000*%
%ADD20R,0.250000X1.000000*%
%ADD21R,0.900000X0.800000*%
%ADD22R,1.700000X0.900000*%
%ADD23R,2.500000X1.700000*%
%ADD24R,1.000000X0.900000*%
%ADD25C,1.000000*%
%ADD26R,2.000000X2.400000*%
%ADD27R,0.600000X1.100000*%
%ADD28R,1.500000X0.450000*%
%ADD29O,1.100000X1.800000*%
%ADD30C,0.500000*%
%ADD31C,0.600000*%
%ADD32C,0.250000*%
G04 APERTURE END LIST*
D10*
D11*
X194310000Y-73660000D03*
X151130000Y-93980000D03*
D12*
X184416000Y-83312000D03*
X185916000Y-83312000D03*
X179590000Y-80772000D03*
X181090000Y-80772000D03*
X151650000Y-89408000D03*
X153150000Y-89408000D03*
X151650000Y-87884000D03*
X153150000Y-87884000D03*
X159524000Y-78740000D03*
X161024000Y-78740000D03*
X159524000Y-76454000D03*
X161024000Y-76454000D03*
X155460000Y-82550000D03*
X156960000Y-82550000D03*
X179590000Y-78740000D03*
X181090000Y-78740000D03*
X159778000Y-83058000D03*
X161278000Y-83058000D03*
D13*
X151550000Y-80518000D03*
X153250000Y-80518000D03*
D11*
X158750000Y-93980000D03*
X191770000Y-93980000D03*
X163830000Y-73660000D03*
D14*
X156210000Y-93980000D03*
D15*
X153670000Y-93980000D03*
D11*
X189230000Y-73660000D03*
X191770000Y-73660000D03*
X184150000Y-73660000D03*
X186690000Y-73660000D03*
D16*
X189230000Y-93980000D03*
X186690000Y-93980000D03*
X184150000Y-93980000D03*
X181610000Y-93980000D03*
D17*
X176530000Y-93980000D03*
D11*
X173990000Y-93980000D03*
X171450000Y-93980000D03*
D18*
X158230000Y-90170000D03*
X156730000Y-90170000D03*
X184670000Y-81280000D03*
X186170000Y-81280000D03*
X151650000Y-86360000D03*
X153150000Y-86360000D03*
X190996000Y-87376000D03*
X189496000Y-87376000D03*
X184416000Y-85598000D03*
X185916000Y-85598000D03*
X187210000Y-90678000D03*
X188710000Y-90678000D03*
X151650000Y-84582000D03*
X153150000Y-84582000D03*
X184670000Y-79375000D03*
X186170000Y-79375000D03*
X188480000Y-78994000D03*
X189980000Y-78994000D03*
X188480000Y-76962000D03*
X189980000Y-76962000D03*
X179590000Y-76708000D03*
X181090000Y-76708000D03*
X184670000Y-77470000D03*
X186170000Y-77470000D03*
D19*
X164480000Y-78800000D03*
X164480000Y-79300000D03*
X164480000Y-79800000D03*
X164480000Y-80300000D03*
X164480000Y-80800000D03*
X164480000Y-81300000D03*
X164480000Y-81800000D03*
X164480000Y-82300000D03*
X164480000Y-82800000D03*
X164480000Y-83300000D03*
X164480000Y-83800000D03*
X164480000Y-84300000D03*
X164480000Y-84800000D03*
X164480000Y-85300000D03*
X164480000Y-85800000D03*
X164480000Y-86300000D03*
D20*
X166430000Y-88250000D03*
X166930000Y-88250000D03*
X167430000Y-88250000D03*
X167930000Y-88250000D03*
X168430000Y-88250000D03*
X168930000Y-88250000D03*
X169430000Y-88250000D03*
X169930000Y-88250000D03*
X170430000Y-88250000D03*
X170930000Y-88250000D03*
X171430000Y-88250000D03*
X171930000Y-88250000D03*
X172430000Y-88250000D03*
X172930000Y-88250000D03*
X173430000Y-88250000D03*
X173930000Y-88250000D03*
D19*
X175880000Y-86300000D03*
X175880000Y-85800000D03*
X175880000Y-85300000D03*
X175880000Y-84800000D03*
X175880000Y-84300000D03*
X175880000Y-83800000D03*
X175880000Y-83300000D03*
X175880000Y-82800000D03*
X175880000Y-82300000D03*
X175880000Y-81800000D03*
X175880000Y-81300000D03*
X175880000Y-80800000D03*
X175880000Y-80300000D03*
X175880000Y-79800000D03*
X175880000Y-79300000D03*
X175880000Y-78800000D03*
D20*
X173930000Y-76850000D03*
X173430000Y-76850000D03*
X172930000Y-76850000D03*
X172430000Y-76850000D03*
X171930000Y-76850000D03*
X171430000Y-76850000D03*
X170930000Y-76850000D03*
X170430000Y-76850000D03*
X169930000Y-76850000D03*
X169430000Y-76850000D03*
X168930000Y-76850000D03*
X168430000Y-76850000D03*
X167930000Y-76850000D03*
X167430000Y-76850000D03*
X166930000Y-76850000D03*
X166430000Y-76850000D03*
D21*
X151400000Y-76520000D03*
X151400000Y-78420000D03*
X153400000Y-77470000D03*
D17*
X163830000Y-93980000D03*
X176530000Y-73660000D03*
X161290000Y-93980000D03*
X179070000Y-73660000D03*
X168910000Y-93980000D03*
X181610000Y-73660000D03*
X166370000Y-93980000D03*
X173990000Y-73660000D03*
X168910000Y-73660000D03*
X179070000Y-93980000D03*
X161290000Y-73660000D03*
X166370000Y-73660000D03*
X171450000Y-73660000D03*
X156210000Y-73660000D03*
X158750000Y-73660000D03*
D22*
X200660000Y-78408000D03*
X200660000Y-75008000D03*
D23*
X200406000Y-84328000D03*
X200406000Y-81788000D03*
X196342000Y-84328000D03*
X196374000Y-81858000D03*
D10*
G36*
X155252000Y-80460000D02*
X155252000Y-79560000D01*
X156152000Y-79560000D01*
X156152000Y-80460000D01*
X155252000Y-80460000D01*
X155252000Y-80460000D01*
G37*
D24*
X156718000Y-80010000D03*
D12*
X153150000Y-90932000D03*
X151650000Y-90932000D03*
X151396000Y-82804000D03*
X152896000Y-82804000D03*
D25*
X201930000Y-79756000D03*
D18*
X188710000Y-89154000D03*
X187210000Y-89154000D03*
D26*
X157154000Y-86868000D03*
X160854000Y-86868000D03*
D27*
X183958000Y-88392000D03*
X185358000Y-88392000D03*
D11*
X153670000Y-73660000D03*
D18*
X183908000Y-90932000D03*
X185408000Y-90932000D03*
D28*
X200406000Y-89662000D03*
X200406000Y-89027000D03*
X200406000Y-90297000D03*
X200406000Y-88392000D03*
X200406000Y-90932000D03*
D29*
X200406000Y-92456000D03*
X200406000Y-86868000D03*
D30*
X200914000Y-90297000D03*
X200914000Y-89027000D03*
X199898000Y-88392000D03*
X199898000Y-89662000D03*
X199898000Y-90932000D03*
D14*
X151130000Y-73660000D03*
D18*
X155460000Y-77470000D03*
X156960000Y-77470000D03*
D31*
X181145500Y-83207700D03*
X174777600Y-80410400D03*
X164330400Y-87424700D03*
X166458100Y-84247500D03*
X174857500Y-82968400D03*
X166298200Y-81201300D03*
X181232900Y-81787500D03*
X162361000Y-86868000D03*
X163478600Y-80872600D03*
X162317200Y-88714800D03*
X165497600Y-81300000D03*
X160309600Y-90006500D03*
X159443900Y-79762600D03*
X156960000Y-83439700D03*
X170198200Y-86794900D03*
X178683500Y-78395000D03*
X167880500Y-84670100D03*
X156455700Y-76561200D03*
X160111100Y-81715900D03*
X177862300Y-91170300D03*
X173956300Y-91801500D03*
X161962000Y-90517900D03*
X164651500Y-89770300D03*
X176894500Y-78513400D03*
X155171400Y-80985600D03*
X177023800Y-85732400D03*
X177245200Y-87117400D03*
X150879300Y-86360000D03*
X167972000Y-77876700D03*
X167519100Y-82300000D03*
X164855000Y-77663000D03*
X173954800Y-78738900D03*
X162832400Y-82507900D03*
X162045300Y-82146200D03*
X163200700Y-83902500D03*
X170217000Y-78146600D03*
X170876200Y-78728200D03*
X168941700Y-83026000D03*
X174612400Y-76587600D03*
X169619300Y-82325900D03*
X182588400Y-76694700D03*
X171539400Y-85523000D03*
X170848200Y-85963800D03*
X169161300Y-86522100D03*
X171856400Y-89729200D03*
X172308300Y-82300000D03*
X173940500Y-85935600D03*
X169968700Y-75831200D03*
X168316500Y-80618200D03*
X174768100Y-81307600D03*
X186666800Y-88279900D03*
X178669500Y-80300000D03*
X183246100Y-85121100D03*
X171803500Y-78081400D03*
X186936900Y-79375000D03*
X156834900Y-78566100D03*
X154076400Y-90866200D03*
X165524900Y-78800000D03*
X199163100Y-85698000D03*
X189562800Y-89169600D03*
X160864000Y-80338000D03*
D32*
X184833400Y-89267400D02*
X183958000Y-88392000D01*
X185817600Y-89267400D02*
X184833400Y-89267400D01*
X185983400Y-89101600D02*
X185817600Y-89267400D01*
X185983400Y-87699300D02*
X185983400Y-89101600D01*
X185116300Y-86832200D02*
X185983400Y-87699300D01*
X185116300Y-84712600D02*
X185116300Y-86832200D01*
X184416000Y-84012300D02*
X185116300Y-84712600D01*
X184416000Y-83312000D02*
X184416000Y-83348700D01*
X184416000Y-83348700D02*
X184416000Y-84012300D01*
X184275000Y-83207700D02*
X181145500Y-83207700D01*
X184416000Y-83348700D02*
X184275000Y-83207700D01*
X166914700Y-79800000D02*
X164480000Y-79800000D01*
X167107600Y-79992900D02*
X166914700Y-79800000D01*
X168575600Y-79992900D02*
X167107600Y-79992900D01*
X168993100Y-80410400D02*
X168575600Y-79992900D01*
X174777600Y-80410400D02*
X168993100Y-80410400D01*
X200406000Y-92456000D02*
X193294000Y-92456000D01*
X193294000Y-92456000D02*
X191770000Y-93980000D01*
X200660000Y-75008000D02*
X195658000Y-75008000D01*
X195658000Y-75008000D02*
X194310000Y-73660000D01*
X166458100Y-84247500D02*
X169056800Y-81648800D01*
X169056800Y-81648800D02*
X170367200Y-81648800D01*
X170367200Y-81648800D02*
X171686800Y-82968400D01*
X171686800Y-82968400D02*
X174857500Y-82968400D01*
X199898000Y-88392000D02*
X200406000Y-88392000D01*
X152896000Y-82804000D02*
X152896000Y-83154100D01*
X155460000Y-82550000D02*
X154734700Y-82550000D01*
X155460000Y-82550000D02*
X156185300Y-82550000D01*
X153150000Y-86360000D02*
X152862400Y-86360000D01*
X153150000Y-87884000D02*
X153150000Y-87183700D01*
X152862400Y-86360000D02*
X152862400Y-86896100D01*
X152862400Y-86896100D02*
X153150000Y-87183700D01*
X166930000Y-88250000D02*
X166930000Y-87424700D01*
X159778000Y-83058000D02*
X159778000Y-82357700D01*
X151130000Y-92152300D02*
X151130000Y-93980000D01*
X151650000Y-91632300D02*
X151130000Y-92152300D01*
X151650000Y-90932000D02*
X151650000Y-91632300D01*
X151212300Y-88707700D02*
X151650000Y-88707700D01*
X150924700Y-88420100D02*
X151212300Y-88707700D01*
X150924700Y-87374200D02*
X150924700Y-88420100D01*
X151115300Y-87183600D02*
X150924700Y-87374200D01*
X152574900Y-87183600D02*
X151115300Y-87183600D01*
X152862400Y-86896100D02*
X152574900Y-87183600D01*
X151650000Y-89408000D02*
X151650000Y-90932000D01*
X154130600Y-83154100D02*
X152896000Y-83154100D01*
X154734700Y-82550000D02*
X154130600Y-83154100D01*
X152243400Y-83806700D02*
X151650000Y-83806700D01*
X152896000Y-83154100D02*
X152243400Y-83806700D01*
X151170000Y-83843800D02*
X151650000Y-83843800D01*
X150449400Y-83123200D02*
X151170000Y-83843800D01*
X150449400Y-78014600D02*
X150449400Y-83123200D01*
X151218700Y-77245300D02*
X150449400Y-78014600D01*
X151400000Y-77245300D02*
X151218700Y-77245300D01*
X151650000Y-83843800D02*
X151650000Y-83806700D01*
X151400000Y-76520000D02*
X151400000Y-77245300D01*
X151650000Y-84212900D02*
X151650000Y-83843800D01*
X151650000Y-84212900D02*
X151650000Y-84582000D01*
X152225300Y-85722900D02*
X152862400Y-86360000D01*
X152225300Y-84582000D02*
X152225300Y-85722900D01*
X151650000Y-84582000D02*
X152225300Y-84582000D01*
X151650000Y-89408000D02*
X151650000Y-88707700D01*
X156328700Y-81849600D02*
X159269900Y-81849600D01*
X156185300Y-81993000D02*
X156328700Y-81849600D01*
X156185300Y-82550000D02*
X156185300Y-81993000D01*
X159269900Y-81849600D02*
X159778000Y-82357700D01*
X161954800Y-83758300D02*
X159778000Y-83758300D01*
X162796300Y-84599800D02*
X161954800Y-83758300D01*
X163500600Y-84599800D02*
X162796300Y-84599800D01*
X163800400Y-84300000D02*
X163500600Y-84599800D01*
X164480000Y-84300000D02*
X163800400Y-84300000D01*
X159778000Y-83058000D02*
X159778000Y-83758300D01*
X166405600Y-84300000D02*
X164480000Y-84300000D01*
X166458100Y-84247500D02*
X166405600Y-84300000D01*
X166930000Y-87424700D02*
X164330400Y-87424700D01*
X159874600Y-78039700D02*
X161024000Y-78039700D01*
X158798700Y-76963800D02*
X159874600Y-78039700D01*
X158798700Y-75944200D02*
X158798700Y-76963800D01*
X158989200Y-75753700D02*
X158798700Y-75944200D01*
X161024000Y-75753700D02*
X158989200Y-75753700D01*
X161024000Y-78740000D02*
X161024000Y-78039700D01*
X161024000Y-76454000D02*
X161024000Y-76058400D01*
X161024000Y-76058400D02*
X161024000Y-75753700D01*
X161057700Y-76024700D02*
X166930000Y-76024700D01*
X161024000Y-76058400D02*
X161057700Y-76024700D01*
X166930000Y-76850000D02*
X166930000Y-76024700D01*
X181090000Y-80772000D02*
X181090000Y-80784500D01*
X179745800Y-79440300D02*
X179590000Y-79440300D01*
X181090000Y-80784500D02*
X179745800Y-79440300D01*
X179590000Y-78740000D02*
X179590000Y-79440300D01*
X185916000Y-83312000D02*
X185916000Y-82611700D01*
X181114300Y-80784500D02*
X181090000Y-80784500D01*
X182941500Y-82611700D02*
X181114300Y-80784500D01*
X185916000Y-82611700D02*
X182941500Y-82611700D01*
X189496000Y-87376000D02*
X190071300Y-87376000D01*
X185916000Y-83312000D02*
X186641300Y-83312000D01*
X186641300Y-83312000D02*
X190071300Y-86742000D01*
X190071300Y-86742000D02*
X190071300Y-87376000D01*
X190225400Y-86587900D02*
X190071300Y-86742000D01*
X200406000Y-86587900D02*
X190225400Y-86587900D01*
X200406000Y-86868000D02*
X200406000Y-86587900D01*
X200406000Y-86587900D02*
X200406000Y-84328000D01*
X159269900Y-81047800D02*
X159269900Y-81849600D01*
X160877400Y-79440300D02*
X159269900Y-81047800D01*
X161024000Y-79440300D02*
X160877400Y-79440300D01*
X161024000Y-78740000D02*
X161024000Y-79440300D01*
X185358000Y-88392000D02*
X184732700Y-88392000D01*
X165396900Y-80300000D02*
X166298200Y-81201300D01*
X164480000Y-80300000D02*
X165396900Y-80300000D01*
X179590000Y-80772000D02*
X179590000Y-81472300D01*
X180569100Y-82451300D02*
X179590000Y-81472300D01*
X181232900Y-81787500D02*
X180569100Y-82451300D01*
X184732700Y-87766700D02*
X184732700Y-88392000D01*
X180507900Y-83541900D02*
X184732700Y-87766700D01*
X180507900Y-82512500D02*
X180507900Y-83541900D01*
X180569100Y-82451300D02*
X180507900Y-82512500D01*
X160191400Y-86868000D02*
X159860100Y-86868000D01*
X158334700Y-88393400D02*
X159860100Y-86868000D01*
X156485700Y-88393400D02*
X158334700Y-88393400D01*
X155471100Y-89408000D02*
X156485700Y-88393400D01*
X153150000Y-89408000D02*
X155471100Y-89408000D01*
X160191400Y-86868000D02*
X160854000Y-86868000D01*
X164480000Y-80800000D02*
X163654700Y-80800000D01*
X160854000Y-86868000D02*
X162179300Y-86868000D01*
X163582100Y-80872600D02*
X163478600Y-80872600D01*
X163654700Y-80800000D02*
X163582100Y-80872600D01*
X162179300Y-86868000D02*
X162361000Y-86868000D01*
X157154000Y-86868000D02*
X155828700Y-86868000D01*
X154112300Y-88584400D02*
X152424600Y-88584400D01*
X155828700Y-86868000D02*
X154112300Y-88584400D01*
X152350400Y-88584400D02*
X151650000Y-87884000D01*
X152424600Y-88584400D02*
X152350400Y-88584400D01*
X164480000Y-81300000D02*
X165305300Y-81300000D01*
X165305300Y-81300000D02*
X165497600Y-81300000D01*
X162109200Y-88922800D02*
X162317200Y-88714800D01*
X156593200Y-88922800D02*
X162109200Y-88922800D01*
X155397900Y-90118100D02*
X156593200Y-88922800D01*
X152579800Y-90118100D02*
X155397900Y-90118100D01*
X152424600Y-89962900D02*
X152579800Y-90118100D01*
X152424600Y-88584400D02*
X152424600Y-89962900D01*
X159524000Y-79682500D02*
X159524000Y-78740000D01*
X159443900Y-79762600D02*
X159524000Y-79682500D01*
X160447300Y-89868800D02*
X160309600Y-90006500D01*
X163188700Y-89868800D02*
X160447300Y-89868800D01*
X164170300Y-90850400D02*
X163188700Y-89868800D01*
X172821300Y-90850400D02*
X164170300Y-90850400D01*
X174450900Y-89220800D02*
X172821300Y-90850400D01*
X174450900Y-87624000D02*
X174450900Y-89220800D01*
X174251600Y-87424700D02*
X174450900Y-87624000D01*
X173430000Y-87424700D02*
X174251600Y-87424700D01*
X173430000Y-88250000D02*
X173430000Y-87424700D01*
X160230900Y-77160900D02*
X159524000Y-76454000D01*
X164380500Y-77160900D02*
X160230900Y-77160900D01*
X164534100Y-77007300D02*
X164380500Y-77160900D01*
X165097100Y-77007300D02*
X164534100Y-77007300D01*
X167632400Y-79542600D02*
X165097100Y-77007300D01*
X168762200Y-79542600D02*
X167632400Y-79542600D01*
X169061100Y-79841500D02*
X168762200Y-79542600D01*
X174462200Y-79841500D02*
X169061100Y-79841500D01*
X175003700Y-79300000D02*
X174462200Y-79841500D01*
X175880000Y-79300000D02*
X175003700Y-79300000D01*
X156960000Y-82550000D02*
X156960000Y-83250300D01*
X158230000Y-90170000D02*
X158230000Y-90945300D01*
X181090000Y-78740000D02*
X181090000Y-78039700D01*
X158750000Y-93980000D02*
X158750000Y-92654700D01*
X158230000Y-92134700D02*
X158750000Y-92654700D01*
X158230000Y-90945300D02*
X158230000Y-92134700D01*
X179038800Y-78039700D02*
X178683500Y-78395000D01*
X181090000Y-78039700D02*
X179038800Y-78039700D01*
X156960000Y-83250300D02*
X156960000Y-83439700D01*
X167677800Y-84872800D02*
X167880500Y-84670100D01*
X166199100Y-84872800D02*
X167677800Y-84872800D01*
X166126300Y-84800000D02*
X166199100Y-84872800D01*
X164480000Y-84800000D02*
X166126300Y-84800000D01*
X171429600Y-84670100D02*
X167880500Y-84670100D01*
X171657200Y-84897700D02*
X171429600Y-84670100D01*
X171798500Y-84897700D02*
X171657200Y-84897700D01*
X172164700Y-85263900D02*
X171798500Y-84897700D01*
X172164700Y-85782100D02*
X172164700Y-85263900D01*
X171151900Y-86794900D02*
X172164700Y-85782100D01*
X170198200Y-86794900D02*
X171151900Y-86794900D01*
X153670000Y-73660000D02*
X153670000Y-74985300D01*
X153400000Y-77470000D02*
X153400000Y-77107300D01*
X161278000Y-83058000D02*
X161278000Y-82357700D01*
X153670000Y-74985300D02*
X153670000Y-76561200D01*
X153400000Y-76831200D02*
X153670000Y-76561200D01*
X153400000Y-77107300D02*
X153400000Y-76831200D01*
X153670000Y-76561200D02*
X156455700Y-76561200D01*
X183908000Y-90932000D02*
X183620400Y-90932000D01*
X160752900Y-82357700D02*
X161278000Y-82357700D01*
X160111100Y-81715900D02*
X160752900Y-82357700D01*
X175880000Y-81800000D02*
X176705300Y-81800000D01*
X178100600Y-83195300D02*
X176705300Y-81800000D01*
X178100600Y-90932000D02*
X178100600Y-83195300D01*
X183620400Y-90932000D02*
X178100600Y-90932000D01*
X178100600Y-90932000D02*
X177862300Y-91170300D01*
X163245600Y-91801500D02*
X173956300Y-91801500D01*
X161962000Y-90517900D02*
X163245600Y-91801500D01*
X151550000Y-80518000D02*
X152175300Y-80518000D01*
X154926700Y-80010000D02*
X154658700Y-79742000D01*
X152175300Y-80361700D02*
X152175300Y-80518000D01*
X152795000Y-79742000D02*
X152175300Y-80361700D01*
X154658700Y-79742000D02*
X152795000Y-79742000D01*
X179590000Y-76708000D02*
X180165300Y-76708000D01*
X156730000Y-90170000D02*
X156730000Y-90557600D01*
X156730000Y-90557600D02*
X156730000Y-90945300D01*
X156210000Y-91465300D02*
X156730000Y-90945300D01*
X156210000Y-93980000D02*
X156210000Y-91465300D01*
X156960000Y-77470000D02*
X156384700Y-77470000D01*
X180165300Y-76998900D02*
X180165300Y-76708000D01*
X154658700Y-79435600D02*
X154658700Y-79742000D01*
X156384700Y-77709600D02*
X154658700Y-79435600D01*
X156384700Y-77470000D02*
X156384700Y-77709600D01*
X184046400Y-77518300D02*
X184094700Y-77470000D01*
X180684700Y-77518300D02*
X184046400Y-77518300D01*
X180165300Y-76998900D02*
X180684700Y-77518300D01*
X164254400Y-89373200D02*
X164651500Y-89770300D01*
X157838400Y-89373200D02*
X164254400Y-89373200D01*
X156730000Y-90481600D02*
X157838400Y-89373200D01*
X156730000Y-90557600D02*
X156730000Y-90481600D01*
X167430000Y-88250000D02*
X167430000Y-89075300D01*
X173930000Y-88250000D02*
X173930000Y-89075300D01*
X166430000Y-76850000D02*
X166430000Y-77675300D01*
X175880000Y-78800000D02*
X176705300Y-78800000D01*
X177924600Y-77483300D02*
X176894500Y-78513400D01*
X179680900Y-77483300D02*
X177924600Y-77483300D01*
X180165300Y-76998900D02*
X179680900Y-77483300D01*
X176705300Y-78702600D02*
X176705300Y-78800000D01*
X176894500Y-78513400D02*
X176705300Y-78702600D01*
X184670000Y-77470000D02*
X184382400Y-77470000D01*
X184382400Y-77470000D02*
X184094700Y-77470000D01*
X184670000Y-81280000D02*
X184094700Y-81280000D01*
X167847000Y-79092300D02*
X166430000Y-77675300D01*
X169031100Y-79092300D02*
X167847000Y-79092300D01*
X169330000Y-79391200D02*
X169031100Y-79092300D01*
X174275600Y-79391200D02*
X169330000Y-79391200D01*
X174866800Y-78800000D02*
X174275600Y-79391200D01*
X175880000Y-78800000D02*
X174866800Y-78800000D01*
X184626200Y-77713800D02*
X184626200Y-78245200D01*
X184382400Y-77470000D02*
X184626200Y-77713800D01*
X184094700Y-78776700D02*
X184094700Y-81280000D01*
X184626200Y-78245200D02*
X184094700Y-78776700D01*
X188480000Y-78994000D02*
X187904700Y-78994000D01*
X184712900Y-78331900D02*
X187285000Y-78331900D01*
X184626200Y-78245200D02*
X184712900Y-78331900D01*
X187904700Y-77712200D02*
X187285000Y-78331900D01*
X187904700Y-76962000D02*
X187904700Y-77712200D01*
X187285000Y-78374300D02*
X187904700Y-78994000D01*
X187285000Y-78331900D02*
X187285000Y-78374300D01*
X188480000Y-76962000D02*
X187904700Y-76962000D01*
X155702000Y-80010000D02*
X155314400Y-80010000D01*
X155314400Y-80010000D02*
X154926700Y-80010000D01*
X155314400Y-80842600D02*
X155171400Y-80985600D01*
X155314400Y-80010000D02*
X155314400Y-80842600D01*
X165241000Y-90359800D02*
X164651500Y-89770300D01*
X172134500Y-90359800D02*
X165241000Y-90359800D01*
X172782600Y-89711700D02*
X172134500Y-90359800D01*
X172146200Y-89075300D02*
X172782600Y-89711700D01*
X167430000Y-89075300D02*
X172146200Y-89075300D01*
X173293600Y-89711700D02*
X173930000Y-89075300D01*
X172782600Y-89711700D02*
X173293600Y-89711700D01*
X152488000Y-81280000D02*
X153250000Y-80518000D01*
X151107000Y-81280000D02*
X152488000Y-81280000D01*
X150924600Y-81097600D02*
X151107000Y-81280000D01*
X150924600Y-79620700D02*
X150924600Y-81097600D01*
X151400000Y-79145300D02*
X150924600Y-79620700D01*
X151400000Y-78420000D02*
X151400000Y-79145300D01*
X200406000Y-89662000D02*
X199898000Y-89662000D01*
X185916000Y-85598000D02*
X186491300Y-85598000D01*
X189437600Y-88544300D02*
X186491300Y-85598000D01*
X189821900Y-88544300D02*
X189437600Y-88544300D01*
X190939600Y-89662000D02*
X189821900Y-88544300D01*
X199898000Y-89662000D02*
X190939600Y-89662000D01*
X200914000Y-89027000D02*
X200406000Y-89027000D01*
X193222300Y-89027000D02*
X191571300Y-87376000D01*
X200406000Y-89027000D02*
X193222300Y-89027000D01*
X190996000Y-87376000D02*
X191571300Y-87376000D01*
X200914000Y-90297000D02*
X200406000Y-90297000D01*
X189666300Y-90297000D02*
X189285300Y-90678000D01*
X200406000Y-90297000D02*
X189666300Y-90297000D01*
X188710000Y-90678000D02*
X189285300Y-90678000D01*
X200406000Y-90932000D02*
X199898000Y-90932000D01*
X185408000Y-90932000D02*
X185983300Y-90932000D01*
X186542100Y-91490800D02*
X185983300Y-90932000D01*
X191422000Y-91490800D02*
X186542100Y-91490800D01*
X192098700Y-90814100D02*
X191422000Y-91490800D01*
X192295100Y-90814100D02*
X192098700Y-90814100D01*
X192413000Y-90932000D02*
X192295100Y-90814100D01*
X199898000Y-90932000D02*
X192413000Y-90932000D01*
X175148800Y-75041200D02*
X176530000Y-73660000D01*
X172245000Y-75041200D02*
X175148800Y-75041200D01*
X171430000Y-75856200D02*
X172245000Y-75041200D01*
X171430000Y-76850000D02*
X171430000Y-75856200D01*
X175880000Y-83300000D02*
X176705300Y-83300000D01*
X176705300Y-85413900D02*
X177023800Y-85732400D01*
X176705300Y-83300000D02*
X176705300Y-85413900D01*
X177649200Y-86713400D02*
X177245200Y-87117400D01*
X177649200Y-83600100D02*
X177649200Y-86713400D01*
X176849100Y-82800000D02*
X177649200Y-83600100D01*
X175880000Y-82800000D02*
X176849100Y-82800000D01*
X172930000Y-76850000D02*
X172930000Y-76024700D01*
X172992400Y-75962300D02*
X172930000Y-76024700D01*
X176539700Y-75962300D02*
X172992400Y-75962300D01*
X177665900Y-74836100D02*
X176539700Y-75962300D01*
X180433900Y-74836100D02*
X177665900Y-74836100D01*
X181610000Y-73660000D02*
X180433900Y-74836100D01*
X167930000Y-76850000D02*
X167930000Y-76024700D01*
X168890900Y-76024700D02*
X167930000Y-76024700D01*
X171255600Y-73660000D02*
X168890900Y-76024700D01*
X171450000Y-73660000D02*
X171255600Y-73660000D01*
X167430000Y-75140000D02*
X168910000Y-73660000D01*
X167430000Y-76850000D02*
X167430000Y-75140000D01*
X175880000Y-86300000D02*
X176705300Y-86300000D01*
X176619900Y-91529900D02*
X179070000Y-93980000D01*
X176619900Y-86858400D02*
X176619900Y-91529900D01*
X176705300Y-86773000D02*
X176619900Y-86858400D01*
X176705300Y-86300000D02*
X176705300Y-86773000D01*
X151650000Y-86360000D02*
X151074700Y-86360000D01*
X151074700Y-86360000D02*
X150879300Y-86360000D01*
X168430000Y-76850000D02*
X168430000Y-77675300D01*
X168173400Y-77675300D02*
X167972000Y-77876700D01*
X168430000Y-77675300D02*
X168173400Y-77675300D01*
X171930000Y-88250000D02*
X171930000Y-87424700D01*
X169179600Y-87424700D02*
X171930000Y-87424700D01*
X168528600Y-86773700D02*
X169179600Y-87424700D01*
X163813400Y-86773700D02*
X168528600Y-86773700D01*
X161621700Y-84582000D02*
X163813400Y-86773700D01*
X153150000Y-84582000D02*
X161621700Y-84582000D01*
X164480000Y-82300000D02*
X167519100Y-82300000D01*
X164515300Y-77663000D02*
X164855000Y-77663000D01*
X163654700Y-78523600D02*
X164515300Y-77663000D01*
X163654700Y-79300000D02*
X163654700Y-78523600D01*
X164480000Y-79300000D02*
X163654700Y-79300000D01*
X171930000Y-76850000D02*
X171930000Y-76024700D01*
X177673000Y-74168000D02*
X179070000Y-73660000D01*
X176373400Y-75491600D02*
X177673000Y-74168000D01*
X172463100Y-75491600D02*
X176373400Y-75491600D01*
X171930000Y-76024700D02*
X172463100Y-75491600D01*
X172430000Y-76850000D02*
X172430000Y-77675300D01*
X172891200Y-77675300D02*
X173954800Y-78738900D01*
X172430000Y-77675300D02*
X172891200Y-77675300D01*
X164480000Y-82800000D02*
X163654700Y-82800000D01*
X163124500Y-82800000D02*
X162832400Y-82507900D01*
X163654700Y-82800000D02*
X163124500Y-82800000D01*
X164480000Y-83300000D02*
X163654700Y-83300000D01*
X163631900Y-83277200D02*
X163654700Y-83300000D01*
X162717400Y-83277200D02*
X163631900Y-83277200D01*
X162045300Y-82605100D02*
X162717400Y-83277200D01*
X162045300Y-82146200D02*
X162045300Y-82605100D01*
X163303200Y-83800000D02*
X163200700Y-83902500D01*
X164480000Y-83800000D02*
X163303200Y-83800000D01*
X189980000Y-78994000D02*
X189404700Y-78994000D01*
X189230000Y-73660000D02*
X189230000Y-74985300D01*
X189230000Y-78819300D02*
X189404700Y-78994000D01*
X189230000Y-74985300D02*
X189230000Y-78819300D01*
X169430000Y-76850000D02*
X169430000Y-77675300D01*
X169901300Y-78146600D02*
X170217000Y-78146600D01*
X169430000Y-77675300D02*
X169901300Y-78146600D01*
X190568600Y-76186700D02*
X191770000Y-74985300D01*
X189980000Y-76186700D02*
X190568600Y-76186700D01*
X191770000Y-73660000D02*
X191770000Y-74985300D01*
X189980000Y-76962000D02*
X189980000Y-76186700D01*
X168930000Y-78354400D02*
X168930000Y-76850000D01*
X168930100Y-78354400D02*
X168930000Y-78354400D01*
X169347700Y-78772000D02*
X168930100Y-78354400D01*
X170832400Y-78772000D02*
X169347700Y-78772000D01*
X170876200Y-78728200D02*
X170832400Y-78772000D01*
X170422400Y-83026000D02*
X168941700Y-83026000D01*
X171843800Y-84447400D02*
X170422400Y-83026000D01*
X171985100Y-84447400D02*
X171843800Y-84447400D01*
X172615000Y-85077300D02*
X171985100Y-84447400D01*
X172615000Y-85968700D02*
X172615000Y-85077300D01*
X172430000Y-86153700D02*
X172615000Y-85968700D01*
X172430000Y-88250000D02*
X172430000Y-86153700D01*
X184150000Y-73660000D02*
X183007000Y-74168000D01*
X181090000Y-76708000D02*
X181090000Y-75932700D01*
X179101400Y-75932700D02*
X181090000Y-75932700D01*
X178446500Y-76587600D02*
X179101400Y-75932700D01*
X174612400Y-76587600D02*
X178446500Y-76587600D01*
X182824700Y-74198000D02*
X181090000Y-75932700D01*
X183007000Y-74168000D02*
X182824700Y-74198000D01*
X186690000Y-73660000D02*
X186690000Y-74985300D01*
X186170000Y-77470000D02*
X186170000Y-76694700D01*
X186170000Y-75505300D02*
X186170000Y-76694700D01*
X186690000Y-74985300D02*
X186170000Y-75505300D01*
X170381500Y-82325900D02*
X169619300Y-82325900D01*
X172052700Y-83997100D02*
X170381500Y-82325900D01*
X172171700Y-83997100D02*
X172052700Y-83997100D01*
X173065300Y-84890700D02*
X172171700Y-83997100D01*
X173065300Y-86155300D02*
X173065300Y-84890700D01*
X172930000Y-86290600D02*
X173065300Y-86155300D01*
X172930000Y-88250000D02*
X172930000Y-86290600D01*
X186170000Y-76694700D02*
X182588400Y-76694700D01*
X164480000Y-85300000D02*
X165305300Y-85300000D01*
X171339500Y-85323100D02*
X171539400Y-85523000D01*
X165328400Y-85323100D02*
X171339500Y-85323100D01*
X165305300Y-85300000D02*
X165328400Y-85323100D01*
X170684400Y-85800000D02*
X170848200Y-85963800D01*
X164480000Y-85800000D02*
X170684400Y-85800000D01*
X168939200Y-86300000D02*
X169161300Y-86522100D01*
X164480000Y-86300000D02*
X168939200Y-86300000D01*
X166430000Y-88250000D02*
X166430000Y-89075300D01*
X167083900Y-89729200D02*
X166430000Y-89075300D01*
X171856400Y-89729200D02*
X167083900Y-89729200D01*
X175880000Y-82300000D02*
X172308300Y-82300000D01*
X175880000Y-85800000D02*
X175054700Y-85800000D01*
X175054700Y-86585600D02*
X175054700Y-85800000D01*
X175809500Y-87340400D02*
X175054700Y-86585600D01*
X175809500Y-93259500D02*
X175809500Y-87340400D01*
X176530000Y-93980000D02*
X175809500Y-93259500D01*
X173990000Y-93980000D02*
X173990000Y-92654700D01*
X174883700Y-85300000D02*
X175880000Y-85300000D01*
X174604400Y-85579300D02*
X174883700Y-85300000D01*
X174604400Y-86772200D02*
X174604400Y-85579300D01*
X174901300Y-87069100D02*
X174604400Y-86772200D01*
X174901300Y-91743400D02*
X174901300Y-87069100D01*
X173990000Y-92654700D02*
X174901300Y-91743400D01*
X173940500Y-85594000D02*
X173940500Y-85935600D01*
X174734500Y-84800000D02*
X173940500Y-85594000D01*
X175880000Y-84800000D02*
X174734500Y-84800000D01*
X170162200Y-76024700D02*
X169968700Y-75831200D01*
X170430000Y-76024700D02*
X170162200Y-76024700D01*
X187210000Y-89154000D02*
X187210000Y-88378700D01*
X186765600Y-88378700D02*
X186666800Y-88279900D01*
X187210000Y-88378700D02*
X186765600Y-88378700D01*
X174484100Y-81023600D02*
X174768100Y-81307600D01*
X168721900Y-81023600D02*
X174484100Y-81023600D01*
X168316500Y-80618200D02*
X168721900Y-81023600D01*
X170430000Y-76850000D02*
X170430000Y-76024700D01*
X201930000Y-79756000D02*
X201041000Y-79756000D01*
X196342000Y-84328000D02*
X197917300Y-84328000D01*
X197917300Y-82902300D02*
X197917300Y-84328000D01*
X198830600Y-81989000D02*
X197917300Y-82902300D01*
X198830600Y-80727700D02*
X198830600Y-81989000D01*
X199802300Y-79756000D02*
X198830600Y-80727700D01*
X201422000Y-79756000D02*
X201041000Y-79756000D01*
X201041000Y-79756000D02*
X199802300Y-79756000D01*
X186170000Y-81280000D02*
X186745300Y-81280000D01*
X194220700Y-81280000D02*
X186745300Y-81280000D01*
X194798700Y-81858000D02*
X194220700Y-81280000D01*
X196374000Y-81858000D02*
X194798700Y-81858000D01*
X183363800Y-85121100D02*
X183840700Y-85598000D01*
X183246100Y-85121100D02*
X183363800Y-85121100D01*
X184416000Y-85598000D02*
X183840700Y-85598000D01*
X175880000Y-80300000D02*
X178669500Y-80300000D01*
X187210000Y-90678000D02*
X186634700Y-90678000D01*
X175880000Y-80800000D02*
X176705300Y-80800000D01*
X178672100Y-82766800D02*
X176705300Y-80800000D01*
X178672100Y-84424500D02*
X178672100Y-82766800D01*
X184350300Y-90102700D02*
X178672100Y-84424500D01*
X186059400Y-90102700D02*
X184350300Y-90102700D01*
X186634700Y-90678000D02*
X186059400Y-90102700D01*
X185245300Y-79662600D02*
X185245300Y-79375000D01*
X185733100Y-80150400D02*
X185245300Y-79662600D01*
X191298500Y-80150400D02*
X185733100Y-80150400D01*
X193040900Y-78408000D02*
X191298500Y-80150400D01*
X200660000Y-78408000D02*
X193040900Y-78408000D01*
X184670000Y-79375000D02*
X185245300Y-79375000D01*
X186170000Y-79375000D02*
X186745300Y-79375000D01*
X186745300Y-79375000D02*
X186936900Y-79375000D01*
X170930000Y-76850000D02*
X170930000Y-77675300D01*
X171397400Y-77675300D02*
X171803500Y-78081400D01*
X170930000Y-77675300D02*
X171397400Y-77675300D01*
X162814000Y-74168000D02*
X162433000Y-74295000D01*
X162433000Y-74295000D02*
X161825200Y-74747400D01*
X161825200Y-74747400D02*
X159275700Y-74747400D01*
X159275700Y-74747400D02*
X157756800Y-76266300D01*
X157756800Y-76266300D02*
X157756800Y-77905700D01*
X157756800Y-77905700D02*
X157096400Y-78566100D01*
X157096400Y-78566100D02*
X156834900Y-78566100D01*
X163830000Y-73660000D02*
X162814000Y-74168000D01*
X153875300Y-90932000D02*
X153941100Y-90866200D01*
X153941100Y-90866200D02*
X154076400Y-90866200D01*
X153150000Y-90932000D02*
X153875300Y-90932000D01*
X165524900Y-78800000D02*
X164480000Y-78800000D01*
X189300900Y-89169600D02*
X189285300Y-89154000D01*
X189562800Y-89169600D02*
X189300900Y-89169600D01*
X188710000Y-89154000D02*
X189285300Y-89154000D01*
X198830600Y-85365500D02*
X199163100Y-85698000D01*
X198830600Y-83271100D02*
X198830600Y-85365500D01*
X200313700Y-81788000D02*
X198830600Y-83271100D01*
X200406000Y-81788000D02*
X200313700Y-81788000D01*
X156718000Y-80010000D02*
X156718000Y-80785300D01*
X151396000Y-82804000D02*
X151396000Y-82103700D01*
X155662900Y-81840400D02*
X156718000Y-80785300D01*
X151659300Y-81840400D02*
X155662900Y-81840400D01*
X151396000Y-82103700D02*
X151659300Y-81840400D01*
X151206000Y-74984800D02*
X151130000Y-74984800D01*
X152344600Y-76123400D02*
X151206000Y-74984800D01*
X152344600Y-77777400D02*
X152344600Y-76123400D01*
X152805800Y-78238600D02*
X152344600Y-77777400D01*
X154116100Y-78238600D02*
X152805800Y-78238600D01*
X154884700Y-77470000D02*
X154116100Y-78238600D01*
X155460000Y-77470000D02*
X154884700Y-77470000D01*
X151130000Y-73660000D02*
X151130000Y-74984800D01*
X162058400Y-80338000D02*
X160864000Y-80338000D01*
X163520400Y-81800000D02*
X162058400Y-80338000D01*
X164480000Y-81800000D02*
X163520400Y-81800000D01*
M02*
