G04 #@! TF.FileFunction,Copper,L2,Bot,Signal*
%FSLAX46Y46*%
G04 Gerber Fmt 4.6, Leading zero omitted, Abs format (unit mm)*
G04 Created by KiCad (PCBNEW 4.0.6) date 07/20/17 20:23:09*
%MOMM*%
%LPD*%
G01*
G04 APERTURE LIST*
%ADD10C,0.100000*%
%ADD11R,2.000000X2.000000*%
%ADD12R,1.998980X1.998980*%
%ADD13R,2.000000X1.998980*%
%ADD14C,1.998980*%
%ADD15C,1.524000*%
%ADD16C,1.000000*%
%ADD17O,1.100000X1.800000*%
%ADD18C,0.500000*%
%ADD19C,0.600000*%
%ADD20C,0.250000*%
G04 APERTURE END LIST*
D10*
D11*
X194310000Y-73660000D03*
X151130000Y-93980000D03*
X158750000Y-93980000D03*
X191770000Y-93980000D03*
X163830000Y-73660000D03*
D12*
X156210000Y-93980000D03*
D13*
X153670000Y-93980000D03*
D11*
X189230000Y-73660000D03*
X191770000Y-73660000D03*
X184150000Y-73660000D03*
X186690000Y-73660000D03*
D14*
X189230000Y-93980000D03*
X186690000Y-93980000D03*
X184150000Y-93980000D03*
X181610000Y-93980000D03*
D15*
X176530000Y-93980000D03*
D11*
X173990000Y-93980000D03*
X171450000Y-93980000D03*
D15*
X163830000Y-93980000D03*
X176530000Y-73660000D03*
X161290000Y-93980000D03*
X179070000Y-73660000D03*
X168910000Y-93980000D03*
X181610000Y-73660000D03*
X166370000Y-93980000D03*
X173990000Y-73660000D03*
X168910000Y-73660000D03*
X179070000Y-93980000D03*
X161290000Y-73660000D03*
X166370000Y-73660000D03*
X171450000Y-73660000D03*
X156210000Y-73660000D03*
X158750000Y-73660000D03*
D16*
X201930000Y-79756000D03*
D11*
X153670000Y-73660000D03*
D17*
X200406000Y-92456000D03*
X200406000Y-86868000D03*
D18*
X200914000Y-90297000D03*
X200914000Y-89027000D03*
X199898000Y-88392000D03*
X199898000Y-89662000D03*
X199898000Y-90932000D03*
D12*
X151130000Y-73660000D03*
D19*
X181145500Y-83207700D03*
X174777600Y-80410400D03*
X164330400Y-87424700D03*
X166458100Y-84247500D03*
X174857500Y-82968400D03*
X166298200Y-81201300D03*
X181232900Y-81787500D03*
X162361000Y-86868000D03*
X163478600Y-80872600D03*
X162317200Y-88714800D03*
X165497600Y-81300000D03*
X160309600Y-90006500D03*
X159443900Y-79762600D03*
X156960000Y-83439700D03*
X170198200Y-86794900D03*
X178683500Y-78395000D03*
X167880500Y-84670100D03*
X156455700Y-76561200D03*
X160111100Y-81715900D03*
X177862300Y-91170300D03*
X173956300Y-91801500D03*
X161962000Y-90517900D03*
X164651500Y-89770300D03*
X176894500Y-78513400D03*
X155171400Y-80985600D03*
X177023800Y-85732400D03*
X177245200Y-87117400D03*
X150879300Y-86360000D03*
X167972000Y-77876700D03*
X167519100Y-82300000D03*
X164855000Y-77663000D03*
X173954800Y-78738900D03*
X162832400Y-82507900D03*
X162045300Y-82146200D03*
X163200700Y-83902500D03*
X170217000Y-78146600D03*
X170876200Y-78728200D03*
X168941700Y-83026000D03*
X174612400Y-76587600D03*
X169619300Y-82325900D03*
X182588400Y-76694700D03*
X171539400Y-85523000D03*
X170848200Y-85963800D03*
X169161300Y-86522100D03*
X171856400Y-89729200D03*
X172308300Y-82300000D03*
X173940500Y-85935600D03*
X169968700Y-75831200D03*
X168316500Y-80618200D03*
X174768100Y-81307600D03*
X186666800Y-88279900D03*
X178669500Y-80300000D03*
X183246100Y-85121100D03*
X171803500Y-78081400D03*
X186936900Y-79375000D03*
X156834900Y-78566100D03*
X154076400Y-90866200D03*
X165524900Y-78800000D03*
X199163100Y-85698000D03*
X189562800Y-89169600D03*
X160864000Y-80338000D03*
D20*
X175321400Y-80954200D02*
X174777600Y-80410400D01*
X178850400Y-80954200D02*
X175321400Y-80954200D01*
X181103900Y-83207700D02*
X178850400Y-80954200D01*
X181145500Y-83207700D02*
X181103900Y-83207700D01*
X191770000Y-93980000D02*
X187834200Y-90044200D01*
X187834200Y-90044200D02*
X186421200Y-90044200D01*
X186421200Y-90044200D02*
X179345400Y-82968400D01*
X179345400Y-82968400D02*
X174857500Y-82968400D01*
X200196700Y-88093300D02*
X199898000Y-88392000D01*
X200406000Y-88093300D02*
X200196700Y-88093300D01*
X200406000Y-86868000D02*
X200406000Y-88093300D01*
X199322600Y-88967400D02*
X199898000Y-88392000D01*
X199322600Y-91372600D02*
X199322600Y-88967400D01*
X200406000Y-92456000D02*
X199322600Y-91372600D01*
X200406000Y-86868000D02*
X200406000Y-85642700D01*
X194310000Y-79546700D02*
X200406000Y-85642700D01*
X194310000Y-73660000D02*
X194310000Y-79546700D01*
X166458100Y-85297000D02*
X164330400Y-87424700D01*
X166458100Y-84247500D02*
X166458100Y-85297000D01*
X181232900Y-79955300D02*
X181232900Y-81787500D01*
X179047200Y-77769600D02*
X181232900Y-79955300D01*
X173983500Y-77769600D02*
X179047200Y-77769600D01*
X173329400Y-78423700D02*
X173983500Y-77769600D01*
X173329400Y-78713700D02*
X173329400Y-78423700D01*
X170557200Y-81485900D02*
X173329400Y-78713700D01*
X170557200Y-82295000D02*
X170557200Y-81485900D01*
X169176500Y-83675700D02*
X170557200Y-82295000D01*
X167964400Y-83675700D02*
X169176500Y-83675700D01*
X166298200Y-82009500D02*
X167964400Y-83675700D01*
X166298200Y-81201300D02*
X166298200Y-82009500D01*
X163908200Y-85320800D02*
X162361000Y-86868000D01*
X163908200Y-81302200D02*
X163908200Y-85320800D01*
X163478600Y-80872600D02*
X163908200Y-81302200D01*
X162317200Y-88439000D02*
X162317200Y-88714800D01*
X165497600Y-85258600D02*
X162317200Y-88439000D01*
X165497600Y-81300000D02*
X165497600Y-85258600D01*
X159443900Y-89140800D02*
X160309600Y-90006500D01*
X159443900Y-79762600D02*
X159443900Y-89140800D01*
X158750000Y-93980000D02*
X158750000Y-93038300D01*
X158750000Y-93038300D02*
X158750000Y-92654700D01*
X156960000Y-90864700D02*
X156960000Y-83439700D01*
X158750000Y-92654700D02*
X156960000Y-90864700D01*
X160121400Y-91666900D02*
X158750000Y-93038300D01*
X162454600Y-91666900D02*
X160121400Y-91666900D01*
X163125500Y-90996000D02*
X162454600Y-91666900D01*
X163125500Y-89519800D02*
X163125500Y-90996000D01*
X167880500Y-84764800D02*
X163125500Y-89519800D01*
X167880500Y-84670100D02*
X167880500Y-84764800D01*
X170198200Y-85520000D02*
X170198200Y-86794900D01*
X174132500Y-81585700D02*
X170198200Y-85520000D01*
X174132500Y-80171200D02*
X174132500Y-81585700D01*
X174572900Y-79730800D02*
X174132500Y-80171200D01*
X176561500Y-79730800D02*
X174572900Y-79730800D01*
X177603800Y-78688500D02*
X176561500Y-79730800D01*
X177603800Y-78688400D02*
X177603800Y-78688500D01*
X178390100Y-78688400D02*
X177603800Y-78688400D01*
X178683500Y-78395000D02*
X178390100Y-78688400D01*
X157178800Y-76561200D02*
X156455700Y-76561200D01*
X160111100Y-79493500D02*
X157178800Y-76561200D01*
X160111100Y-81715900D02*
X160111100Y-79493500D01*
X160111100Y-88667000D02*
X160111100Y-81715900D01*
X161962000Y-90517900D02*
X160111100Y-88667000D01*
X177231100Y-91801500D02*
X173956300Y-91801500D01*
X177862300Y-91170300D02*
X177231100Y-91801500D01*
X175090300Y-78513400D02*
X176894500Y-78513400D01*
X171682900Y-81920800D02*
X175090300Y-78513400D01*
X171682900Y-82443100D02*
X171682900Y-81920800D01*
X164651500Y-89474500D02*
X171682900Y-82443100D01*
X164651500Y-89770300D02*
X164651500Y-89474500D01*
X155171400Y-91616600D02*
X155171400Y-80985600D01*
X156210000Y-92655200D02*
X155171400Y-91616600D01*
X156210000Y-93980000D02*
X156210000Y-92655200D01*
X166370000Y-93057500D02*
X166370000Y-93980000D01*
X171224200Y-88203300D02*
X166370000Y-93057500D01*
X174552900Y-88203300D02*
X171224200Y-88203300D01*
X177023800Y-85732400D02*
X174552900Y-88203300D01*
X168910000Y-91154400D02*
X168910000Y-93980000D01*
X171410800Y-88653600D02*
X168910000Y-91154400D01*
X175709000Y-88653600D02*
X171410800Y-88653600D01*
X177245200Y-87117400D02*
X175709000Y-88653600D01*
X153670000Y-93980000D02*
X153670000Y-93439300D01*
X150879300Y-90648600D02*
X150879300Y-86360000D01*
X153670000Y-93439300D02*
X150879300Y-90648600D01*
X164597000Y-81251700D02*
X167972000Y-77876700D01*
X164597000Y-85522300D02*
X164597000Y-81251700D01*
X161653500Y-88465800D02*
X164597000Y-85522300D01*
X161653500Y-88935600D02*
X161653500Y-88465800D01*
X162606300Y-89888400D02*
X161653500Y-88935600D01*
X162606300Y-90853300D02*
X162606300Y-89888400D01*
X162258400Y-91201200D02*
X162606300Y-90853300D01*
X160583800Y-91201200D02*
X162258400Y-91201200D01*
X157724500Y-88341900D02*
X160583800Y-91201200D01*
X157724500Y-78569500D02*
X157724500Y-88341900D01*
X157048600Y-77893600D02*
X157724500Y-78569500D01*
X156586300Y-77893600D02*
X157048600Y-77893600D01*
X150879300Y-83600600D02*
X156586300Y-77893600D01*
X150879300Y-86360000D02*
X150879300Y-83600600D01*
X169214000Y-80605100D02*
X167519100Y-82300000D01*
X169214000Y-78161800D02*
X169214000Y-80605100D01*
X173715800Y-73660000D02*
X169214000Y-78161800D01*
X173990000Y-73660000D02*
X173715800Y-73660000D01*
X164855000Y-75175000D02*
X166370000Y-73660000D01*
X164855000Y-77663000D02*
X164855000Y-75175000D01*
X173941000Y-78738900D02*
X173954800Y-78738900D01*
X173941000Y-78739000D02*
X173941000Y-78738900D01*
X171232600Y-81447400D02*
X173941000Y-78739000D01*
X171232600Y-82256500D02*
X171232600Y-81447400D01*
X163575800Y-89913300D02*
X171232600Y-82256500D01*
X163575800Y-91694200D02*
X163575800Y-89913300D01*
X161290000Y-93980000D02*
X163575800Y-91694200D01*
X161939600Y-76849600D02*
X158750000Y-73660000D01*
X161939600Y-81090300D02*
X161939600Y-76849600D01*
X162832400Y-81983100D02*
X161939600Y-81090300D01*
X162832400Y-82507900D02*
X162832400Y-81983100D01*
X161489300Y-81590200D02*
X162045300Y-82146200D01*
X161489300Y-78939300D02*
X161489300Y-81590200D01*
X156210000Y-73660000D02*
X161489300Y-78939300D01*
X162389900Y-74759900D02*
X161290000Y-73660000D01*
X162389900Y-80903700D02*
X162389900Y-74759900D01*
X163457800Y-81971600D02*
X162389900Y-80903700D01*
X163457800Y-83645400D02*
X163457800Y-81971600D01*
X163200700Y-83902500D02*
X163457800Y-83645400D01*
X173374800Y-74988800D02*
X170217000Y-78146600D01*
X187901200Y-74988800D02*
X173374800Y-74988800D01*
X189230000Y-73660000D02*
X187901200Y-74988800D01*
X170876200Y-78124300D02*
X170876200Y-78728200D01*
X173488500Y-75512000D02*
X170876200Y-78124300D01*
X189918000Y-75512000D02*
X173488500Y-75512000D01*
X191770000Y-73660000D02*
X189918000Y-75512000D01*
X173891700Y-76587600D02*
X174612400Y-76587600D01*
X172428800Y-78050500D02*
X173891700Y-76587600D01*
X172428800Y-78340500D02*
X172428800Y-78050500D01*
X168941700Y-81827600D02*
X172428800Y-78340500D01*
X168941700Y-83026000D02*
X168941700Y-81827600D01*
X182070100Y-77213000D02*
X182588400Y-76694700D01*
X173903200Y-77213000D02*
X182070100Y-77213000D01*
X172879100Y-78237100D02*
X173903200Y-77213000D01*
X172879100Y-78527100D02*
X172879100Y-78237100D01*
X169619300Y-81786900D02*
X172879100Y-78527100D01*
X169619300Y-82325900D02*
X169619300Y-81786900D01*
X173425600Y-83636800D02*
X171539400Y-85523000D01*
X178886800Y-83636800D02*
X173425600Y-83636800D01*
X189230000Y-93980000D02*
X178886800Y-83636800D01*
X171032700Y-86148300D02*
X170848200Y-85963800D01*
X171798500Y-86148300D02*
X171032700Y-86148300D01*
X173809400Y-84137400D02*
X171798500Y-86148300D01*
X177825200Y-84137400D02*
X173809400Y-84137400D01*
X186690000Y-93002200D02*
X177825200Y-84137400D01*
X186690000Y-93980000D02*
X186690000Y-93002200D01*
X169161300Y-86653700D02*
X169161300Y-86522100D01*
X169933800Y-87426200D02*
X169161300Y-86653700D01*
X171530100Y-87426200D02*
X169933800Y-87426200D01*
X174368500Y-84587800D02*
X171530100Y-87426200D01*
X177548700Y-84587800D02*
X174368500Y-84587800D01*
X184150000Y-91189100D02*
X177548700Y-84587800D01*
X184150000Y-93980000D02*
X184150000Y-91189100D01*
X177359200Y-89729200D02*
X171856400Y-89729200D01*
X181610000Y-93980000D02*
X177359200Y-89729200D01*
X172308300Y-82454700D02*
X172308300Y-82300000D01*
X165282600Y-89480400D02*
X172308300Y-82454700D01*
X165282600Y-92527400D02*
X165282600Y-89480400D01*
X163830000Y-93980000D02*
X165282600Y-92527400D01*
X171450000Y-93980000D02*
X171450000Y-92654700D01*
X171231100Y-92435800D02*
X171450000Y-92654700D01*
X171231100Y-89470200D02*
X171231100Y-92435800D01*
X171597400Y-89103900D02*
X171231100Y-89470200D01*
X176143100Y-89103900D02*
X171597400Y-89103900D01*
X177887400Y-87359600D02*
X176143100Y-89103900D01*
X177887400Y-85638400D02*
X177887400Y-87359600D01*
X177344700Y-85095700D02*
X177887400Y-85638400D01*
X174780400Y-85095700D02*
X177344700Y-85095700D01*
X173940500Y-85935600D02*
X174780400Y-85095700D01*
X168678100Y-80256600D02*
X168316500Y-80618200D01*
X168678100Y-77121800D02*
X168678100Y-80256600D01*
X169968700Y-75831200D02*
X168678100Y-77121800D01*
X175262500Y-81802000D02*
X174768100Y-81307600D01*
X178815900Y-81802000D02*
X175262500Y-81802000D01*
X185293800Y-88279900D02*
X178815900Y-81802000D01*
X186666800Y-88279900D02*
X185293800Y-88279900D01*
X183246100Y-84423900D02*
X183246100Y-85121100D01*
X181349200Y-82527000D02*
X183246100Y-84423900D01*
X181060100Y-82527000D02*
X181349200Y-82527000D01*
X178833100Y-80300000D02*
X181060100Y-82527000D01*
X178669500Y-80300000D02*
X178833100Y-80300000D01*
X183524200Y-75962300D02*
X186936900Y-79375000D01*
X173798900Y-75962300D02*
X183524200Y-75962300D01*
X171803500Y-77957700D02*
X173798900Y-75962300D01*
X171803500Y-78081400D02*
X171803500Y-77957700D01*
X156834900Y-78566100D02*
X156643200Y-78566100D01*
X156643200Y-78566100D02*
X154076400Y-81132900D01*
X154076400Y-81132900D02*
X154076400Y-90866200D01*
X165084100Y-78800000D02*
X165524900Y-78800000D01*
X163830000Y-77545900D02*
X165084100Y-78800000D01*
X163830000Y-73660000D02*
X163830000Y-77545900D01*
X199163100Y-85698100D02*
X199163100Y-85698000D01*
X193034300Y-85698100D02*
X199163100Y-85698100D01*
X189562800Y-89169600D02*
X193034300Y-85698100D01*
X153269700Y-75799700D02*
X151130000Y-73660000D01*
X157054200Y-75799700D02*
X153269700Y-75799700D01*
X160864000Y-79609500D02*
X157054200Y-75799700D01*
X160864000Y-80338000D02*
X160864000Y-79609500D01*
M02*
