G04 #@! TF.FileFunction,Legend,Top*
%FSLAX46Y46*%
G04 Gerber Fmt 4.6, Leading zero omitted, Abs format (unit mm)*
G04 Created by KiCad (PCBNEW 4.0.6) date 07/20/17 15:58:59*
%MOMM*%
%LPD*%
G01*
G04 APERTURE LIST*
%ADD10C,0.100000*%
%ADD11C,0.120000*%
%ADD12C,0.150000*%
G04 APERTURE END LIST*
D10*
D11*
X184816000Y-82712000D02*
X185516000Y-82712000D01*
X185516000Y-83912000D02*
X184816000Y-83912000D01*
X179990000Y-80172000D02*
X180690000Y-80172000D01*
X180690000Y-81372000D02*
X179990000Y-81372000D01*
X152050000Y-88808000D02*
X152750000Y-88808000D01*
X152750000Y-90008000D02*
X152050000Y-90008000D01*
X152050000Y-87284000D02*
X152750000Y-87284000D01*
X152750000Y-88484000D02*
X152050000Y-88484000D01*
X159924000Y-78140000D02*
X160624000Y-78140000D01*
X160624000Y-79340000D02*
X159924000Y-79340000D01*
X159924000Y-75854000D02*
X160624000Y-75854000D01*
X160624000Y-77054000D02*
X159924000Y-77054000D01*
X156368000Y-80426000D02*
X157068000Y-80426000D01*
X157068000Y-81626000D02*
X156368000Y-81626000D01*
X179990000Y-78140000D02*
X180690000Y-78140000D01*
X180690000Y-79340000D02*
X179990000Y-79340000D01*
X159924000Y-82458000D02*
X160624000Y-82458000D01*
X160624000Y-83658000D02*
X159924000Y-83658000D01*
X151100000Y-79948000D02*
X151100000Y-81088000D01*
X151100000Y-81088000D02*
X153200000Y-81088000D01*
X151100000Y-79948000D02*
X153200000Y-79948000D01*
X156345000Y-89490000D02*
X157345000Y-89490000D01*
X157345000Y-90850000D02*
X156345000Y-90850000D01*
X185920000Y-81960000D02*
X184920000Y-81960000D01*
X184920000Y-80600000D02*
X185920000Y-80600000D01*
X152900000Y-87040000D02*
X151900000Y-87040000D01*
X151900000Y-85680000D02*
X152900000Y-85680000D01*
X189746000Y-86696000D02*
X190746000Y-86696000D01*
X190746000Y-88056000D02*
X189746000Y-88056000D01*
X185666000Y-86278000D02*
X184666000Y-86278000D01*
X184666000Y-84918000D02*
X185666000Y-84918000D01*
X188460000Y-91358000D02*
X187460000Y-91358000D01*
X187460000Y-89998000D02*
X188460000Y-89998000D01*
X152900000Y-85262000D02*
X151900000Y-85262000D01*
X151900000Y-83902000D02*
X152900000Y-83902000D01*
X185920000Y-80055000D02*
X184920000Y-80055000D01*
X184920000Y-78695000D02*
X185920000Y-78695000D01*
X189730000Y-79674000D02*
X188730000Y-79674000D01*
X188730000Y-78314000D02*
X189730000Y-78314000D01*
X189730000Y-77642000D02*
X188730000Y-77642000D01*
X188730000Y-76282000D02*
X189730000Y-76282000D01*
X180840000Y-77388000D02*
X179840000Y-77388000D01*
X179840000Y-76028000D02*
X180840000Y-76028000D01*
X185920000Y-78150000D02*
X184920000Y-78150000D01*
X184920000Y-76790000D02*
X185920000Y-76790000D01*
D12*
X165005000Y-77375000D02*
X165005000Y-78375000D01*
X175355000Y-77375000D02*
X175355000Y-78450000D01*
X175355000Y-87725000D02*
X175355000Y-86650000D01*
X165005000Y-87725000D02*
X165005000Y-86650000D01*
X165005000Y-77375000D02*
X166080000Y-77375000D01*
X165005000Y-87725000D02*
X166080000Y-87725000D01*
X175355000Y-87725000D02*
X174280000Y-87725000D01*
X175355000Y-77375000D02*
X174280000Y-77375000D01*
X165005000Y-78375000D02*
X163980000Y-78375000D01*
D11*
X153160000Y-79050000D02*
X153160000Y-78120000D01*
X153160000Y-75890000D02*
X153160000Y-76820000D01*
X153160000Y-75890000D02*
X151000000Y-75890000D01*
X153160000Y-79050000D02*
X151700000Y-79050000D01*
X195410000Y-78485000D02*
X195710000Y-78485000D01*
X195710000Y-78485000D02*
X195710000Y-75185000D01*
X195710000Y-75185000D02*
X195410000Y-75185000D01*
X193210000Y-78485000D02*
X192910000Y-78485000D01*
X192910000Y-78485000D02*
X192910000Y-75185000D01*
X192910000Y-75185000D02*
X193210000Y-75185000D01*
X188270000Y-80585000D02*
X195270000Y-80585000D01*
X188270000Y-85785000D02*
X195270000Y-85785000D01*
X195270000Y-85785000D02*
X195270000Y-84785000D01*
X157218000Y-78912000D02*
X156218000Y-78912000D01*
X156218000Y-77552000D02*
X157218000Y-77552000D01*
X152750000Y-92040000D02*
X152050000Y-92040000D01*
X152050000Y-90840000D02*
X152750000Y-90840000D01*
X151796000Y-82204000D02*
X152496000Y-82204000D01*
X152496000Y-83404000D02*
X151796000Y-83404000D01*
X187460000Y-88474000D02*
X188460000Y-88474000D01*
X188460000Y-89834000D02*
X187460000Y-89834000D01*
X161704000Y-85068000D02*
X155954000Y-85068000D01*
X155954000Y-85068000D02*
X155954000Y-88668000D01*
X155954000Y-88668000D02*
X161704000Y-88668000D01*
X185858000Y-87592000D02*
X183458000Y-87592000D01*
X183458000Y-87592000D02*
X183458000Y-89192000D01*
X183458000Y-89192000D02*
X185858000Y-89192000D01*
X185158000Y-91612000D02*
X184158000Y-91612000D01*
X184158000Y-90252000D02*
X185158000Y-90252000D01*
X193743000Y-91870000D02*
X192993000Y-91870000D01*
X192993000Y-91870000D02*
X192993000Y-91270000D01*
X192993000Y-92170000D02*
X192993000Y-94320000D01*
X192993000Y-86020000D02*
X196543000Y-86020000D01*
X196543000Y-94320000D02*
X196543000Y-91420000D01*
X192993000Y-94320000D02*
X196543000Y-94320000D01*
X196543000Y-86020000D02*
X196543000Y-88920000D01*
X192993000Y-88170000D02*
X192993000Y-86020000D01*
D12*
X184999334Y-82169143D02*
X184951715Y-82216762D01*
X184808858Y-82264381D01*
X184713620Y-82264381D01*
X184570762Y-82216762D01*
X184475524Y-82121524D01*
X184427905Y-82026286D01*
X184380286Y-81835810D01*
X184380286Y-81692952D01*
X184427905Y-81502476D01*
X184475524Y-81407238D01*
X184570762Y-81312000D01*
X184713620Y-81264381D01*
X184808858Y-81264381D01*
X184951715Y-81312000D01*
X184999334Y-81359619D01*
X185951715Y-82264381D02*
X185380286Y-82264381D01*
X185666000Y-82264381D02*
X185666000Y-81264381D01*
X185570762Y-81407238D01*
X185475524Y-81502476D01*
X185380286Y-81550095D01*
X180173334Y-79629143D02*
X180125715Y-79676762D01*
X179982858Y-79724381D01*
X179887620Y-79724381D01*
X179744762Y-79676762D01*
X179649524Y-79581524D01*
X179601905Y-79486286D01*
X179554286Y-79295810D01*
X179554286Y-79152952D01*
X179601905Y-78962476D01*
X179649524Y-78867238D01*
X179744762Y-78772000D01*
X179887620Y-78724381D01*
X179982858Y-78724381D01*
X180125715Y-78772000D01*
X180173334Y-78819619D01*
X180554286Y-78819619D02*
X180601905Y-78772000D01*
X180697143Y-78724381D01*
X180935239Y-78724381D01*
X181030477Y-78772000D01*
X181078096Y-78819619D01*
X181125715Y-78914857D01*
X181125715Y-79010095D01*
X181078096Y-79152952D01*
X180506667Y-79724381D01*
X181125715Y-79724381D01*
X152233334Y-88265143D02*
X152185715Y-88312762D01*
X152042858Y-88360381D01*
X151947620Y-88360381D01*
X151804762Y-88312762D01*
X151709524Y-88217524D01*
X151661905Y-88122286D01*
X151614286Y-87931810D01*
X151614286Y-87788952D01*
X151661905Y-87598476D01*
X151709524Y-87503238D01*
X151804762Y-87408000D01*
X151947620Y-87360381D01*
X152042858Y-87360381D01*
X152185715Y-87408000D01*
X152233334Y-87455619D01*
X152566667Y-87360381D02*
X153185715Y-87360381D01*
X152852381Y-87741333D01*
X152995239Y-87741333D01*
X153090477Y-87788952D01*
X153138096Y-87836571D01*
X153185715Y-87931810D01*
X153185715Y-88169905D01*
X153138096Y-88265143D01*
X153090477Y-88312762D01*
X152995239Y-88360381D01*
X152709524Y-88360381D01*
X152614286Y-88312762D01*
X152566667Y-88265143D01*
X152233334Y-86741143D02*
X152185715Y-86788762D01*
X152042858Y-86836381D01*
X151947620Y-86836381D01*
X151804762Y-86788762D01*
X151709524Y-86693524D01*
X151661905Y-86598286D01*
X151614286Y-86407810D01*
X151614286Y-86264952D01*
X151661905Y-86074476D01*
X151709524Y-85979238D01*
X151804762Y-85884000D01*
X151947620Y-85836381D01*
X152042858Y-85836381D01*
X152185715Y-85884000D01*
X152233334Y-85931619D01*
X153090477Y-86169714D02*
X153090477Y-86836381D01*
X152852381Y-85788762D02*
X152614286Y-86503048D01*
X153233334Y-86503048D01*
X160107334Y-77597143D02*
X160059715Y-77644762D01*
X159916858Y-77692381D01*
X159821620Y-77692381D01*
X159678762Y-77644762D01*
X159583524Y-77549524D01*
X159535905Y-77454286D01*
X159488286Y-77263810D01*
X159488286Y-77120952D01*
X159535905Y-76930476D01*
X159583524Y-76835238D01*
X159678762Y-76740000D01*
X159821620Y-76692381D01*
X159916858Y-76692381D01*
X160059715Y-76740000D01*
X160107334Y-76787619D01*
X161012096Y-76692381D02*
X160535905Y-76692381D01*
X160488286Y-77168571D01*
X160535905Y-77120952D01*
X160631143Y-77073333D01*
X160869239Y-77073333D01*
X160964477Y-77120952D01*
X161012096Y-77168571D01*
X161059715Y-77263810D01*
X161059715Y-77501905D01*
X161012096Y-77597143D01*
X160964477Y-77644762D01*
X160869239Y-77692381D01*
X160631143Y-77692381D01*
X160535905Y-77644762D01*
X160488286Y-77597143D01*
X160107334Y-75311143D02*
X160059715Y-75358762D01*
X159916858Y-75406381D01*
X159821620Y-75406381D01*
X159678762Y-75358762D01*
X159583524Y-75263524D01*
X159535905Y-75168286D01*
X159488286Y-74977810D01*
X159488286Y-74834952D01*
X159535905Y-74644476D01*
X159583524Y-74549238D01*
X159678762Y-74454000D01*
X159821620Y-74406381D01*
X159916858Y-74406381D01*
X160059715Y-74454000D01*
X160107334Y-74501619D01*
X160964477Y-74406381D02*
X160774000Y-74406381D01*
X160678762Y-74454000D01*
X160631143Y-74501619D01*
X160535905Y-74644476D01*
X160488286Y-74834952D01*
X160488286Y-75215905D01*
X160535905Y-75311143D01*
X160583524Y-75358762D01*
X160678762Y-75406381D01*
X160869239Y-75406381D01*
X160964477Y-75358762D01*
X161012096Y-75311143D01*
X161059715Y-75215905D01*
X161059715Y-74977810D01*
X161012096Y-74882571D01*
X160964477Y-74834952D01*
X160869239Y-74787333D01*
X160678762Y-74787333D01*
X160583524Y-74834952D01*
X160535905Y-74882571D01*
X160488286Y-74977810D01*
X156551334Y-79883143D02*
X156503715Y-79930762D01*
X156360858Y-79978381D01*
X156265620Y-79978381D01*
X156122762Y-79930762D01*
X156027524Y-79835524D01*
X155979905Y-79740286D01*
X155932286Y-79549810D01*
X155932286Y-79406952D01*
X155979905Y-79216476D01*
X156027524Y-79121238D01*
X156122762Y-79026000D01*
X156265620Y-78978381D01*
X156360858Y-78978381D01*
X156503715Y-79026000D01*
X156551334Y-79073619D01*
X156884667Y-78978381D02*
X157551334Y-78978381D01*
X157122762Y-79978381D01*
X180173334Y-77597143D02*
X180125715Y-77644762D01*
X179982858Y-77692381D01*
X179887620Y-77692381D01*
X179744762Y-77644762D01*
X179649524Y-77549524D01*
X179601905Y-77454286D01*
X179554286Y-77263810D01*
X179554286Y-77120952D01*
X179601905Y-76930476D01*
X179649524Y-76835238D01*
X179744762Y-76740000D01*
X179887620Y-76692381D01*
X179982858Y-76692381D01*
X180125715Y-76740000D01*
X180173334Y-76787619D01*
X180744762Y-77120952D02*
X180649524Y-77073333D01*
X180601905Y-77025714D01*
X180554286Y-76930476D01*
X180554286Y-76882857D01*
X180601905Y-76787619D01*
X180649524Y-76740000D01*
X180744762Y-76692381D01*
X180935239Y-76692381D01*
X181030477Y-76740000D01*
X181078096Y-76787619D01*
X181125715Y-76882857D01*
X181125715Y-76930476D01*
X181078096Y-77025714D01*
X181030477Y-77073333D01*
X180935239Y-77120952D01*
X180744762Y-77120952D01*
X180649524Y-77168571D01*
X180601905Y-77216190D01*
X180554286Y-77311429D01*
X180554286Y-77501905D01*
X180601905Y-77597143D01*
X180649524Y-77644762D01*
X180744762Y-77692381D01*
X180935239Y-77692381D01*
X181030477Y-77644762D01*
X181078096Y-77597143D01*
X181125715Y-77501905D01*
X181125715Y-77311429D01*
X181078096Y-77216190D01*
X181030477Y-77168571D01*
X180935239Y-77120952D01*
X160107334Y-81915143D02*
X160059715Y-81962762D01*
X159916858Y-82010381D01*
X159821620Y-82010381D01*
X159678762Y-81962762D01*
X159583524Y-81867524D01*
X159535905Y-81772286D01*
X159488286Y-81581810D01*
X159488286Y-81438952D01*
X159535905Y-81248476D01*
X159583524Y-81153238D01*
X159678762Y-81058000D01*
X159821620Y-81010381D01*
X159916858Y-81010381D01*
X160059715Y-81058000D01*
X160107334Y-81105619D01*
X160583524Y-82010381D02*
X160774000Y-82010381D01*
X160869239Y-81962762D01*
X160916858Y-81915143D01*
X161012096Y-81772286D01*
X161059715Y-81581810D01*
X161059715Y-81200857D01*
X161012096Y-81105619D01*
X160964477Y-81058000D01*
X160869239Y-81010381D01*
X160678762Y-81010381D01*
X160583524Y-81058000D01*
X160535905Y-81105619D01*
X160488286Y-81200857D01*
X160488286Y-81438952D01*
X160535905Y-81534190D01*
X160583524Y-81581810D01*
X160678762Y-81629429D01*
X160869239Y-81629429D01*
X160964477Y-81581810D01*
X161012096Y-81534190D01*
X161059715Y-81438952D01*
X151661905Y-79570381D02*
X151661905Y-78570381D01*
X151900000Y-78570381D01*
X152042858Y-78618000D01*
X152138096Y-78713238D01*
X152185715Y-78808476D01*
X152233334Y-78998952D01*
X152233334Y-79141810D01*
X152185715Y-79332286D01*
X152138096Y-79427524D01*
X152042858Y-79522762D01*
X151900000Y-79570381D01*
X151661905Y-79570381D01*
X153185715Y-79570381D02*
X152614286Y-79570381D01*
X152900000Y-79570381D02*
X152900000Y-78570381D01*
X152804762Y-78713238D01*
X152709524Y-78808476D01*
X152614286Y-78856095D01*
X158416667Y-95972381D02*
X158416667Y-96686667D01*
X158369047Y-96829524D01*
X158273809Y-96924762D01*
X158130952Y-96972381D01*
X158035714Y-96972381D01*
X159416667Y-96972381D02*
X158845238Y-96972381D01*
X159130952Y-96972381D02*
X159130952Y-95972381D01*
X159035714Y-96115238D01*
X158940476Y-96210476D01*
X158845238Y-96258095D01*
X191436667Y-90892381D02*
X191436667Y-91606667D01*
X191389047Y-91749524D01*
X191293809Y-91844762D01*
X191150952Y-91892381D01*
X191055714Y-91892381D01*
X192341429Y-91225714D02*
X192341429Y-91892381D01*
X192103333Y-90844762D02*
X191865238Y-91559048D01*
X192484286Y-91559048D01*
X163496667Y-70572381D02*
X163496667Y-71286667D01*
X163449047Y-71429524D01*
X163353809Y-71524762D01*
X163210952Y-71572381D01*
X163115714Y-71572381D01*
X164449048Y-70572381D02*
X163972857Y-70572381D01*
X163925238Y-71048571D01*
X163972857Y-71000952D01*
X164068095Y-70953333D01*
X164306191Y-70953333D01*
X164401429Y-71000952D01*
X164449048Y-71048571D01*
X164496667Y-71143810D01*
X164496667Y-71381905D01*
X164449048Y-71477143D01*
X164401429Y-71524762D01*
X164306191Y-71572381D01*
X164068095Y-71572381D01*
X163972857Y-71524762D01*
X163925238Y-71477143D01*
X155876667Y-90892381D02*
X155876667Y-91606667D01*
X155829047Y-91749524D01*
X155733809Y-91844762D01*
X155590952Y-91892381D01*
X155495714Y-91892381D01*
X156781429Y-90892381D02*
X156590952Y-90892381D01*
X156495714Y-90940000D01*
X156448095Y-90987619D01*
X156352857Y-91130476D01*
X156305238Y-91320952D01*
X156305238Y-91701905D01*
X156352857Y-91797143D01*
X156400476Y-91844762D01*
X156495714Y-91892381D01*
X156686191Y-91892381D01*
X156781429Y-91844762D01*
X156829048Y-91797143D01*
X156876667Y-91701905D01*
X156876667Y-91463810D01*
X156829048Y-91368571D01*
X156781429Y-91320952D01*
X156686191Y-91273333D01*
X156495714Y-91273333D01*
X156400476Y-91320952D01*
X156352857Y-91368571D01*
X156305238Y-91463810D01*
X152860477Y-90892381D02*
X152860477Y-91606667D01*
X152812857Y-91749524D01*
X152717619Y-91844762D01*
X152574762Y-91892381D01*
X152479524Y-91892381D01*
X153860477Y-91892381D02*
X153289048Y-91892381D01*
X153574762Y-91892381D02*
X153574762Y-90892381D01*
X153479524Y-91035238D01*
X153384286Y-91130476D01*
X153289048Y-91178095D01*
X154717620Y-91225714D02*
X154717620Y-91892381D01*
X154479524Y-90844762D02*
X154241429Y-91559048D01*
X154860477Y-91559048D01*
X188420477Y-70572381D02*
X188420477Y-71286667D01*
X188372857Y-71429524D01*
X188277619Y-71524762D01*
X188134762Y-71572381D01*
X188039524Y-71572381D01*
X188849048Y-70667619D02*
X188896667Y-70620000D01*
X188991905Y-70572381D01*
X189230001Y-70572381D01*
X189325239Y-70620000D01*
X189372858Y-70667619D01*
X189420477Y-70762857D01*
X189420477Y-70858095D01*
X189372858Y-71000952D01*
X188801429Y-71572381D01*
X189420477Y-71572381D01*
X190325239Y-70572381D02*
X189849048Y-70572381D01*
X189801429Y-71048571D01*
X189849048Y-71000952D01*
X189944286Y-70953333D01*
X190182382Y-70953333D01*
X190277620Y-71000952D01*
X190325239Y-71048571D01*
X190372858Y-71143810D01*
X190372858Y-71381905D01*
X190325239Y-71477143D01*
X190277620Y-71524762D01*
X190182382Y-71572381D01*
X189944286Y-71572381D01*
X189849048Y-71524762D01*
X189801429Y-71477143D01*
X190960477Y-70572381D02*
X190960477Y-71286667D01*
X190912857Y-71429524D01*
X190817619Y-71524762D01*
X190674762Y-71572381D01*
X190579524Y-71572381D01*
X191389048Y-70667619D02*
X191436667Y-70620000D01*
X191531905Y-70572381D01*
X191770001Y-70572381D01*
X191865239Y-70620000D01*
X191912858Y-70667619D01*
X191960477Y-70762857D01*
X191960477Y-70858095D01*
X191912858Y-71000952D01*
X191341429Y-71572381D01*
X191960477Y-71572381D01*
X192817620Y-70572381D02*
X192627143Y-70572381D01*
X192531905Y-70620000D01*
X192484286Y-70667619D01*
X192389048Y-70810476D01*
X192341429Y-71000952D01*
X192341429Y-71381905D01*
X192389048Y-71477143D01*
X192436667Y-71524762D01*
X192531905Y-71572381D01*
X192722382Y-71572381D01*
X192817620Y-71524762D01*
X192865239Y-71477143D01*
X192912858Y-71381905D01*
X192912858Y-71143810D01*
X192865239Y-71048571D01*
X192817620Y-71000952D01*
X192722382Y-70953333D01*
X192531905Y-70953333D01*
X192436667Y-71000952D01*
X192389048Y-71048571D01*
X192341429Y-71143810D01*
X183340477Y-70572381D02*
X183340477Y-71286667D01*
X183292857Y-71429524D01*
X183197619Y-71524762D01*
X183054762Y-71572381D01*
X182959524Y-71572381D01*
X183769048Y-70667619D02*
X183816667Y-70620000D01*
X183911905Y-70572381D01*
X184150001Y-70572381D01*
X184245239Y-70620000D01*
X184292858Y-70667619D01*
X184340477Y-70762857D01*
X184340477Y-70858095D01*
X184292858Y-71000952D01*
X183721429Y-71572381D01*
X184340477Y-71572381D01*
X184673810Y-70572381D02*
X185340477Y-70572381D01*
X184911905Y-71572381D01*
X185880477Y-70572381D02*
X185880477Y-71286667D01*
X185832857Y-71429524D01*
X185737619Y-71524762D01*
X185594762Y-71572381D01*
X185499524Y-71572381D01*
X186309048Y-70667619D02*
X186356667Y-70620000D01*
X186451905Y-70572381D01*
X186690001Y-70572381D01*
X186785239Y-70620000D01*
X186832858Y-70667619D01*
X186880477Y-70762857D01*
X186880477Y-70858095D01*
X186832858Y-71000952D01*
X186261429Y-71572381D01*
X186880477Y-71572381D01*
X187451905Y-71000952D02*
X187356667Y-70953333D01*
X187309048Y-70905714D01*
X187261429Y-70810476D01*
X187261429Y-70762857D01*
X187309048Y-70667619D01*
X187356667Y-70620000D01*
X187451905Y-70572381D01*
X187642382Y-70572381D01*
X187737620Y-70620000D01*
X187785239Y-70667619D01*
X187832858Y-70762857D01*
X187832858Y-70810476D01*
X187785239Y-70905714D01*
X187737620Y-70953333D01*
X187642382Y-71000952D01*
X187451905Y-71000952D01*
X187356667Y-71048571D01*
X187309048Y-71096190D01*
X187261429Y-71191429D01*
X187261429Y-71381905D01*
X187309048Y-71477143D01*
X187356667Y-71524762D01*
X187451905Y-71572381D01*
X187642382Y-71572381D01*
X187737620Y-71524762D01*
X187785239Y-71477143D01*
X187832858Y-71381905D01*
X187832858Y-71191429D01*
X187785239Y-71096190D01*
X187737620Y-71048571D01*
X187642382Y-71000952D01*
X188420477Y-90892381D02*
X188420477Y-91606667D01*
X188372857Y-91749524D01*
X188277619Y-91844762D01*
X188134762Y-91892381D01*
X188039524Y-91892381D01*
X188801429Y-90892381D02*
X189420477Y-90892381D01*
X189087143Y-91273333D01*
X189230001Y-91273333D01*
X189325239Y-91320952D01*
X189372858Y-91368571D01*
X189420477Y-91463810D01*
X189420477Y-91701905D01*
X189372858Y-91797143D01*
X189325239Y-91844762D01*
X189230001Y-91892381D01*
X188944286Y-91892381D01*
X188849048Y-91844762D01*
X188801429Y-91797143D01*
X189753810Y-90892381D02*
X190372858Y-90892381D01*
X190039524Y-91273333D01*
X190182382Y-91273333D01*
X190277620Y-91320952D01*
X190325239Y-91368571D01*
X190372858Y-91463810D01*
X190372858Y-91701905D01*
X190325239Y-91797143D01*
X190277620Y-91844762D01*
X190182382Y-91892381D01*
X189896667Y-91892381D01*
X189801429Y-91844762D01*
X189753810Y-91797143D01*
X185880477Y-90892381D02*
X185880477Y-91606667D01*
X185832857Y-91749524D01*
X185737619Y-91844762D01*
X185594762Y-91892381D01*
X185499524Y-91892381D01*
X186261429Y-90892381D02*
X186880477Y-90892381D01*
X186547143Y-91273333D01*
X186690001Y-91273333D01*
X186785239Y-91320952D01*
X186832858Y-91368571D01*
X186880477Y-91463810D01*
X186880477Y-91701905D01*
X186832858Y-91797143D01*
X186785239Y-91844762D01*
X186690001Y-91892381D01*
X186404286Y-91892381D01*
X186309048Y-91844762D01*
X186261429Y-91797143D01*
X187737620Y-91225714D02*
X187737620Y-91892381D01*
X187499524Y-90844762D02*
X187261429Y-91559048D01*
X187880477Y-91559048D01*
X183340477Y-90892381D02*
X183340477Y-91606667D01*
X183292857Y-91749524D01*
X183197619Y-91844762D01*
X183054762Y-91892381D01*
X182959524Y-91892381D01*
X183721429Y-90892381D02*
X184340477Y-90892381D01*
X184007143Y-91273333D01*
X184150001Y-91273333D01*
X184245239Y-91320952D01*
X184292858Y-91368571D01*
X184340477Y-91463810D01*
X184340477Y-91701905D01*
X184292858Y-91797143D01*
X184245239Y-91844762D01*
X184150001Y-91892381D01*
X183864286Y-91892381D01*
X183769048Y-91844762D01*
X183721429Y-91797143D01*
X185245239Y-90892381D02*
X184769048Y-90892381D01*
X184721429Y-91368571D01*
X184769048Y-91320952D01*
X184864286Y-91273333D01*
X185102382Y-91273333D01*
X185197620Y-91320952D01*
X185245239Y-91368571D01*
X185292858Y-91463810D01*
X185292858Y-91701905D01*
X185245239Y-91797143D01*
X185197620Y-91844762D01*
X185102382Y-91892381D01*
X184864286Y-91892381D01*
X184769048Y-91844762D01*
X184721429Y-91797143D01*
X180800477Y-90892381D02*
X180800477Y-91606667D01*
X180752857Y-91749524D01*
X180657619Y-91844762D01*
X180514762Y-91892381D01*
X180419524Y-91892381D01*
X181181429Y-90892381D02*
X181800477Y-90892381D01*
X181467143Y-91273333D01*
X181610001Y-91273333D01*
X181705239Y-91320952D01*
X181752858Y-91368571D01*
X181800477Y-91463810D01*
X181800477Y-91701905D01*
X181752858Y-91797143D01*
X181705239Y-91844762D01*
X181610001Y-91892381D01*
X181324286Y-91892381D01*
X181229048Y-91844762D01*
X181181429Y-91797143D01*
X182657620Y-90892381D02*
X182467143Y-90892381D01*
X182371905Y-90940000D01*
X182324286Y-90987619D01*
X182229048Y-91130476D01*
X182181429Y-91320952D01*
X182181429Y-91701905D01*
X182229048Y-91797143D01*
X182276667Y-91844762D01*
X182371905Y-91892381D01*
X182562382Y-91892381D01*
X182657620Y-91844762D01*
X182705239Y-91797143D01*
X182752858Y-91701905D01*
X182752858Y-91463810D01*
X182705239Y-91368571D01*
X182657620Y-91320952D01*
X182562382Y-91273333D01*
X182371905Y-91273333D01*
X182276667Y-91320952D01*
X182229048Y-91368571D01*
X182181429Y-91463810D01*
X175720477Y-95972381D02*
X175720477Y-96686667D01*
X175672857Y-96829524D01*
X175577619Y-96924762D01*
X175434762Y-96972381D01*
X175339524Y-96972381D01*
X176625239Y-96305714D02*
X176625239Y-96972381D01*
X176387143Y-95924762D02*
X176149048Y-96639048D01*
X176768096Y-96639048D01*
X177101429Y-96067619D02*
X177149048Y-96020000D01*
X177244286Y-95972381D01*
X177482382Y-95972381D01*
X177577620Y-96020000D01*
X177625239Y-96067619D01*
X177672858Y-96162857D01*
X177672858Y-96258095D01*
X177625239Y-96400952D01*
X177053810Y-96972381D01*
X177672858Y-96972381D01*
X173180477Y-95972381D02*
X173180477Y-96686667D01*
X173132857Y-96829524D01*
X173037619Y-96924762D01*
X172894762Y-96972381D01*
X172799524Y-96972381D01*
X174085239Y-96305714D02*
X174085239Y-96972381D01*
X173847143Y-95924762D02*
X173609048Y-96639048D01*
X174228096Y-96639048D01*
X174513810Y-95972381D02*
X175132858Y-95972381D01*
X174799524Y-96353333D01*
X174942382Y-96353333D01*
X175037620Y-96400952D01*
X175085239Y-96448571D01*
X175132858Y-96543810D01*
X175132858Y-96781905D01*
X175085239Y-96877143D01*
X175037620Y-96924762D01*
X174942382Y-96972381D01*
X174656667Y-96972381D01*
X174561429Y-96924762D01*
X174513810Y-96877143D01*
X170640477Y-95972381D02*
X170640477Y-96686667D01*
X170592857Y-96829524D01*
X170497619Y-96924762D01*
X170354762Y-96972381D01*
X170259524Y-96972381D01*
X171545239Y-96305714D02*
X171545239Y-96972381D01*
X171307143Y-95924762D02*
X171069048Y-96639048D01*
X171688096Y-96639048D01*
X172497620Y-96305714D02*
X172497620Y-96972381D01*
X172259524Y-95924762D02*
X172021429Y-96639048D01*
X172640477Y-96639048D01*
X156678334Y-92522381D02*
X156202143Y-92522381D01*
X156202143Y-91522381D01*
X157535477Y-92522381D02*
X156964048Y-92522381D01*
X157249762Y-92522381D02*
X157249762Y-91522381D01*
X157154524Y-91665238D01*
X157059286Y-91760476D01*
X156964048Y-91808095D01*
X185253334Y-80282381D02*
X184920000Y-79806190D01*
X184681905Y-80282381D02*
X184681905Y-79282381D01*
X185062858Y-79282381D01*
X185158096Y-79330000D01*
X185205715Y-79377619D01*
X185253334Y-79472857D01*
X185253334Y-79615714D01*
X185205715Y-79710952D01*
X185158096Y-79758571D01*
X185062858Y-79806190D01*
X184681905Y-79806190D01*
X186205715Y-80282381D02*
X185634286Y-80282381D01*
X185920000Y-80282381D02*
X185920000Y-79282381D01*
X185824762Y-79425238D01*
X185729524Y-79520476D01*
X185634286Y-79568095D01*
X152233334Y-85362381D02*
X151900000Y-84886190D01*
X151661905Y-85362381D02*
X151661905Y-84362381D01*
X152042858Y-84362381D01*
X152138096Y-84410000D01*
X152185715Y-84457619D01*
X152233334Y-84552857D01*
X152233334Y-84695714D01*
X152185715Y-84790952D01*
X152138096Y-84838571D01*
X152042858Y-84886190D01*
X151661905Y-84886190D01*
X152614286Y-84457619D02*
X152661905Y-84410000D01*
X152757143Y-84362381D01*
X152995239Y-84362381D01*
X153090477Y-84410000D01*
X153138096Y-84457619D01*
X153185715Y-84552857D01*
X153185715Y-84648095D01*
X153138096Y-84790952D01*
X152566667Y-85362381D01*
X153185715Y-85362381D01*
X190079334Y-89278381D02*
X189746000Y-88802190D01*
X189507905Y-89278381D02*
X189507905Y-88278381D01*
X189888858Y-88278381D01*
X189984096Y-88326000D01*
X190031715Y-88373619D01*
X190079334Y-88468857D01*
X190079334Y-88611714D01*
X190031715Y-88706952D01*
X189984096Y-88754571D01*
X189888858Y-88802190D01*
X189507905Y-88802190D01*
X190412667Y-88278381D02*
X191031715Y-88278381D01*
X190698381Y-88659333D01*
X190841239Y-88659333D01*
X190936477Y-88706952D01*
X190984096Y-88754571D01*
X191031715Y-88849810D01*
X191031715Y-89087905D01*
X190984096Y-89183143D01*
X190936477Y-89230762D01*
X190841239Y-89278381D01*
X190555524Y-89278381D01*
X190460286Y-89230762D01*
X190412667Y-89183143D01*
X184999334Y-84600381D02*
X184666000Y-84124190D01*
X184427905Y-84600381D02*
X184427905Y-83600381D01*
X184808858Y-83600381D01*
X184904096Y-83648000D01*
X184951715Y-83695619D01*
X184999334Y-83790857D01*
X184999334Y-83933714D01*
X184951715Y-84028952D01*
X184904096Y-84076571D01*
X184808858Y-84124190D01*
X184427905Y-84124190D01*
X185904096Y-83600381D02*
X185427905Y-83600381D01*
X185380286Y-84076571D01*
X185427905Y-84028952D01*
X185523143Y-83981333D01*
X185761239Y-83981333D01*
X185856477Y-84028952D01*
X185904096Y-84076571D01*
X185951715Y-84171810D01*
X185951715Y-84409905D01*
X185904096Y-84505143D01*
X185856477Y-84552762D01*
X185761239Y-84600381D01*
X185523143Y-84600381D01*
X185427905Y-84552762D01*
X185380286Y-84505143D01*
X187793334Y-89680381D02*
X187460000Y-89204190D01*
X187221905Y-89680381D02*
X187221905Y-88680381D01*
X187602858Y-88680381D01*
X187698096Y-88728000D01*
X187745715Y-88775619D01*
X187793334Y-88870857D01*
X187793334Y-89013714D01*
X187745715Y-89108952D01*
X187698096Y-89156571D01*
X187602858Y-89204190D01*
X187221905Y-89204190D01*
X188650477Y-88680381D02*
X188460000Y-88680381D01*
X188364762Y-88728000D01*
X188317143Y-88775619D01*
X188221905Y-88918476D01*
X188174286Y-89108952D01*
X188174286Y-89489905D01*
X188221905Y-89585143D01*
X188269524Y-89632762D01*
X188364762Y-89680381D01*
X188555239Y-89680381D01*
X188650477Y-89632762D01*
X188698096Y-89585143D01*
X188745715Y-89489905D01*
X188745715Y-89251810D01*
X188698096Y-89156571D01*
X188650477Y-89108952D01*
X188555239Y-89061333D01*
X188364762Y-89061333D01*
X188269524Y-89108952D01*
X188221905Y-89156571D01*
X188174286Y-89251810D01*
X152233334Y-83584381D02*
X151900000Y-83108190D01*
X151661905Y-83584381D02*
X151661905Y-82584381D01*
X152042858Y-82584381D01*
X152138096Y-82632000D01*
X152185715Y-82679619D01*
X152233334Y-82774857D01*
X152233334Y-82917714D01*
X152185715Y-83012952D01*
X152138096Y-83060571D01*
X152042858Y-83108190D01*
X151661905Y-83108190D01*
X152566667Y-82584381D02*
X153233334Y-82584381D01*
X152804762Y-83584381D01*
X185253334Y-78377381D02*
X184920000Y-77901190D01*
X184681905Y-78377381D02*
X184681905Y-77377381D01*
X185062858Y-77377381D01*
X185158096Y-77425000D01*
X185205715Y-77472619D01*
X185253334Y-77567857D01*
X185253334Y-77710714D01*
X185205715Y-77805952D01*
X185158096Y-77853571D01*
X185062858Y-77901190D01*
X184681905Y-77901190D01*
X185824762Y-77805952D02*
X185729524Y-77758333D01*
X185681905Y-77710714D01*
X185634286Y-77615476D01*
X185634286Y-77567857D01*
X185681905Y-77472619D01*
X185729524Y-77425000D01*
X185824762Y-77377381D01*
X186015239Y-77377381D01*
X186110477Y-77425000D01*
X186158096Y-77472619D01*
X186205715Y-77567857D01*
X186205715Y-77615476D01*
X186158096Y-77710714D01*
X186110477Y-77758333D01*
X186015239Y-77805952D01*
X185824762Y-77805952D01*
X185729524Y-77853571D01*
X185681905Y-77901190D01*
X185634286Y-77996429D01*
X185634286Y-78186905D01*
X185681905Y-78282143D01*
X185729524Y-78329762D01*
X185824762Y-78377381D01*
X186015239Y-78377381D01*
X186110477Y-78329762D01*
X186158096Y-78282143D01*
X186205715Y-78186905D01*
X186205715Y-77996429D01*
X186158096Y-77901190D01*
X186110477Y-77853571D01*
X186015239Y-77805952D01*
X189063334Y-77996381D02*
X188730000Y-77520190D01*
X188491905Y-77996381D02*
X188491905Y-76996381D01*
X188872858Y-76996381D01*
X188968096Y-77044000D01*
X189015715Y-77091619D01*
X189063334Y-77186857D01*
X189063334Y-77329714D01*
X189015715Y-77424952D01*
X188968096Y-77472571D01*
X188872858Y-77520190D01*
X188491905Y-77520190D01*
X189539524Y-77996381D02*
X189730000Y-77996381D01*
X189825239Y-77948762D01*
X189872858Y-77901143D01*
X189968096Y-77758286D01*
X190015715Y-77567810D01*
X190015715Y-77186857D01*
X189968096Y-77091619D01*
X189920477Y-77044000D01*
X189825239Y-76996381D01*
X189634762Y-76996381D01*
X189539524Y-77044000D01*
X189491905Y-77091619D01*
X189444286Y-77186857D01*
X189444286Y-77424952D01*
X189491905Y-77520190D01*
X189539524Y-77567810D01*
X189634762Y-77615429D01*
X189825239Y-77615429D01*
X189920477Y-77567810D01*
X189968096Y-77520190D01*
X190015715Y-77424952D01*
X188587143Y-75964381D02*
X188253809Y-75488190D01*
X188015714Y-75964381D02*
X188015714Y-74964381D01*
X188396667Y-74964381D01*
X188491905Y-75012000D01*
X188539524Y-75059619D01*
X188587143Y-75154857D01*
X188587143Y-75297714D01*
X188539524Y-75392952D01*
X188491905Y-75440571D01*
X188396667Y-75488190D01*
X188015714Y-75488190D01*
X189539524Y-75964381D02*
X188968095Y-75964381D01*
X189253809Y-75964381D02*
X189253809Y-74964381D01*
X189158571Y-75107238D01*
X189063333Y-75202476D01*
X188968095Y-75250095D01*
X190158571Y-74964381D02*
X190253810Y-74964381D01*
X190349048Y-75012000D01*
X190396667Y-75059619D01*
X190444286Y-75154857D01*
X190491905Y-75345333D01*
X190491905Y-75583429D01*
X190444286Y-75773905D01*
X190396667Y-75869143D01*
X190349048Y-75916762D01*
X190253810Y-75964381D01*
X190158571Y-75964381D01*
X190063333Y-75916762D01*
X190015714Y-75869143D01*
X189968095Y-75773905D01*
X189920476Y-75583429D01*
X189920476Y-75345333D01*
X189968095Y-75154857D01*
X190015714Y-75059619D01*
X190063333Y-75012000D01*
X190158571Y-74964381D01*
X179697143Y-75710381D02*
X179363809Y-75234190D01*
X179125714Y-75710381D02*
X179125714Y-74710381D01*
X179506667Y-74710381D01*
X179601905Y-74758000D01*
X179649524Y-74805619D01*
X179697143Y-74900857D01*
X179697143Y-75043714D01*
X179649524Y-75138952D01*
X179601905Y-75186571D01*
X179506667Y-75234190D01*
X179125714Y-75234190D01*
X180649524Y-75710381D02*
X180078095Y-75710381D01*
X180363809Y-75710381D02*
X180363809Y-74710381D01*
X180268571Y-74853238D01*
X180173333Y-74948476D01*
X180078095Y-74996095D01*
X181601905Y-75710381D02*
X181030476Y-75710381D01*
X181316190Y-75710381D02*
X181316190Y-74710381D01*
X181220952Y-74853238D01*
X181125714Y-74948476D01*
X181030476Y-74996095D01*
X184777143Y-76472381D02*
X184443809Y-75996190D01*
X184205714Y-76472381D02*
X184205714Y-75472381D01*
X184586667Y-75472381D01*
X184681905Y-75520000D01*
X184729524Y-75567619D01*
X184777143Y-75662857D01*
X184777143Y-75805714D01*
X184729524Y-75900952D01*
X184681905Y-75948571D01*
X184586667Y-75996190D01*
X184205714Y-75996190D01*
X185729524Y-76472381D02*
X185158095Y-76472381D01*
X185443809Y-76472381D02*
X185443809Y-75472381D01*
X185348571Y-75615238D01*
X185253333Y-75710476D01*
X185158095Y-75758095D01*
X186110476Y-75567619D02*
X186158095Y-75520000D01*
X186253333Y-75472381D01*
X186491429Y-75472381D01*
X186586667Y-75520000D01*
X186634286Y-75567619D01*
X186681905Y-75662857D01*
X186681905Y-75758095D01*
X186634286Y-75900952D01*
X186062857Y-76472381D01*
X186681905Y-76472381D01*
X169418095Y-74802381D02*
X169418095Y-75611905D01*
X169465714Y-75707143D01*
X169513333Y-75754762D01*
X169608571Y-75802381D01*
X169799048Y-75802381D01*
X169894286Y-75754762D01*
X169941905Y-75707143D01*
X169989524Y-75611905D01*
X169989524Y-74802381D01*
X170989524Y-75802381D02*
X170418095Y-75802381D01*
X170703809Y-75802381D02*
X170703809Y-74802381D01*
X170608571Y-74945238D01*
X170513333Y-75040476D01*
X170418095Y-75088095D01*
X151638095Y-74422381D02*
X151638095Y-75231905D01*
X151685714Y-75327143D01*
X151733333Y-75374762D01*
X151828571Y-75422381D01*
X152019048Y-75422381D01*
X152114286Y-75374762D01*
X152161905Y-75327143D01*
X152209524Y-75231905D01*
X152209524Y-74422381D01*
X152638095Y-74517619D02*
X152685714Y-74470000D01*
X152780952Y-74422381D01*
X153019048Y-74422381D01*
X153114286Y-74470000D01*
X153161905Y-74517619D01*
X153209524Y-74612857D01*
X153209524Y-74708095D01*
X153161905Y-74850952D01*
X152590476Y-75422381D01*
X153209524Y-75422381D01*
X161750477Y-94067381D02*
X161750477Y-94781667D01*
X161702857Y-94924524D01*
X161607619Y-95019762D01*
X161464762Y-95067381D01*
X161369524Y-95067381D01*
X162655239Y-94400714D02*
X162655239Y-95067381D01*
X162417143Y-94019762D02*
X162179048Y-94734048D01*
X162798096Y-94734048D01*
X163702858Y-95067381D02*
X163131429Y-95067381D01*
X163417143Y-95067381D02*
X163417143Y-94067381D01*
X163321905Y-94210238D01*
X163226667Y-94305476D01*
X163131429Y-94353095D01*
X160956667Y-95972381D02*
X160956667Y-96686667D01*
X160909047Y-96829524D01*
X160813809Y-96924762D01*
X160670952Y-96972381D01*
X160575714Y-96972381D01*
X161337619Y-95972381D02*
X162004286Y-95972381D01*
X161575714Y-96972381D01*
X164290477Y-94067381D02*
X164290477Y-94781667D01*
X164242857Y-94924524D01*
X164147619Y-95019762D01*
X164004762Y-95067381D01*
X163909524Y-95067381D01*
X165290477Y-95067381D02*
X164719048Y-95067381D01*
X165004762Y-95067381D02*
X165004762Y-94067381D01*
X164909524Y-94210238D01*
X164814286Y-94305476D01*
X164719048Y-94353095D01*
X165766667Y-95067381D02*
X165957143Y-95067381D01*
X166052382Y-95019762D01*
X166100001Y-94972143D01*
X166195239Y-94829286D01*
X166242858Y-94638810D01*
X166242858Y-94257857D01*
X166195239Y-94162619D01*
X166147620Y-94115000D01*
X166052382Y-94067381D01*
X165861905Y-94067381D01*
X165766667Y-94115000D01*
X165719048Y-94162619D01*
X165671429Y-94257857D01*
X165671429Y-94495952D01*
X165719048Y-94591190D01*
X165766667Y-94638810D01*
X165861905Y-94686429D01*
X166052382Y-94686429D01*
X166147620Y-94638810D01*
X166195239Y-94591190D01*
X166242858Y-94495952D01*
X165560477Y-95972381D02*
X165560477Y-96686667D01*
X165512857Y-96829524D01*
X165417619Y-96924762D01*
X165274762Y-96972381D01*
X165179524Y-96972381D01*
X166560477Y-96972381D02*
X165989048Y-96972381D01*
X166274762Y-96972381D02*
X166274762Y-95972381D01*
X166179524Y-96115238D01*
X166084286Y-96210476D01*
X165989048Y-96258095D01*
X167131905Y-96400952D02*
X167036667Y-96353333D01*
X166989048Y-96305714D01*
X166941429Y-96210476D01*
X166941429Y-96162857D01*
X166989048Y-96067619D01*
X167036667Y-96020000D01*
X167131905Y-95972381D01*
X167322382Y-95972381D01*
X167417620Y-96020000D01*
X167465239Y-96067619D01*
X167512858Y-96162857D01*
X167512858Y-96210476D01*
X167465239Y-96305714D01*
X167417620Y-96353333D01*
X167322382Y-96400952D01*
X167131905Y-96400952D01*
X167036667Y-96448571D01*
X166989048Y-96496190D01*
X166941429Y-96591429D01*
X166941429Y-96781905D01*
X166989048Y-96877143D01*
X167036667Y-96924762D01*
X167131905Y-96972381D01*
X167322382Y-96972381D01*
X167417620Y-96924762D01*
X167465239Y-96877143D01*
X167512858Y-96781905D01*
X167512858Y-96591429D01*
X167465239Y-96496190D01*
X167417620Y-96448571D01*
X167322382Y-96400952D01*
X167306667Y-94067381D02*
X167306667Y-94781667D01*
X167259047Y-94924524D01*
X167163809Y-95019762D01*
X167020952Y-95067381D01*
X166925714Y-95067381D01*
X167830476Y-95067381D02*
X168020952Y-95067381D01*
X168116191Y-95019762D01*
X168163810Y-94972143D01*
X168259048Y-94829286D01*
X168306667Y-94638810D01*
X168306667Y-94257857D01*
X168259048Y-94162619D01*
X168211429Y-94115000D01*
X168116191Y-94067381D01*
X167925714Y-94067381D01*
X167830476Y-94115000D01*
X167782857Y-94162619D01*
X167735238Y-94257857D01*
X167735238Y-94495952D01*
X167782857Y-94591190D01*
X167830476Y-94638810D01*
X167925714Y-94686429D01*
X168116191Y-94686429D01*
X168211429Y-94638810D01*
X168259048Y-94591190D01*
X168306667Y-94495952D01*
X168100477Y-95972381D02*
X168100477Y-96686667D01*
X168052857Y-96829524D01*
X167957619Y-96924762D01*
X167814762Y-96972381D01*
X167719524Y-96972381D01*
X169100477Y-96972381D02*
X168529048Y-96972381D01*
X168814762Y-96972381D02*
X168814762Y-95972381D01*
X168719524Y-96115238D01*
X168624286Y-96210476D01*
X168529048Y-96258095D01*
X169719524Y-95972381D02*
X169814763Y-95972381D01*
X169910001Y-96020000D01*
X169957620Y-96067619D01*
X170005239Y-96162857D01*
X170052858Y-96353333D01*
X170052858Y-96591429D01*
X170005239Y-96781905D01*
X169957620Y-96877143D01*
X169910001Y-96924762D01*
X169814763Y-96972381D01*
X169719524Y-96972381D01*
X169624286Y-96924762D01*
X169576667Y-96877143D01*
X169529048Y-96781905D01*
X169481429Y-96591429D01*
X169481429Y-96353333D01*
X169529048Y-96162857D01*
X169576667Y-96067619D01*
X169624286Y-96020000D01*
X169719524Y-95972381D01*
X163496667Y-95972381D02*
X163496667Y-96686667D01*
X163449047Y-96829524D01*
X163353809Y-96924762D01*
X163210952Y-96972381D01*
X163115714Y-96972381D01*
X164115714Y-96400952D02*
X164020476Y-96353333D01*
X163972857Y-96305714D01*
X163925238Y-96210476D01*
X163925238Y-96162857D01*
X163972857Y-96067619D01*
X164020476Y-96020000D01*
X164115714Y-95972381D01*
X164306191Y-95972381D01*
X164401429Y-96020000D01*
X164449048Y-96067619D01*
X164496667Y-96162857D01*
X164496667Y-96210476D01*
X164449048Y-96305714D01*
X164401429Y-96353333D01*
X164306191Y-96400952D01*
X164115714Y-96400952D01*
X164020476Y-96448571D01*
X163972857Y-96496190D01*
X163925238Y-96591429D01*
X163925238Y-96781905D01*
X163972857Y-96877143D01*
X164020476Y-96924762D01*
X164115714Y-96972381D01*
X164306191Y-96972381D01*
X164401429Y-96924762D01*
X164449048Y-96877143D01*
X164496667Y-96781905D01*
X164496667Y-96591429D01*
X164449048Y-96496190D01*
X164401429Y-96448571D01*
X164306191Y-96400952D01*
X173180477Y-75652381D02*
X173180477Y-76366667D01*
X173132857Y-76509524D01*
X173037619Y-76604762D01*
X172894762Y-76652381D01*
X172799524Y-76652381D01*
X174180477Y-76652381D02*
X173609048Y-76652381D01*
X173894762Y-76652381D02*
X173894762Y-75652381D01*
X173799524Y-75795238D01*
X173704286Y-75890476D01*
X173609048Y-75938095D01*
X175037620Y-75652381D02*
X174847143Y-75652381D01*
X174751905Y-75700000D01*
X174704286Y-75747619D01*
X174609048Y-75890476D01*
X174561429Y-76080952D01*
X174561429Y-76461905D01*
X174609048Y-76557143D01*
X174656667Y-76604762D01*
X174751905Y-76652381D01*
X174942382Y-76652381D01*
X175037620Y-76604762D01*
X175085239Y-76557143D01*
X175132858Y-76461905D01*
X175132858Y-76223810D01*
X175085239Y-76128571D01*
X175037620Y-76080952D01*
X174942382Y-76033333D01*
X174751905Y-76033333D01*
X174656667Y-76080952D01*
X174609048Y-76128571D01*
X174561429Y-76223810D01*
X168100477Y-75652381D02*
X168100477Y-76366667D01*
X168052857Y-76509524D01*
X167957619Y-76604762D01*
X167814762Y-76652381D01*
X167719524Y-76652381D01*
X169100477Y-76652381D02*
X168529048Y-76652381D01*
X168814762Y-76652381D02*
X168814762Y-75652381D01*
X168719524Y-75795238D01*
X168624286Y-75890476D01*
X168529048Y-75938095D01*
X169481429Y-75747619D02*
X169529048Y-75700000D01*
X169624286Y-75652381D01*
X169862382Y-75652381D01*
X169957620Y-75700000D01*
X170005239Y-75747619D01*
X170052858Y-75842857D01*
X170052858Y-75938095D01*
X170005239Y-76080952D01*
X169433810Y-76652381D01*
X170052858Y-76652381D01*
X178260477Y-95972381D02*
X178260477Y-96686667D01*
X178212857Y-96829524D01*
X178117619Y-96924762D01*
X177974762Y-96972381D01*
X177879524Y-96972381D01*
X179260477Y-96972381D02*
X178689048Y-96972381D01*
X178974762Y-96972381D02*
X178974762Y-95972381D01*
X178879524Y-96115238D01*
X178784286Y-96210476D01*
X178689048Y-96258095D01*
X179593810Y-95972381D02*
X180212858Y-95972381D01*
X179879524Y-96353333D01*
X180022382Y-96353333D01*
X180117620Y-96400952D01*
X180165239Y-96448571D01*
X180212858Y-96543810D01*
X180212858Y-96781905D01*
X180165239Y-96877143D01*
X180117620Y-96924762D01*
X180022382Y-96972381D01*
X179736667Y-96972381D01*
X179641429Y-96924762D01*
X179593810Y-96877143D01*
X160480477Y-75652381D02*
X160480477Y-76366667D01*
X160432857Y-76509524D01*
X160337619Y-76604762D01*
X160194762Y-76652381D01*
X160099524Y-76652381D01*
X160909048Y-75747619D02*
X160956667Y-75700000D01*
X161051905Y-75652381D01*
X161290001Y-75652381D01*
X161385239Y-75700000D01*
X161432858Y-75747619D01*
X161480477Y-75842857D01*
X161480477Y-75938095D01*
X161432858Y-76080952D01*
X160861429Y-76652381D01*
X161480477Y-76652381D01*
X161861429Y-75747619D02*
X161909048Y-75700000D01*
X162004286Y-75652381D01*
X162242382Y-75652381D01*
X162337620Y-75700000D01*
X162385239Y-75747619D01*
X162432858Y-75842857D01*
X162432858Y-75938095D01*
X162385239Y-76080952D01*
X161813810Y-76652381D01*
X162432858Y-76652381D01*
X165560477Y-75652381D02*
X165560477Y-76366667D01*
X165512857Y-76509524D01*
X165417619Y-76604762D01*
X165274762Y-76652381D01*
X165179524Y-76652381D01*
X166560477Y-76652381D02*
X165989048Y-76652381D01*
X166274762Y-76652381D02*
X166274762Y-75652381D01*
X166179524Y-75795238D01*
X166084286Y-75890476D01*
X165989048Y-75938095D01*
X166893810Y-75652381D02*
X167560477Y-75652381D01*
X167131905Y-76652381D01*
X170640477Y-75652381D02*
X170640477Y-76366667D01*
X170592857Y-76509524D01*
X170497619Y-76604762D01*
X170354762Y-76652381D01*
X170259524Y-76652381D01*
X171640477Y-76652381D02*
X171069048Y-76652381D01*
X171354762Y-76652381D02*
X171354762Y-75652381D01*
X171259524Y-75795238D01*
X171164286Y-75890476D01*
X171069048Y-75938095D01*
X172592858Y-76652381D02*
X172021429Y-76652381D01*
X172307143Y-76652381D02*
X172307143Y-75652381D01*
X172211905Y-75795238D01*
X172116667Y-75890476D01*
X172021429Y-75938095D01*
X155400477Y-75652381D02*
X155400477Y-76366667D01*
X155352857Y-76509524D01*
X155257619Y-76604762D01*
X155114762Y-76652381D01*
X155019524Y-76652381D01*
X155829048Y-75747619D02*
X155876667Y-75700000D01*
X155971905Y-75652381D01*
X156210001Y-75652381D01*
X156305239Y-75700000D01*
X156352858Y-75747619D01*
X156400477Y-75842857D01*
X156400477Y-75938095D01*
X156352858Y-76080952D01*
X155781429Y-76652381D01*
X156400477Y-76652381D01*
X157352858Y-76652381D02*
X156781429Y-76652381D01*
X157067143Y-76652381D02*
X157067143Y-75652381D01*
X156971905Y-75795238D01*
X156876667Y-75890476D01*
X156781429Y-75938095D01*
X157940477Y-75652381D02*
X157940477Y-76366667D01*
X157892857Y-76509524D01*
X157797619Y-76604762D01*
X157654762Y-76652381D01*
X157559524Y-76652381D01*
X158369048Y-75747619D02*
X158416667Y-75700000D01*
X158511905Y-75652381D01*
X158750001Y-75652381D01*
X158845239Y-75700000D01*
X158892858Y-75747619D01*
X158940477Y-75842857D01*
X158940477Y-75938095D01*
X158892858Y-76080952D01*
X158321429Y-76652381D01*
X158940477Y-76652381D01*
X159559524Y-75652381D02*
X159654763Y-75652381D01*
X159750001Y-75700000D01*
X159797620Y-75747619D01*
X159845239Y-75842857D01*
X159892858Y-76033333D01*
X159892858Y-76271429D01*
X159845239Y-76461905D01*
X159797620Y-76557143D01*
X159750001Y-76604762D01*
X159654763Y-76652381D01*
X159559524Y-76652381D01*
X159464286Y-76604762D01*
X159416667Y-76557143D01*
X159369048Y-76461905D01*
X159321429Y-76271429D01*
X159321429Y-76033333D01*
X159369048Y-75842857D01*
X159416667Y-75747619D01*
X159464286Y-75700000D01*
X159559524Y-75652381D01*
X192214762Y-78168333D02*
X192262381Y-78025476D01*
X192262381Y-77787380D01*
X192214762Y-77692142D01*
X192167143Y-77644523D01*
X192071905Y-77596904D01*
X191976667Y-77596904D01*
X191881429Y-77644523D01*
X191833810Y-77692142D01*
X191786190Y-77787380D01*
X191738571Y-77977857D01*
X191690952Y-78073095D01*
X191643333Y-78120714D01*
X191548095Y-78168333D01*
X191452857Y-78168333D01*
X191357619Y-78120714D01*
X191310000Y-78073095D01*
X191262381Y-77977857D01*
X191262381Y-77739761D01*
X191310000Y-77596904D01*
X191262381Y-77263571D02*
X192262381Y-77025476D01*
X191548095Y-76834999D01*
X192262381Y-76644523D01*
X191262381Y-76406428D01*
X192262381Y-75501666D02*
X192262381Y-76073095D01*
X192262381Y-75787381D02*
X191262381Y-75787381D01*
X191405238Y-75882619D01*
X191500476Y-75977857D01*
X191548095Y-76073095D01*
X190650953Y-80137381D02*
X190174762Y-80137381D01*
X190174762Y-79137381D01*
X190984286Y-79613571D02*
X191317620Y-79613571D01*
X191460477Y-80137381D02*
X190984286Y-80137381D01*
X190984286Y-79137381D01*
X191460477Y-79137381D01*
X191889048Y-80137381D02*
X191889048Y-79137381D01*
X192127143Y-79137381D01*
X192270001Y-79185000D01*
X192365239Y-79280238D01*
X192412858Y-79375476D01*
X192460477Y-79565952D01*
X192460477Y-79708810D01*
X192412858Y-79899286D01*
X192365239Y-79994524D01*
X192270001Y-80089762D01*
X192127143Y-80137381D01*
X191889048Y-80137381D01*
X193412858Y-80137381D02*
X192841429Y-80137381D01*
X193127143Y-80137381D02*
X193127143Y-79137381D01*
X193031905Y-79280238D01*
X192936667Y-79375476D01*
X192841429Y-79423095D01*
X156075143Y-77234381D02*
X155741809Y-76758190D01*
X155503714Y-77234381D02*
X155503714Y-76234381D01*
X155884667Y-76234381D01*
X155979905Y-76282000D01*
X156027524Y-76329619D01*
X156075143Y-76424857D01*
X156075143Y-76567714D01*
X156027524Y-76662952D01*
X155979905Y-76710571D01*
X155884667Y-76758190D01*
X155503714Y-76758190D01*
X157027524Y-77234381D02*
X156456095Y-77234381D01*
X156741809Y-77234381D02*
X156741809Y-76234381D01*
X156646571Y-76377238D01*
X156551333Y-76472476D01*
X156456095Y-76520095D01*
X157360857Y-76234381D02*
X157979905Y-76234381D01*
X157646571Y-76615333D01*
X157789429Y-76615333D01*
X157884667Y-76662952D01*
X157932286Y-76710571D01*
X157979905Y-76805810D01*
X157979905Y-77043905D01*
X157932286Y-77139143D01*
X157884667Y-77186762D01*
X157789429Y-77234381D01*
X157503714Y-77234381D01*
X157408476Y-77186762D01*
X157360857Y-77139143D01*
X151757143Y-93297143D02*
X151709524Y-93344762D01*
X151566667Y-93392381D01*
X151471429Y-93392381D01*
X151328571Y-93344762D01*
X151233333Y-93249524D01*
X151185714Y-93154286D01*
X151138095Y-92963810D01*
X151138095Y-92820952D01*
X151185714Y-92630476D01*
X151233333Y-92535238D01*
X151328571Y-92440000D01*
X151471429Y-92392381D01*
X151566667Y-92392381D01*
X151709524Y-92440000D01*
X151757143Y-92487619D01*
X152709524Y-93392381D02*
X152138095Y-93392381D01*
X152423809Y-93392381D02*
X152423809Y-92392381D01*
X152328571Y-92535238D01*
X152233333Y-92630476D01*
X152138095Y-92678095D01*
X153328571Y-92392381D02*
X153423810Y-92392381D01*
X153519048Y-92440000D01*
X153566667Y-92487619D01*
X153614286Y-92582857D01*
X153661905Y-92773333D01*
X153661905Y-93011429D01*
X153614286Y-93201905D01*
X153566667Y-93297143D01*
X153519048Y-93344762D01*
X153423810Y-93392381D01*
X153328571Y-93392381D01*
X153233333Y-93344762D01*
X153185714Y-93297143D01*
X153138095Y-93201905D01*
X153090476Y-93011429D01*
X153090476Y-92773333D01*
X153138095Y-92582857D01*
X153185714Y-92487619D01*
X153233333Y-92440000D01*
X153328571Y-92392381D01*
X151503143Y-81661143D02*
X151455524Y-81708762D01*
X151312667Y-81756381D01*
X151217429Y-81756381D01*
X151074571Y-81708762D01*
X150979333Y-81613524D01*
X150931714Y-81518286D01*
X150884095Y-81327810D01*
X150884095Y-81184952D01*
X150931714Y-80994476D01*
X150979333Y-80899238D01*
X151074571Y-80804000D01*
X151217429Y-80756381D01*
X151312667Y-80756381D01*
X151455524Y-80804000D01*
X151503143Y-80851619D01*
X152455524Y-81756381D02*
X151884095Y-81756381D01*
X152169809Y-81756381D02*
X152169809Y-80756381D01*
X152074571Y-80899238D01*
X151979333Y-80994476D01*
X151884095Y-81042095D01*
X153407905Y-81756381D02*
X152836476Y-81756381D01*
X153122190Y-81756381D02*
X153122190Y-80756381D01*
X153026952Y-80899238D01*
X152931714Y-80994476D01*
X152836476Y-81042095D01*
X194008477Y-76668381D02*
X194008477Y-77382667D01*
X193960857Y-77525524D01*
X193865619Y-77620762D01*
X193722762Y-77668381D01*
X193627524Y-77668381D01*
X194913239Y-77001714D02*
X194913239Y-77668381D01*
X194675143Y-76620762D02*
X194437048Y-77335048D01*
X195056096Y-77335048D01*
X195865620Y-76668381D02*
X195675143Y-76668381D01*
X195579905Y-76716000D01*
X195532286Y-76763619D01*
X195437048Y-76906476D01*
X195389429Y-77096952D01*
X195389429Y-77477905D01*
X195437048Y-77573143D01*
X195484667Y-77620762D01*
X195579905Y-77668381D01*
X195770382Y-77668381D01*
X195865620Y-77620762D01*
X195913239Y-77573143D01*
X195960858Y-77477905D01*
X195960858Y-77239810D01*
X195913239Y-77144571D01*
X195865620Y-77096952D01*
X195770382Y-77049333D01*
X195579905Y-77049333D01*
X195484667Y-77096952D01*
X195437048Y-77144571D01*
X195389429Y-77239810D01*
X187317143Y-91056381D02*
X186983809Y-90580190D01*
X186745714Y-91056381D02*
X186745714Y-90056381D01*
X187126667Y-90056381D01*
X187221905Y-90104000D01*
X187269524Y-90151619D01*
X187317143Y-90246857D01*
X187317143Y-90389714D01*
X187269524Y-90484952D01*
X187221905Y-90532571D01*
X187126667Y-90580190D01*
X186745714Y-90580190D01*
X188269524Y-91056381D02*
X187698095Y-91056381D01*
X187983809Y-91056381D02*
X187983809Y-90056381D01*
X187888571Y-90199238D01*
X187793333Y-90294476D01*
X187698095Y-90342095D01*
X189126667Y-90389714D02*
X189126667Y-91056381D01*
X188888571Y-90008762D02*
X188650476Y-90723048D01*
X189269524Y-90723048D01*
X158527809Y-84044190D02*
X158527809Y-84520381D01*
X158194476Y-83520381D02*
X158527809Y-84044190D01*
X158861143Y-83520381D01*
X159718286Y-84520381D02*
X159146857Y-84520381D01*
X159432571Y-84520381D02*
X159432571Y-83520381D01*
X159337333Y-83663238D01*
X159242095Y-83758476D01*
X159146857Y-83806095D01*
X184181809Y-86568190D02*
X184181809Y-87044381D01*
X183848476Y-86044381D02*
X184181809Y-86568190D01*
X184515143Y-86044381D01*
X184800857Y-86139619D02*
X184848476Y-86092000D01*
X184943714Y-86044381D01*
X185181810Y-86044381D01*
X185277048Y-86092000D01*
X185324667Y-86139619D01*
X185372286Y-86234857D01*
X185372286Y-86330095D01*
X185324667Y-86472952D01*
X184753238Y-87044381D01*
X185372286Y-87044381D01*
X152860477Y-70572381D02*
X152860477Y-71286667D01*
X152812857Y-71429524D01*
X152717619Y-71524762D01*
X152574762Y-71572381D01*
X152479524Y-71572381D01*
X153765239Y-70905714D02*
X153765239Y-71572381D01*
X153527143Y-70524762D02*
X153289048Y-71239048D01*
X153908096Y-71239048D01*
X154193810Y-70572381D02*
X154860477Y-70572381D01*
X154431905Y-71572381D01*
X184491334Y-89934381D02*
X184158000Y-89458190D01*
X183919905Y-89934381D02*
X183919905Y-88934381D01*
X184300858Y-88934381D01*
X184396096Y-88982000D01*
X184443715Y-89029619D01*
X184491334Y-89124857D01*
X184491334Y-89267714D01*
X184443715Y-89362952D01*
X184396096Y-89410571D01*
X184300858Y-89458190D01*
X183919905Y-89458190D01*
X185348477Y-89267714D02*
X185348477Y-89934381D01*
X185110381Y-88886762D02*
X184872286Y-89601048D01*
X185491334Y-89601048D01*
X191420381Y-90503333D02*
X192134667Y-90503333D01*
X192277524Y-90550953D01*
X192372762Y-90646191D01*
X192420381Y-90789048D01*
X192420381Y-90884286D01*
X191515619Y-90074762D02*
X191468000Y-90027143D01*
X191420381Y-89931905D01*
X191420381Y-89693809D01*
X191468000Y-89598571D01*
X191515619Y-89550952D01*
X191610857Y-89503333D01*
X191706095Y-89503333D01*
X191848952Y-89550952D01*
X192420381Y-90122381D01*
X192420381Y-89503333D01*
M02*
