M48
INCH,TZ
T1C0.010
T2C0.016
T3C0.020
T4C0.030
T5C0.031
T6C0.032
%
G90
G05
T1
X76500Y-35000
X76500Y-35500
X76500Y-36000
X76900Y-35250
X76900Y-35750
T2
X59993Y-30126
X60599Y-33462
X60683Y-34671
X60707Y-33866
X60753Y-35965
X61248Y-29464
X61758Y-35775
X61819Y-30131
X61856Y-33494
X61858Y-32252
X62294Y-31339
X62428Y-31654
X62448Y-35526
X62722Y-33959
X62903Y-32051
X63283Y-30461
X63528Y-32327
X63654Y-29775
X63890Y-30256
X63898Y-32339
X63960Y-33386
X64228Y-35195
X64229Y-32205
X64356Y-31098
X65150Y-32726
X65153Y-31220
X65405Y-33181
X65474Y-32689
X65484Y-32001
X65650Y-31508
X66000Y-36875
X66124Y-32434
X66151Y-30659
X66463Y-32374
X66513Y-35384
X66662Y-30724
X66724Y-33562
X67035Y-36352
X67072Y-33465
X67359Y-30787
X67420Y-33247
X67472Y-35148
X67714Y-35393
X67739Y-30658
X67769Y-34168
X68054Y-30657
X68128Y-34169
X68138Y-36352
X68263Y-35217
X68354Y-32795
X68455Y-33553
X68492Y-34192
X68554Y-32206
X68665Y-33804
X68734Y-30049
X68748Y-36046
X68835Y-31755
X68973Y-29820
X69061Y-35384
X69299Y-35176
X69641Y-31024
X69993Y-34413
X70064Y-30757
X70250Y-34604
X70355Y-30287
X70372Y-29972
X70396Y-36239
X70963Y-32202
X71441Y-31445
X71701Y-32586
X71793Y-31106
X72017Y-30096
X72167Y-30392
X72214Y-29604
X72300Y-33374
X72641Y-30124
X72907Y-34368
X73047Y-29840
X73599Y-30824
X73607Y-31311
X73705Y-34724
X73711Y-32305
X73849Y-30500
X74638Y-35100
X75312Y-36239
X75598Y-33358
X76500Y-29959
T3
X76700Y-31400
T4
X61500Y-29000
X62500Y-29000
X63500Y-29000
X63500Y-37000
X64000Y-36250
X64500Y-37000
X65000Y-36250
X65500Y-29000
X65500Y-37000
X66000Y-36250
X66500Y-29000
X66500Y-37000
X67500Y-29000
X68500Y-29000
X69500Y-37000
X70500Y-37000
T5
X60500Y-29000
X60500Y-37000
X62500Y-37000
X64500Y-29000
X67500Y-37000
X68500Y-37000
X72500Y-29000
X73500Y-29000
X74500Y-29000
X75500Y-29000
X75500Y-37000
T6
X61500Y-37000
X71500Y-37000
X72500Y-37000
X73500Y-37000
X74500Y-37000
T3
X76700Y-34538G85X76700Y-34262
G05
X76700Y-36738G85X76700Y-36462
G05
T0
M30
