G04 #@! TF.FileFunction,Copper,L1,Top,Signal*
%FSLAX46Y46*%
G04 Gerber Fmt 4.6, Leading zero omitted, Abs format (unit mm)*
G04 Created by KiCad (PCBNEW 4.0.6) date 07/20/17 15:58:59*
%MOMM*%
%LPD*%
G01*
G04 APERTURE LIST*
%ADD10C,0.100000*%
%ADD11R,0.800000X0.750000*%
%ADD12R,0.600000X0.800000*%
%ADD13R,2.000000X2.000000*%
%ADD14R,1.998980X1.998980*%
%ADD15R,2.000000X1.998980*%
%ADD16C,1.998980*%
%ADD17C,1.524000*%
%ADD18R,0.500000X0.900000*%
%ADD19R,1.000000X0.250000*%
%ADD20R,0.250000X1.000000*%
%ADD21R,0.900000X0.800000*%
%ADD22R,1.700000X0.900000*%
%ADD23R,2.500000X1.700000*%
%ADD24R,1.000000X0.900000*%
%ADD25C,0.800000*%
%ADD26R,2.000000X2.400000*%
%ADD27R,0.600000X1.100000*%
%ADD28R,1.500000X0.450000*%
%ADD29O,1.100000X1.800000*%
%ADD30C,0.500000*%
%ADD31C,0.600000*%
%ADD32C,0.250000*%
G04 APERTURE END LIST*
D10*
D11*
X184416000Y-83312000D03*
X185916000Y-83312000D03*
X179590000Y-80772000D03*
X181090000Y-80772000D03*
X151650000Y-89408000D03*
X153150000Y-89408000D03*
X151650000Y-87884000D03*
X153150000Y-87884000D03*
X159524000Y-78740000D03*
X161024000Y-78740000D03*
X159524000Y-76454000D03*
X161024000Y-76454000D03*
X155968000Y-81026000D03*
X157468000Y-81026000D03*
X179590000Y-78740000D03*
X181090000Y-78740000D03*
X159524000Y-83058000D03*
X161024000Y-83058000D03*
D12*
X151550000Y-80518000D03*
X153250000Y-80518000D03*
D13*
X158750000Y-93980000D03*
X191770000Y-93980000D03*
X163830000Y-73660000D03*
D14*
X156210000Y-93980000D03*
D15*
X153670000Y-93980000D03*
D13*
X189230000Y-73660000D03*
X191770000Y-73660000D03*
X184150000Y-73660000D03*
X186690000Y-73660000D03*
D16*
X189230000Y-93980000D03*
X186690000Y-93980000D03*
X184150000Y-93980000D03*
X181610000Y-93980000D03*
D17*
X176530000Y-93980000D03*
D13*
X173990000Y-93980000D03*
X171450000Y-93980000D03*
D18*
X157595000Y-90170000D03*
X156095000Y-90170000D03*
X184670000Y-81280000D03*
X186170000Y-81280000D03*
X151650000Y-86360000D03*
X153150000Y-86360000D03*
X190996000Y-87376000D03*
X189496000Y-87376000D03*
X184416000Y-85598000D03*
X185916000Y-85598000D03*
X187210000Y-90678000D03*
X188710000Y-90678000D03*
X151650000Y-84582000D03*
X153150000Y-84582000D03*
X184670000Y-79375000D03*
X186170000Y-79375000D03*
X188480000Y-78994000D03*
X189980000Y-78994000D03*
X188480000Y-76962000D03*
X189980000Y-76962000D03*
X179590000Y-76708000D03*
X181090000Y-76708000D03*
X184670000Y-77470000D03*
X186170000Y-77470000D03*
D19*
X164480000Y-78800000D03*
X164480000Y-79300000D03*
X164480000Y-79800000D03*
X164480000Y-80300000D03*
X164480000Y-80800000D03*
X164480000Y-81300000D03*
X164480000Y-81800000D03*
X164480000Y-82300000D03*
X164480000Y-82800000D03*
X164480000Y-83300000D03*
X164480000Y-83800000D03*
X164480000Y-84300000D03*
X164480000Y-84800000D03*
X164480000Y-85300000D03*
X164480000Y-85800000D03*
X164480000Y-86300000D03*
D20*
X166430000Y-88250000D03*
X166930000Y-88250000D03*
X167430000Y-88250000D03*
X167930000Y-88250000D03*
X168430000Y-88250000D03*
X168930000Y-88250000D03*
X169430000Y-88250000D03*
X169930000Y-88250000D03*
X170430000Y-88250000D03*
X170930000Y-88250000D03*
X171430000Y-88250000D03*
X171930000Y-88250000D03*
X172430000Y-88250000D03*
X172930000Y-88250000D03*
X173430000Y-88250000D03*
X173930000Y-88250000D03*
D19*
X175880000Y-86300000D03*
X175880000Y-85800000D03*
X175880000Y-85300000D03*
X175880000Y-84800000D03*
X175880000Y-84300000D03*
X175880000Y-83800000D03*
X175880000Y-83300000D03*
X175880000Y-82800000D03*
X175880000Y-82300000D03*
X175880000Y-81800000D03*
X175880000Y-81300000D03*
X175880000Y-80800000D03*
X175880000Y-80300000D03*
X175880000Y-79800000D03*
X175880000Y-79300000D03*
X175880000Y-78800000D03*
D20*
X173930000Y-76850000D03*
X173430000Y-76850000D03*
X172930000Y-76850000D03*
X172430000Y-76850000D03*
X171930000Y-76850000D03*
X171430000Y-76850000D03*
X170930000Y-76850000D03*
X170430000Y-76850000D03*
X169930000Y-76850000D03*
X169430000Y-76850000D03*
X168930000Y-76850000D03*
X168430000Y-76850000D03*
X167930000Y-76850000D03*
X167430000Y-76850000D03*
X166930000Y-76850000D03*
X166430000Y-76850000D03*
D21*
X151400000Y-76520000D03*
X151400000Y-78420000D03*
X153400000Y-77470000D03*
D17*
X162560000Y-92075000D03*
X161290000Y-93980000D03*
X165100000Y-92075000D03*
X166370000Y-93980000D03*
X167640000Y-92075000D03*
X168910000Y-93980000D03*
X163830000Y-93980000D03*
X173990000Y-73660000D03*
X168910000Y-73660000D03*
X179070000Y-93980000D03*
X161290000Y-73660000D03*
X166370000Y-73660000D03*
X171450000Y-73660000D03*
X156210000Y-73660000D03*
X158750000Y-73660000D03*
D22*
X194310000Y-78535000D03*
X194310000Y-75135000D03*
D23*
X193802000Y-84455000D03*
X193802000Y-81915000D03*
X189738000Y-84455000D03*
X189770000Y-81985000D03*
D10*
G36*
X155760000Y-78682000D02*
X155760000Y-77782000D01*
X156660000Y-77782000D01*
X156660000Y-78682000D01*
X155760000Y-78682000D01*
X155760000Y-78682000D01*
G37*
D24*
X157226000Y-78232000D03*
D11*
X153150000Y-91440000D03*
X151650000Y-91440000D03*
X151396000Y-82804000D03*
X152896000Y-82804000D03*
D25*
X194818000Y-79756000D03*
D18*
X188710000Y-89154000D03*
X187210000Y-89154000D03*
D26*
X157154000Y-86868000D03*
X160854000Y-86868000D03*
D27*
X183958000Y-88392000D03*
X185358000Y-88392000D03*
D13*
X153670000Y-73660000D03*
D18*
X183908000Y-90932000D03*
X185408000Y-90932000D03*
D28*
X194818000Y-90170000D03*
X194818000Y-89535000D03*
X194818000Y-90805000D03*
X194818000Y-88900000D03*
X194818000Y-91440000D03*
D29*
X194818000Y-92964000D03*
X194818000Y-87376000D03*
D30*
X195326000Y-90805000D03*
X195326000Y-89535000D03*
X194310000Y-88900000D03*
X194310000Y-90170000D03*
X194310000Y-91440000D03*
D31*
X182119700Y-82769600D03*
X174842000Y-80656700D03*
X194310000Y-76095900D03*
X154135900Y-88064500D03*
X154194700Y-86020300D03*
X152382700Y-76520000D03*
X181459800Y-79870800D03*
X178700800Y-76929700D03*
X180246300Y-81792600D03*
X174126400Y-81804100D03*
X185183200Y-87294800D03*
X183642300Y-84768900D03*
X157114300Y-85075200D03*
X158567100Y-80400800D03*
X159313200Y-86255900D03*
X159774100Y-81409500D03*
X173389100Y-89450600D03*
X173071400Y-92333700D03*
X170268400Y-92333700D03*
X170362700Y-85000300D03*
X166129300Y-84280000D03*
X163139500Y-89394700D03*
X156866100Y-90868400D03*
X158225500Y-79601700D03*
X161681000Y-75627300D03*
X166751400Y-80031400D03*
X157120000Y-81919100D03*
X177962800Y-78122200D03*
X169478200Y-85247800D03*
X162458900Y-84800000D03*
X158618300Y-90236300D03*
X166329800Y-81282100D03*
X157021000Y-76533700D03*
X161361900Y-82110500D03*
X160737800Y-77371800D03*
X162280400Y-76850000D03*
X163141500Y-81800000D03*
X176887300Y-78800000D03*
X171378400Y-89275600D03*
X186940200Y-78294200D03*
X191292200Y-92048200D03*
X178807000Y-92048200D03*
X175413800Y-89875000D03*
X175191200Y-75742900D03*
X167640000Y-93662600D03*
X168943100Y-89874800D03*
X171994000Y-89899200D03*
X173619300Y-83300000D03*
X178434500Y-87893800D03*
X174620000Y-91556600D03*
X172857500Y-77869300D03*
X153920700Y-84993400D03*
X168023700Y-77874700D03*
X167954500Y-82383000D03*
X165489700Y-79300000D03*
X172057100Y-77871300D03*
X174585400Y-76325000D03*
X162300000Y-82140600D03*
X165480300Y-83125000D03*
X166303200Y-83029300D03*
X183422400Y-75193500D03*
X169322100Y-78039500D03*
X182924400Y-76444200D03*
X185538900Y-75793800D03*
X173045400Y-86790400D03*
X173969300Y-86846600D03*
X187575800Y-77470300D03*
X173875900Y-85224600D03*
X174409400Y-85862300D03*
X172132900Y-86786900D03*
X176020500Y-89346300D03*
X168816200Y-82230100D03*
X177781200Y-87409000D03*
X171247900Y-84447600D03*
X178744600Y-76129300D03*
X182353600Y-79008500D03*
X187225600Y-82055400D03*
X187210000Y-88199900D03*
X171092700Y-78198800D03*
X183304600Y-77196000D03*
X184507600Y-76514100D03*
X186961900Y-79530600D03*
X163464800Y-78989900D03*
X155570100Y-74837900D03*
X154313000Y-91350400D03*
X192017800Y-84729200D03*
X189579400Y-89154000D03*
D32*
X183958000Y-88392000D02*
X184583300Y-88392000D01*
X184583300Y-87579200D02*
X184583300Y-88392000D01*
X184557900Y-87553800D02*
X184583300Y-87579200D01*
X184557900Y-87035800D02*
X184557900Y-87553800D01*
X185007400Y-86586300D02*
X184557900Y-87035800D01*
X185007400Y-84603700D02*
X185007400Y-86586300D01*
X184416000Y-84012300D02*
X185007400Y-84603700D01*
X184416000Y-83347100D02*
X184416000Y-84012300D01*
X184416000Y-83347100D02*
X184416000Y-83312000D01*
X184416000Y-83312000D02*
X183690700Y-83312000D01*
X182662100Y-83312000D02*
X182119700Y-82769600D01*
X183690700Y-83312000D02*
X182662100Y-83312000D01*
X166492400Y-80656700D02*
X174842000Y-80656700D01*
X166126100Y-80290400D02*
X166492400Y-80656700D01*
X166126100Y-78986000D02*
X166126100Y-80290400D01*
X165478600Y-78338500D02*
X166126100Y-78986000D01*
X163200900Y-78338500D02*
X165478600Y-78338500D01*
X162835700Y-78703700D02*
X163200900Y-78338500D01*
X162835700Y-79294100D02*
X162835700Y-78703700D01*
X163341600Y-79800000D02*
X162835700Y-79294100D01*
X164480000Y-79800000D02*
X163341600Y-79800000D01*
X192786000Y-92964000D02*
X191770000Y-93980000D01*
X194818000Y-92964000D02*
X192786000Y-92964000D01*
X194818000Y-87376000D02*
X194818000Y-86150700D01*
X152225300Y-84175000D02*
X152896000Y-83504300D01*
X152225300Y-84582000D02*
X152225300Y-84175000D01*
X151650000Y-84582000D02*
X152225300Y-84582000D01*
X194310000Y-88900000D02*
X194818000Y-88900000D01*
X193802000Y-84455000D02*
X193802000Y-85517700D01*
X189496000Y-87376000D02*
X190071300Y-87376000D01*
X194297700Y-85630400D02*
X194818000Y-86150700D01*
X193802000Y-85630400D02*
X194297700Y-85630400D01*
X193802000Y-85517700D02*
X193802000Y-85630400D01*
X152896000Y-82804000D02*
X152896000Y-83154100D01*
X152896000Y-83154100D02*
X152896000Y-83504300D01*
X159524000Y-83058000D02*
X158798700Y-83058000D01*
X180458600Y-79440300D02*
X181090000Y-80071700D01*
X179590000Y-79440300D02*
X180458600Y-79440300D01*
X179590000Y-78740000D02*
X179590000Y-79440300D01*
X161024000Y-76454000D02*
X161749300Y-76454000D01*
X181090000Y-80772000D02*
X181090000Y-80421800D01*
X185916000Y-83123500D02*
X185916000Y-82611700D01*
X185916000Y-83123500D02*
X185916000Y-83312000D01*
X190071300Y-86072000D02*
X190071300Y-87376000D01*
X187975700Y-86072000D02*
X190071300Y-86072000D01*
X185916000Y-84012300D02*
X187975700Y-86072000D01*
X193360400Y-86072000D02*
X193802000Y-85630400D01*
X190071300Y-86072000D02*
X193360400Y-86072000D01*
X185916000Y-83312000D02*
X185916000Y-84012300D01*
X194310000Y-76095900D02*
X194310000Y-75135000D01*
X166930000Y-88250000D02*
X166930000Y-87424700D01*
X159524000Y-83058000D02*
X159524000Y-83758300D01*
X151650000Y-89057800D02*
X151650000Y-89091200D01*
X151650000Y-89408000D02*
X151650000Y-89091200D01*
X151650000Y-89057800D02*
X151650000Y-88707700D01*
X161024000Y-78740000D02*
X161024000Y-78039700D01*
X155968000Y-81026000D02*
X156693300Y-81026000D01*
X161363100Y-76793100D02*
X161024000Y-76454000D01*
X161363100Y-77700600D02*
X161363100Y-76793100D01*
X161024000Y-78039700D02*
X161363100Y-77700600D01*
X151524000Y-89091200D02*
X151650000Y-89091200D01*
X150904500Y-88471700D02*
X151524000Y-89091200D01*
X150904500Y-85898900D02*
X150904500Y-88471700D01*
X151438700Y-85364700D02*
X150904500Y-85898900D01*
X152029700Y-85364700D02*
X151438700Y-85364700D01*
X152225300Y-85169100D02*
X152029700Y-85364700D01*
X152225300Y-84582000D02*
X152225300Y-85169100D01*
X154065000Y-86020300D02*
X153725300Y-86360000D01*
X154194700Y-86020300D02*
X154065000Y-86020300D01*
X153150000Y-86360000D02*
X153725300Y-86360000D01*
X152506800Y-88707700D02*
X153150000Y-88064500D01*
X151650000Y-88707700D02*
X152506800Y-88707700D01*
X153150000Y-88064500D02*
X153150000Y-87884000D01*
X153150000Y-88064500D02*
X154135900Y-88064500D01*
X166930000Y-76437300D02*
X166930000Y-76024700D01*
X166930000Y-76437300D02*
X166930000Y-76850000D01*
X151400000Y-76520000D02*
X152175300Y-76520000D01*
X152175300Y-76520000D02*
X152382700Y-76520000D01*
X151650000Y-91440000D02*
X151650000Y-90108300D01*
X151650000Y-90108300D02*
X151650000Y-89408000D01*
X155968000Y-81026000D02*
X155968000Y-81726300D01*
X162178600Y-76024700D02*
X166930000Y-76024700D01*
X161749300Y-76454000D02*
X162178600Y-76024700D01*
X163002100Y-83758300D02*
X159524000Y-83758300D01*
X163543800Y-84300000D02*
X163002100Y-83758300D01*
X164480000Y-84300000D02*
X163543800Y-84300000D01*
X155598400Y-82095900D02*
X155598400Y-82764500D01*
X155968000Y-81726300D02*
X155598400Y-82095900D01*
X153285600Y-82764500D02*
X152896000Y-83154100D01*
X155598400Y-82764500D02*
X153285600Y-82764500D01*
X155891900Y-83058000D02*
X158798700Y-83058000D01*
X155598400Y-82764500D02*
X155891900Y-83058000D01*
X156693300Y-80248600D02*
X156693300Y-81026000D01*
X158902200Y-78039700D02*
X156693300Y-80248600D01*
X161024000Y-78039700D02*
X158902200Y-78039700D01*
X181090000Y-80421800D02*
X181090000Y-80246700D01*
X181090000Y-80240600D02*
X181090000Y-80071700D01*
X181090000Y-80246700D02*
X181090000Y-80240600D01*
X183279900Y-82611700D02*
X185916000Y-82611700D01*
X181090000Y-80421800D02*
X183279900Y-82611700D01*
X153786400Y-90108300D02*
X151650000Y-90108300D01*
X154523300Y-89371400D02*
X153786400Y-90108300D01*
X156596600Y-89371400D02*
X154523300Y-89371400D01*
X157023600Y-88944400D02*
X156596600Y-89371400D01*
X161522700Y-88944400D02*
X157023600Y-88944400D01*
X163042400Y-87424700D02*
X161522700Y-88944400D01*
X166930000Y-87424700D02*
X163042400Y-87424700D01*
X181090000Y-80240600D02*
X181459800Y-79870800D01*
X175789100Y-76929700D02*
X178700800Y-76929700D01*
X173444400Y-79274400D02*
X175789100Y-76929700D01*
X168539100Y-79274400D02*
X173444400Y-79274400D01*
X166930000Y-77665300D02*
X168539100Y-79274400D01*
X166930000Y-76850000D02*
X166930000Y-77665300D01*
X179590000Y-80772000D02*
X179590000Y-81472300D01*
X164480000Y-80300000D02*
X165305300Y-80300000D01*
X185183200Y-87341900D02*
X185183200Y-87294800D01*
X185358000Y-87516700D02*
X185183200Y-87341900D01*
X185358000Y-88392000D02*
X185358000Y-87516700D01*
X179926000Y-81472300D02*
X180246300Y-81792600D01*
X179590000Y-81472300D02*
X179926000Y-81472300D01*
X183222600Y-84768900D02*
X180246300Y-81792600D01*
X183642300Y-84768900D02*
X183222600Y-84768900D01*
X165305300Y-81141900D02*
X165305300Y-80300000D01*
X166070800Y-81907400D02*
X165305300Y-81141900D01*
X167523700Y-81907400D02*
X166070800Y-81907400D01*
X167826300Y-81604800D02*
X167523700Y-81907400D01*
X173927100Y-81604800D02*
X167826300Y-81604800D01*
X174126400Y-81804100D02*
X173927100Y-81604800D01*
X153150000Y-89408000D02*
X153150000Y-88707700D01*
X160227700Y-86868000D02*
X159716500Y-86868000D01*
X160227700Y-86868000D02*
X160854000Y-86868000D01*
X159017000Y-85075200D02*
X157114300Y-85075200D01*
X160227700Y-86285900D02*
X159017000Y-85075200D01*
X160227700Y-86868000D02*
X160227700Y-86285900D01*
X163392400Y-80400800D02*
X158567100Y-80400800D01*
X163791600Y-80800000D02*
X163392400Y-80400800D01*
X164480000Y-80800000D02*
X163791600Y-80800000D01*
X156623400Y-88707700D02*
X153150000Y-88707700D01*
X156837000Y-88494100D02*
X156623400Y-88707700D01*
X158213500Y-88494100D02*
X156837000Y-88494100D01*
X159716500Y-86991100D02*
X158213500Y-88494100D01*
X159716500Y-86868000D02*
X159716500Y-86991100D01*
X151650000Y-87884000D02*
X151650000Y-87183700D01*
X155513000Y-87183700D02*
X155828700Y-86868000D01*
X151650000Y-87183700D02*
X155513000Y-87183700D01*
X156781300Y-86868000D02*
X157154000Y-86868000D01*
X156781300Y-86868000D02*
X156305000Y-86868000D01*
X156305000Y-86868000D02*
X155828700Y-86868000D01*
X164480000Y-81300000D02*
X163654700Y-81300000D01*
X156917100Y-86255900D02*
X159313200Y-86255900D01*
X156305000Y-86868000D02*
X156917100Y-86255900D01*
X163506900Y-81152200D02*
X163654700Y-81300000D01*
X160031400Y-81152200D02*
X163506900Y-81152200D01*
X159774100Y-81409500D02*
X160031400Y-81152200D01*
X173071400Y-92333700D02*
X170268400Y-92333700D01*
X173430000Y-89409700D02*
X173389100Y-89450600D01*
X173430000Y-88250000D02*
X173430000Y-89409700D01*
X159087200Y-78740000D02*
X159524000Y-78740000D01*
X158225500Y-79601700D02*
X159087200Y-78740000D01*
X156866200Y-90868400D02*
X156866100Y-90868400D01*
X156866200Y-89738700D02*
X156866200Y-90868400D01*
X157210200Y-89394700D02*
X156866200Y-89738700D01*
X163139500Y-89394700D02*
X157210200Y-89394700D01*
X169642400Y-84280000D02*
X166129300Y-84280000D01*
X170362700Y-85000300D02*
X169642400Y-84280000D01*
X159524000Y-76454000D02*
X159524000Y-75753700D01*
X161554600Y-75753700D02*
X161681000Y-75627300D01*
X159524000Y-75753700D02*
X161554600Y-75753700D01*
X175220300Y-79300000D02*
X175880000Y-79300000D01*
X174345300Y-80175000D02*
X175220300Y-79300000D01*
X166895000Y-80175000D02*
X174345300Y-80175000D01*
X166751400Y-80031400D02*
X166895000Y-80175000D01*
X158750000Y-93980000D02*
X158750000Y-92654700D01*
X157468000Y-81026000D02*
X157468000Y-81726300D01*
X157312800Y-81726300D02*
X157468000Y-81726300D01*
X157120000Y-81919100D02*
X157312800Y-81726300D01*
X181090000Y-78740000D02*
X181090000Y-78039700D01*
X164480000Y-84800000D02*
X163654700Y-84800000D01*
X163654700Y-84800000D02*
X162458900Y-84800000D01*
X178045300Y-78039700D02*
X181090000Y-78039700D01*
X177962800Y-78122200D02*
X178045300Y-78039700D01*
X169384100Y-85153700D02*
X169478200Y-85247800D01*
X166118700Y-85153700D02*
X169384100Y-85153700D01*
X165765000Y-84800000D02*
X166118700Y-85153700D01*
X164480000Y-84800000D02*
X165765000Y-84800000D01*
X157595000Y-90170000D02*
X157814100Y-90170000D01*
X158618300Y-92523000D02*
X158618300Y-90236300D01*
X158750000Y-92654700D02*
X158618300Y-92523000D01*
X157880400Y-90236300D02*
X157814100Y-90170000D01*
X158618300Y-90236300D02*
X157880400Y-90236300D01*
X150987100Y-77470000D02*
X153400000Y-77470000D01*
X150624600Y-77107500D02*
X150987100Y-77470000D01*
X150624600Y-75908100D02*
X150624600Y-77107500D01*
X152872700Y-73660000D02*
X150624600Y-75908100D01*
X153670000Y-73660000D02*
X152872700Y-73660000D01*
X153400000Y-77470000D02*
X153400000Y-76744700D01*
X153611000Y-76533700D02*
X157021000Y-76533700D01*
X153400000Y-76744700D02*
X153611000Y-76533700D01*
X161114700Y-82357700D02*
X161024000Y-82357700D01*
X161361900Y-82110500D02*
X161114700Y-82357700D01*
X161024000Y-83058000D02*
X161024000Y-82357700D01*
X175467400Y-81800000D02*
X175054700Y-81800000D01*
X175467400Y-81800000D02*
X175880000Y-81800000D01*
X178884900Y-86484200D02*
X183332700Y-90932000D01*
X178884900Y-83979600D02*
X178884900Y-86484200D01*
X176705300Y-81800000D02*
X178884900Y-83979600D01*
X175880000Y-81800000D02*
X176705300Y-81800000D01*
X183908000Y-90932000D02*
X183332700Y-90932000D01*
X166457400Y-81154500D02*
X166329800Y-81282100D01*
X174409200Y-81154500D02*
X166457400Y-81154500D01*
X175054700Y-81800000D02*
X174409200Y-81154500D01*
X184670000Y-77470000D02*
X184094700Y-77470000D01*
X179590000Y-76708000D02*
X180165300Y-76708000D01*
X156210000Y-93980000D02*
X156210000Y-92655200D01*
X151550000Y-80518000D02*
X151550000Y-81243300D01*
X153696700Y-81243300D02*
X151550000Y-81243300D01*
X155434700Y-79505300D02*
X153696700Y-81243300D01*
X155434700Y-78232000D02*
X155434700Y-79505300D01*
X150409900Y-82383400D02*
X151550000Y-81243300D01*
X150409900Y-91498900D02*
X150409900Y-82383400D01*
X151566200Y-92655200D02*
X150409900Y-91498900D01*
X156210000Y-92655200D02*
X151566200Y-92655200D01*
X156210000Y-78232000D02*
X155822400Y-78232000D01*
X155822400Y-78232000D02*
X155434700Y-78232000D01*
X156676100Y-77371800D02*
X160737800Y-77371800D01*
X155822400Y-78225500D02*
X156676100Y-77371800D01*
X155822400Y-78232000D02*
X155822400Y-78225500D01*
X166430000Y-76850000D02*
X162280400Y-76850000D01*
X166430000Y-76850000D02*
X166430000Y-77675300D01*
X176292700Y-78800000D02*
X175880000Y-78800000D01*
X175880000Y-78800000D02*
X175054700Y-78800000D01*
X156210000Y-91060300D02*
X156210000Y-92655200D01*
X156095000Y-90945300D02*
X156210000Y-91060300D01*
X156095000Y-90170000D02*
X156095000Y-90945300D01*
X184670000Y-81280000D02*
X184094700Y-81280000D01*
X167430000Y-88250000D02*
X167430000Y-89075300D01*
X184094700Y-81280000D02*
X184094700Y-78294200D01*
X188480000Y-76962000D02*
X188480000Y-78294200D01*
X188480000Y-78294200D02*
X188480000Y-78994000D01*
X176292700Y-78800000D02*
X176523200Y-78800000D01*
X180165300Y-76708000D02*
X180165300Y-77008300D01*
X171178100Y-89075300D02*
X171378400Y-89275600D01*
X167430000Y-89075300D02*
X171178100Y-89075300D01*
X188480000Y-78294200D02*
X186940200Y-78294200D01*
X184094700Y-78294200D02*
X186940200Y-78294200D01*
X173930000Y-88250000D02*
X173930000Y-89075300D01*
X164480000Y-81800000D02*
X163141500Y-81800000D01*
X174614100Y-89075300D02*
X173930000Y-89075300D01*
X175413800Y-89875000D02*
X174614100Y-89075300D01*
X191292200Y-92048200D02*
X178807000Y-92048200D01*
X176523200Y-78800000D02*
X176887300Y-78800000D01*
X174130000Y-79724700D02*
X175054700Y-78800000D01*
X168352500Y-79724700D02*
X174130000Y-79724700D01*
X166430000Y-77802200D02*
X168352500Y-79724700D01*
X166430000Y-77675300D02*
X166430000Y-77802200D01*
X179379900Y-77008300D02*
X180165300Y-77008300D01*
X179359500Y-77028700D02*
X179379900Y-77008300D01*
X179359500Y-77028800D02*
X179359500Y-77028700D01*
X179326100Y-77062200D02*
X179359500Y-77028800D01*
X179326100Y-77188800D02*
X179326100Y-77062200D01*
X178959900Y-77555000D02*
X179326100Y-77188800D01*
X178441800Y-77555000D02*
X178959900Y-77555000D01*
X178378300Y-77491500D02*
X178441800Y-77555000D01*
X177708900Y-77491500D02*
X178378300Y-77491500D01*
X176523200Y-78677200D02*
X177708900Y-77491500D01*
X176523200Y-78800000D02*
X176523200Y-78677200D01*
X184094700Y-78172600D02*
X183743400Y-77821300D01*
X184094700Y-78294200D02*
X184094700Y-78172600D01*
X183045600Y-77821300D02*
X183743400Y-77821300D01*
X182760300Y-77536000D02*
X183045600Y-77821300D01*
X180693000Y-77536000D02*
X182760300Y-77536000D01*
X180165300Y-77008300D02*
X180693000Y-77536000D01*
X183743400Y-77821300D02*
X184094700Y-77470000D01*
X152624700Y-80370000D02*
X152624700Y-80518000D01*
X151400000Y-79145300D02*
X152624700Y-80370000D01*
X151400000Y-78420000D02*
X151400000Y-79145300D01*
X153250000Y-80518000D02*
X152624700Y-80518000D01*
X194818000Y-90170000D02*
X194310000Y-90170000D01*
X185916000Y-85598000D02*
X186491300Y-85598000D01*
X189139200Y-88245900D02*
X186491300Y-85598000D01*
X190121300Y-88245900D02*
X189139200Y-88245900D01*
X192045400Y-90170000D02*
X190121300Y-88245900D01*
X194310000Y-90170000D02*
X192045400Y-90170000D01*
X193730300Y-89535000D02*
X194818000Y-89535000D01*
X191571300Y-87376000D02*
X193730300Y-89535000D01*
X190996000Y-87376000D02*
X191571300Y-87376000D01*
X188710000Y-90678000D02*
X189285300Y-90678000D01*
X189412300Y-90805000D02*
X189285300Y-90678000D01*
X194818000Y-90805000D02*
X189412300Y-90805000D01*
X194818000Y-91440000D02*
X194310000Y-91440000D01*
X185408000Y-90932000D02*
X185983300Y-90932000D01*
X186555300Y-91504000D02*
X185983300Y-90932000D01*
X190952100Y-91504000D02*
X186555300Y-91504000D01*
X191033200Y-91422900D02*
X190952100Y-91504000D01*
X194292900Y-91422900D02*
X191033200Y-91422900D01*
X194310000Y-91440000D02*
X194292900Y-91422900D01*
X175022400Y-75574100D02*
X175191200Y-75742900D01*
X171880600Y-75574100D02*
X175022400Y-75574100D01*
X171430000Y-76024700D02*
X171880600Y-75574100D01*
X171430000Y-76850000D02*
X171430000Y-76024700D01*
X175880000Y-83300000D02*
X173619300Y-83300000D01*
X166868400Y-92891000D02*
X167640000Y-93662600D01*
X165871500Y-92891000D02*
X166868400Y-92891000D01*
X164782500Y-93980000D02*
X165871500Y-92891000D01*
X163830000Y-93980000D02*
X164782500Y-93980000D01*
X169014300Y-89946000D02*
X168943100Y-89874800D01*
X171947200Y-89946000D02*
X169014300Y-89946000D01*
X171994000Y-89899200D02*
X171947200Y-89946000D01*
X175880000Y-82800000D02*
X176705300Y-82800000D01*
X170161200Y-91556600D02*
X174620000Y-91556600D01*
X169642900Y-92074900D02*
X170161200Y-91556600D01*
X169642900Y-92075000D02*
X169642900Y-92074900D01*
X167640000Y-92075000D02*
X169642900Y-92075000D01*
X178434500Y-84529200D02*
X178434500Y-87893800D01*
X176705300Y-82800000D02*
X178434500Y-84529200D01*
X172930000Y-76850000D02*
X172930000Y-77675300D01*
X172857500Y-77747800D02*
X172857500Y-77869300D01*
X172930000Y-77675300D02*
X172857500Y-77747800D01*
X167930000Y-76850000D02*
X167930000Y-76024700D01*
X168297500Y-76024700D02*
X167930000Y-76024700D01*
X170662200Y-73660000D02*
X168297500Y-76024700D01*
X171450000Y-73660000D02*
X170662200Y-73660000D01*
X167430000Y-75140000D02*
X168910000Y-73660000D01*
X167430000Y-76850000D02*
X167430000Y-75140000D01*
X175880000Y-86300000D02*
X176705300Y-86300000D01*
X178178300Y-93088300D02*
X179070000Y-93980000D01*
X178178300Y-89498400D02*
X178178300Y-93088300D01*
X176705300Y-88025400D02*
X178178300Y-89498400D01*
X176705300Y-86300000D02*
X176705300Y-88025400D01*
X151650000Y-86360000D02*
X152225300Y-86360000D01*
X152225300Y-86124100D02*
X152225300Y-86360000D01*
X152878400Y-85471000D02*
X152225300Y-86124100D01*
X153443100Y-85471000D02*
X152878400Y-85471000D01*
X153920700Y-84993400D02*
X153443100Y-85471000D01*
X168430000Y-76850000D02*
X168430000Y-77675300D01*
X168223100Y-77675300D02*
X168023700Y-77874700D01*
X168430000Y-77675300D02*
X168223100Y-77675300D01*
X171930000Y-88250000D02*
X171930000Y-87424700D01*
X168860100Y-87424700D02*
X171930000Y-87424700D01*
X168409300Y-86973900D02*
X168860100Y-87424700D01*
X163744600Y-86973900D02*
X168409300Y-86973900D01*
X161128200Y-84357500D02*
X163744600Y-86973900D01*
X153374500Y-84357500D02*
X161128200Y-84357500D01*
X153150000Y-84582000D02*
X153374500Y-84357500D01*
X165909500Y-82383000D02*
X167954500Y-82383000D01*
X165826500Y-82300000D02*
X165909500Y-82383000D01*
X164480000Y-82300000D02*
X165826500Y-82300000D01*
X164480000Y-79300000D02*
X165305300Y-79300000D01*
X165305300Y-79300000D02*
X165489700Y-79300000D01*
X171930000Y-76850000D02*
X171930000Y-77675300D01*
X171930000Y-77744200D02*
X172057100Y-77871300D01*
X171930000Y-77675300D02*
X171930000Y-77744200D01*
X172430000Y-76850000D02*
X172430000Y-76024700D01*
X174285100Y-76024700D02*
X174585400Y-76325000D01*
X172430000Y-76024700D02*
X174285100Y-76024700D01*
X162959400Y-82800000D02*
X162300000Y-82140600D01*
X164480000Y-82800000D02*
X162959400Y-82800000D01*
X164480000Y-83300000D02*
X165305300Y-83300000D01*
X165305300Y-83300000D02*
X165480300Y-83125000D01*
X166303200Y-83200800D02*
X166303200Y-83029300D01*
X165704000Y-83800000D02*
X166303200Y-83200800D01*
X164480000Y-83800000D02*
X165704000Y-83800000D01*
X189980000Y-78994000D02*
X189404700Y-78994000D01*
X189404700Y-73834700D02*
X189230000Y-73660000D01*
X189404700Y-78994000D02*
X189404700Y-73834700D01*
X169430000Y-76850000D02*
X169430000Y-76024700D01*
X183296200Y-75067300D02*
X183422400Y-75193500D01*
X170387400Y-75067300D02*
X183296200Y-75067300D01*
X169430000Y-76024700D02*
X170387400Y-75067300D01*
X189980000Y-75450000D02*
X191770000Y-73660000D01*
X189980000Y-76962000D02*
X189980000Y-75450000D01*
X168930000Y-76850000D02*
X168930000Y-77675300D01*
X169294200Y-78039500D02*
X169322100Y-78039500D01*
X168930000Y-77675300D02*
X169294200Y-78039500D01*
X184343400Y-75793800D02*
X185538900Y-75793800D01*
X183693000Y-76444200D02*
X184343400Y-75793800D01*
X182924400Y-76444200D02*
X183693000Y-76444200D01*
X181090000Y-76708000D02*
X181665300Y-76708000D01*
X172430000Y-87405800D02*
X173045400Y-86790400D01*
X172430000Y-88250000D02*
X172430000Y-87405800D01*
X184150000Y-75350300D02*
X184150000Y-73660000D01*
X183681500Y-75818800D02*
X184150000Y-75350300D01*
X182554500Y-75818800D02*
X183681500Y-75818800D01*
X181665300Y-76708000D02*
X182554500Y-75818800D01*
X186170000Y-77470000D02*
X186170000Y-76694700D01*
X186170000Y-74180000D02*
X186690000Y-73660000D01*
X186170000Y-76694700D02*
X186170000Y-74180000D01*
X173391300Y-87424600D02*
X173969300Y-86846600D01*
X173170300Y-87424600D02*
X173391300Y-87424600D01*
X172930000Y-87664900D02*
X173170300Y-87424600D01*
X172930000Y-88250000D02*
X172930000Y-87664900D01*
X186170000Y-77470000D02*
X186745300Y-77470000D01*
X186745600Y-77470300D02*
X187575800Y-77470300D01*
X186745300Y-77470000D02*
X186745600Y-77470300D01*
X164480000Y-85300000D02*
X165305300Y-85300000D01*
X171022700Y-85224600D02*
X173875900Y-85224600D01*
X171022700Y-85224700D02*
X171022700Y-85224600D01*
X170374300Y-85873100D02*
X171022700Y-85224700D01*
X169219200Y-85873100D02*
X170374300Y-85873100D01*
X168950100Y-85604000D02*
X169219200Y-85873100D01*
X165932100Y-85604000D02*
X168950100Y-85604000D01*
X165628100Y-85300000D02*
X165932100Y-85604000D01*
X165305300Y-85300000D02*
X165628100Y-85300000D01*
X164480000Y-85800000D02*
X165305300Y-85800000D01*
X171022000Y-85862300D02*
X174409400Y-85862300D01*
X170560900Y-86323400D02*
X171022000Y-85862300D01*
X169032600Y-86323400D02*
X170560900Y-86323400D01*
X168763500Y-86054300D02*
X169032600Y-86323400D01*
X165559600Y-86054300D02*
X168763500Y-86054300D01*
X165305300Y-85800000D02*
X165559600Y-86054300D01*
X168859200Y-86786900D02*
X172132900Y-86786900D01*
X168589500Y-86517200D02*
X168859200Y-86786900D01*
X164697200Y-86517200D02*
X168589500Y-86517200D01*
X164480000Y-86300000D02*
X164697200Y-86517200D01*
X166430000Y-88250000D02*
X166430000Y-89075300D01*
X176039200Y-89365000D02*
X176020500Y-89346300D01*
X176039200Y-90135100D02*
X176039200Y-89365000D01*
X175636600Y-90537700D02*
X176039200Y-90135100D01*
X167892400Y-90537700D02*
X175636600Y-90537700D01*
X166430000Y-89075300D02*
X167892400Y-90537700D01*
X169051300Y-82465200D02*
X168816200Y-82230100D01*
X174513600Y-82465200D02*
X169051300Y-82465200D01*
X174678800Y-82300000D02*
X174513600Y-82465200D01*
X175880000Y-82300000D02*
X174678800Y-82300000D01*
X175880000Y-85800000D02*
X175054700Y-85800000D01*
X175054700Y-87036600D02*
X175054700Y-85800000D01*
X176645800Y-88627700D02*
X175054700Y-87036600D01*
X176645800Y-93864200D02*
X176645800Y-88627700D01*
X176530000Y-93980000D02*
X176645800Y-93864200D01*
X175880000Y-85300000D02*
X176705300Y-85300000D01*
X177781200Y-86375900D02*
X177781200Y-87409000D01*
X176705300Y-85300000D02*
X177781200Y-86375900D01*
X175880000Y-84800000D02*
X175054700Y-84800000D01*
X174702300Y-84447600D02*
X171247900Y-84447600D01*
X175054700Y-84800000D02*
X174702300Y-84447600D01*
X187210000Y-88199900D02*
X187210000Y-89154000D01*
X184207200Y-82055400D02*
X187225600Y-82055400D01*
X182353600Y-80201800D02*
X184207200Y-82055400D01*
X182353600Y-79008500D02*
X182353600Y-80201800D01*
X175777900Y-76129300D02*
X178744600Y-76129300D01*
X173083100Y-78824100D02*
X175777900Y-76129300D01*
X170731600Y-78824100D02*
X173083100Y-78824100D01*
X170430000Y-78522500D02*
X170731600Y-78824100D01*
X170430000Y-76850000D02*
X170430000Y-78522500D01*
X189738000Y-84455000D02*
X191313300Y-84455000D01*
X191478800Y-84289500D02*
X191313300Y-84455000D01*
X191478800Y-81647000D02*
X191478800Y-84289500D01*
X193369800Y-79756000D02*
X191478800Y-81647000D01*
X194818000Y-79756000D02*
X193369800Y-79756000D01*
X186170000Y-81280000D02*
X186745300Y-81280000D01*
X189770000Y-81985000D02*
X188194700Y-81985000D01*
X187489700Y-81280000D02*
X186745300Y-81280000D01*
X188194700Y-81985000D02*
X187489700Y-81280000D01*
X184416000Y-85598000D02*
X183840700Y-85598000D01*
X182143600Y-85598000D02*
X183840700Y-85598000D01*
X176845600Y-80300000D02*
X182143600Y-85598000D01*
X175880000Y-80300000D02*
X176845600Y-80300000D01*
X175880000Y-80800000D02*
X176705300Y-80800000D01*
X187210000Y-90678000D02*
X186634700Y-90678000D01*
X180518100Y-84612800D02*
X176705300Y-80800000D01*
X180518100Y-86272600D02*
X180518100Y-84612800D01*
X184348200Y-90102700D02*
X180518100Y-86272600D01*
X186059400Y-90102700D02*
X184348200Y-90102700D01*
X186634700Y-90678000D02*
X186059400Y-90102700D01*
X184670000Y-79375000D02*
X185245300Y-79375000D01*
X191904100Y-78535000D02*
X194310000Y-78535000D01*
X190269300Y-80169800D02*
X191904100Y-78535000D01*
X185752400Y-80169800D02*
X190269300Y-80169800D01*
X185245300Y-79662700D02*
X185752400Y-80169800D01*
X185245300Y-79375000D02*
X185245300Y-79662700D01*
X186170000Y-79375000D02*
X186745300Y-79375000D01*
X186900900Y-79530600D02*
X186961900Y-79530600D01*
X186745300Y-79375000D02*
X186900900Y-79530600D01*
X170930000Y-78036100D02*
X170930000Y-76850000D01*
X171092700Y-78198800D02*
X170930000Y-78036100D01*
X184327300Y-76514100D02*
X184507600Y-76514100D01*
X183645400Y-77196000D02*
X184327300Y-76514100D01*
X183304600Y-77196000D02*
X183645400Y-77196000D01*
X164480000Y-78800000D02*
X163654700Y-78800000D01*
X153150000Y-91440000D02*
X153875300Y-91440000D01*
X163654700Y-78800000D02*
X163464800Y-78989900D01*
X159573600Y-74837900D02*
X155570100Y-74837900D01*
X159573600Y-74837800D02*
X159573600Y-74837900D01*
X159969000Y-74442400D02*
X159573600Y-74837800D01*
X160487100Y-74442400D02*
X159969000Y-74442400D01*
X160853300Y-74808600D02*
X160487100Y-74442400D01*
X162681400Y-74808600D02*
X160853300Y-74808600D01*
X163830000Y-73660000D02*
X162681400Y-74808600D01*
X153964900Y-91350400D02*
X154313000Y-91350400D01*
X153875300Y-91440000D02*
X153964900Y-91350400D01*
X188710000Y-89154000D02*
X189285300Y-89154000D01*
X193802000Y-81915000D02*
X192226700Y-81915000D01*
X189285300Y-89154000D02*
X189579400Y-89154000D01*
X192226700Y-84520300D02*
X192017800Y-84729200D01*
X192226700Y-81915000D02*
X192226700Y-84520300D01*
X153600000Y-82103700D02*
X151396000Y-82103700D01*
X156696400Y-79007300D02*
X153600000Y-82103700D01*
X157226000Y-79007300D02*
X156696400Y-79007300D01*
X157226000Y-78232000D02*
X157226000Y-79007300D01*
X151396000Y-82804000D02*
X151396000Y-82103700D01*
M02*
