G04 #@! TF.FileFunction,Soldermask,Bot*
%FSLAX46Y46*%
G04 Gerber Fmt 4.6, Leading zero omitted, Abs format (unit mm)*
G04 Created by KiCad (PCBNEW 4.0.6) date 07/20/17 15:58:59*
%MOMM*%
%LPD*%
G01*
G04 APERTURE LIST*
%ADD10C,0.100000*%
%ADD11R,2.400000X2.400000*%
%ADD12R,2.398980X2.398980*%
%ADD13R,2.400000X2.398980*%
%ADD14C,2.398980*%
%ADD15C,1.924000*%
%ADD16C,1.200000*%
%ADD17O,1.500000X2.200000*%
%ADD18C,0.900000*%
G04 APERTURE END LIST*
D10*
D11*
X158750000Y-93980000D03*
X191770000Y-93980000D03*
X163830000Y-73660000D03*
D12*
X156210000Y-93980000D03*
D13*
X153670000Y-93980000D03*
D11*
X189230000Y-73660000D03*
X191770000Y-73660000D03*
X184150000Y-73660000D03*
X186690000Y-73660000D03*
D14*
X189230000Y-93980000D03*
X186690000Y-93980000D03*
X184150000Y-93980000D03*
X181610000Y-93980000D03*
D15*
X176530000Y-93980000D03*
D11*
X173990000Y-93980000D03*
X171450000Y-93980000D03*
D15*
X162560000Y-92075000D03*
X161290000Y-93980000D03*
X165100000Y-92075000D03*
X166370000Y-93980000D03*
X167640000Y-92075000D03*
X168910000Y-93980000D03*
X163830000Y-93980000D03*
X173990000Y-73660000D03*
X168910000Y-73660000D03*
X179070000Y-93980000D03*
X161290000Y-73660000D03*
X166370000Y-73660000D03*
X171450000Y-73660000D03*
X156210000Y-73660000D03*
X158750000Y-73660000D03*
D16*
X194818000Y-79756000D03*
D11*
X153670000Y-73660000D03*
D17*
X194818000Y-92964000D03*
X194818000Y-87376000D03*
D18*
X195326000Y-90805000D03*
X195326000Y-89535000D03*
X194310000Y-88900000D03*
X194310000Y-90170000D03*
X194310000Y-91440000D03*
M02*
