G04 #@! TF.FileFunction,Copper,L2,Bot,Signal*
%FSLAX46Y46*%
G04 Gerber Fmt 4.6, Leading zero omitted, Abs format (unit mm)*
G04 Created by KiCad (PCBNEW 4.0.6) date 07/20/17 15:58:59*
%MOMM*%
%LPD*%
G01*
G04 APERTURE LIST*
%ADD10C,0.100000*%
%ADD11R,2.000000X2.000000*%
%ADD12R,1.998980X1.998980*%
%ADD13R,2.000000X1.998980*%
%ADD14C,1.998980*%
%ADD15C,1.524000*%
%ADD16C,0.800000*%
%ADD17O,1.100000X1.800000*%
%ADD18C,0.500000*%
%ADD19C,0.600000*%
%ADD20C,0.250000*%
G04 APERTURE END LIST*
D10*
D11*
X158750000Y-93980000D03*
X191770000Y-93980000D03*
X163830000Y-73660000D03*
D12*
X156210000Y-93980000D03*
D13*
X153670000Y-93980000D03*
D11*
X189230000Y-73660000D03*
X191770000Y-73660000D03*
X184150000Y-73660000D03*
X186690000Y-73660000D03*
D14*
X189230000Y-93980000D03*
X186690000Y-93980000D03*
X184150000Y-93980000D03*
X181610000Y-93980000D03*
D15*
X176530000Y-93980000D03*
D11*
X173990000Y-93980000D03*
X171450000Y-93980000D03*
D15*
X162560000Y-92075000D03*
X161290000Y-93980000D03*
X165100000Y-92075000D03*
X166370000Y-93980000D03*
X167640000Y-92075000D03*
X168910000Y-93980000D03*
X163830000Y-93980000D03*
X173990000Y-73660000D03*
X168910000Y-73660000D03*
X179070000Y-93980000D03*
X161290000Y-73660000D03*
X166370000Y-73660000D03*
X171450000Y-73660000D03*
X156210000Y-73660000D03*
X158750000Y-73660000D03*
D16*
X194818000Y-79756000D03*
D11*
X153670000Y-73660000D03*
D17*
X194818000Y-92964000D03*
X194818000Y-87376000D03*
D18*
X195326000Y-90805000D03*
X195326000Y-89535000D03*
X194310000Y-88900000D03*
X194310000Y-90170000D03*
X194310000Y-91440000D03*
D19*
X182119700Y-82769600D03*
X174842000Y-80656700D03*
X194310000Y-76095900D03*
X154135900Y-88064500D03*
X154194700Y-86020300D03*
X152382700Y-76520000D03*
X181459800Y-79870800D03*
X178700800Y-76929700D03*
X180246300Y-81792600D03*
X174126400Y-81804100D03*
X185183200Y-87294800D03*
X183642300Y-84768900D03*
X157114300Y-85075200D03*
X158567100Y-80400800D03*
X159313200Y-86255900D03*
X159774100Y-81409500D03*
X173389100Y-89450600D03*
X173071400Y-92333700D03*
X170268400Y-92333700D03*
X170362700Y-85000300D03*
X166129300Y-84280000D03*
X163139500Y-89394700D03*
X156866100Y-90868400D03*
X158225500Y-79601700D03*
X161681000Y-75627300D03*
X166751400Y-80031400D03*
X157120000Y-81919100D03*
X177962800Y-78122200D03*
X169478200Y-85247800D03*
X162458900Y-84800000D03*
X158618300Y-90236300D03*
X166329800Y-81282100D03*
X157021000Y-76533700D03*
X161361900Y-82110500D03*
X160737800Y-77371800D03*
X162280400Y-76850000D03*
X163141500Y-81800000D03*
X176887300Y-78800000D03*
X171378400Y-89275600D03*
X186940200Y-78294200D03*
X191292200Y-92048200D03*
X178807000Y-92048200D03*
X175413800Y-89875000D03*
X175191200Y-75742900D03*
X167640000Y-93662600D03*
X168943100Y-89874800D03*
X171994000Y-89899200D03*
X173619300Y-83300000D03*
X178434500Y-87893800D03*
X174620000Y-91556600D03*
X172857500Y-77869300D03*
X153920700Y-84993400D03*
X168023700Y-77874700D03*
X167954500Y-82383000D03*
X165489700Y-79300000D03*
X172057100Y-77871300D03*
X174585400Y-76325000D03*
X162300000Y-82140600D03*
X165480300Y-83125000D03*
X166303200Y-83029300D03*
X183422400Y-75193500D03*
X169322100Y-78039500D03*
X182924400Y-76444200D03*
X185538900Y-75793800D03*
X173045400Y-86790400D03*
X173969300Y-86846600D03*
X187575800Y-77470300D03*
X173875900Y-85224600D03*
X174409400Y-85862300D03*
X172132900Y-86786900D03*
X176020500Y-89346300D03*
X168816200Y-82230100D03*
X177781200Y-87409000D03*
X171247900Y-84447600D03*
X178744600Y-76129300D03*
X182353600Y-79008500D03*
X187225600Y-82055400D03*
X187210000Y-88199900D03*
X171092700Y-78198800D03*
X183304600Y-77196000D03*
X184507600Y-76514100D03*
X186961900Y-79530600D03*
X163464800Y-78989900D03*
X155570100Y-74837900D03*
X154313000Y-91350400D03*
X192017800Y-84729200D03*
X189579400Y-89154000D03*
D20*
X180006800Y-80656700D02*
X174842000Y-80656700D01*
X182119700Y-82769600D02*
X180006800Y-80656700D01*
X194608700Y-88601300D02*
X194310000Y-88900000D01*
X194818000Y-88601300D02*
X194608700Y-88601300D01*
X194937500Y-92844500D02*
X194818000Y-92964000D01*
X194937500Y-91230100D02*
X194937500Y-92844500D01*
X194512400Y-90805000D02*
X194937500Y-91230100D01*
X194085900Y-90805000D02*
X194512400Y-90805000D01*
X193713700Y-90432800D02*
X194085900Y-90805000D01*
X193713700Y-89496300D02*
X193713700Y-90432800D01*
X194310000Y-88900000D02*
X193713700Y-89496300D01*
X194818000Y-87376000D02*
X194818000Y-87988600D01*
X194818000Y-87988600D02*
X194818000Y-88601300D01*
X194063300Y-76342600D02*
X194310000Y-76095900D01*
X194063300Y-87233900D02*
X194063300Y-76342600D01*
X194818000Y-87988600D02*
X194063300Y-87233900D01*
X154194700Y-88005700D02*
X154135900Y-88064500D01*
X154194700Y-86020300D02*
X154194700Y-88005700D01*
X154569700Y-85645300D02*
X154194700Y-86020300D01*
X154569700Y-78707000D02*
X154569700Y-85645300D01*
X152382700Y-76520000D02*
X154569700Y-78707000D01*
X181459800Y-79688700D02*
X178700800Y-76929700D01*
X181459800Y-79870800D02*
X181459800Y-79688700D01*
X183642300Y-85753900D02*
X183642300Y-84768900D01*
X185183200Y-87294800D02*
X183642300Y-85753900D01*
X174137900Y-81792600D02*
X174126400Y-81804100D01*
X180246300Y-81792600D02*
X174137900Y-81792600D01*
X157744700Y-80400800D02*
X158567100Y-80400800D01*
X156452300Y-81693200D02*
X157744700Y-80400800D01*
X156452300Y-84413200D02*
X156452300Y-81693200D01*
X157114300Y-85075200D02*
X156452300Y-84413200D01*
X159774100Y-82043900D02*
X159774100Y-81409500D01*
X161727200Y-83997000D02*
X159774100Y-82043900D01*
X162540500Y-83997000D02*
X161727200Y-83997000D01*
X163115100Y-84571600D02*
X162540500Y-83997000D01*
X163115100Y-85122000D02*
X163115100Y-84571600D01*
X161981200Y-86255900D02*
X163115100Y-85122000D01*
X159313200Y-86255900D02*
X161981200Y-86255900D01*
X173389100Y-92016000D02*
X173389100Y-89450600D01*
X173071400Y-92333700D02*
X173389100Y-92016000D01*
X170115100Y-85247900D02*
X170362700Y-85000300D01*
X170115100Y-92180400D02*
X170115100Y-85247900D01*
X170268400Y-92333700D02*
X170115100Y-92180400D01*
X157827400Y-79601700D02*
X158225500Y-79601700D01*
X156002000Y-81427100D02*
X157827400Y-79601700D01*
X156002000Y-90004300D02*
X156002000Y-81427100D01*
X156866100Y-90868400D02*
X156002000Y-90004300D01*
X163139500Y-87269800D02*
X163139500Y-89394700D01*
X166129300Y-84280000D02*
X163139500Y-87269800D01*
X161991200Y-75627300D02*
X161681000Y-75627300D01*
X162948400Y-76584500D02*
X161991200Y-75627300D01*
X162948400Y-77512700D02*
X162948400Y-76584500D01*
X162335500Y-78125600D02*
X162948400Y-77512700D01*
X162335500Y-79473400D02*
X162335500Y-78125600D01*
X163271200Y-80409100D02*
X162335500Y-79473400D01*
X166373700Y-80409100D02*
X163271200Y-80409100D01*
X166751400Y-80031400D02*
X166373700Y-80409100D01*
X175834500Y-78122200D02*
X177962800Y-78122200D01*
X172725700Y-81231000D02*
X175834500Y-78122200D01*
X172725700Y-81752800D02*
X172725700Y-81231000D01*
X169478200Y-85000300D02*
X172725700Y-81752800D01*
X169478200Y-85247800D02*
X169478200Y-85000300D01*
X158618300Y-84800000D02*
X158618300Y-90236300D01*
X158618300Y-83417400D02*
X158618300Y-84800000D01*
X157120000Y-81919100D02*
X158618300Y-83417400D01*
X158618300Y-84800000D02*
X162458900Y-84800000D01*
X162017300Y-82765900D02*
X161361900Y-82110500D01*
X164846000Y-82765900D02*
X162017300Y-82765900D01*
X166329800Y-81282100D02*
X164846000Y-82765900D01*
X157021000Y-76852900D02*
X157021000Y-76533700D01*
X160123200Y-79955100D02*
X157021000Y-76852900D01*
X160123200Y-80211200D02*
X160123200Y-79955100D01*
X161361900Y-81449900D02*
X160123200Y-80211200D01*
X161361900Y-82110500D02*
X161361900Y-81449900D01*
X160737800Y-77371800D02*
X161285800Y-77371800D01*
X161807600Y-76850000D02*
X162280400Y-76850000D01*
X161285800Y-77371800D02*
X161807600Y-76850000D01*
X186940200Y-77221600D02*
X186940200Y-78294200D01*
X187339100Y-76822700D02*
X186940200Y-77221600D01*
X187856800Y-76822700D02*
X187339100Y-76822700D01*
X188506800Y-77472700D02*
X187856800Y-76822700D01*
X188506800Y-89262800D02*
X188506800Y-77472700D01*
X191292200Y-92048200D02*
X188506800Y-89262800D01*
X161285800Y-79944300D02*
X163141500Y-81800000D01*
X161285800Y-77371800D02*
X161285800Y-79944300D01*
X177587000Y-92048200D02*
X178807000Y-92048200D01*
X175413800Y-89875000D02*
X177587000Y-92048200D01*
X175802100Y-78800000D02*
X176887300Y-78800000D01*
X173176000Y-81426100D02*
X175802100Y-78800000D01*
X173176000Y-82513700D02*
X173176000Y-81426100D01*
X171873200Y-83816500D02*
X173176000Y-82513700D01*
X171873200Y-85011100D02*
X171873200Y-83816500D01*
X171025700Y-85858600D02*
X171873200Y-85011100D01*
X171025700Y-88922900D02*
X171025700Y-85858600D01*
X171378400Y-89275600D02*
X171025700Y-88922900D01*
X162242500Y-93980000D02*
X161290000Y-93980000D01*
X163989400Y-92233100D02*
X162242500Y-93980000D01*
X163989400Y-91282500D02*
X163989400Y-92233100D01*
X164874900Y-90397000D02*
X163989400Y-91282500D01*
X164874900Y-87055900D02*
X164874900Y-90397000D01*
X169993000Y-81937800D02*
X164874900Y-87055900D01*
X169993000Y-77777000D02*
X169993000Y-81937800D01*
X171582700Y-76187300D02*
X169993000Y-77777000D01*
X172642100Y-76187300D02*
X171582700Y-76187300D01*
X173153300Y-75676100D02*
X172642100Y-76187300D01*
X175124400Y-75676100D02*
X173153300Y-75676100D01*
X175191200Y-75742900D02*
X175124400Y-75676100D01*
X172323500Y-84595800D02*
X173619300Y-83300000D01*
X172323500Y-85197700D02*
X172323500Y-84595800D01*
X171504800Y-86016400D02*
X172323500Y-85197700D01*
X171504800Y-88136400D02*
X171504800Y-86016400D01*
X172040700Y-88672300D02*
X171504800Y-88136400D01*
X172040700Y-89852500D02*
X172040700Y-88672300D01*
X171994000Y-89899200D02*
X172040700Y-89852500D01*
X168943100Y-92359500D02*
X167640000Y-93662600D01*
X168943100Y-89874800D02*
X168943100Y-92359500D01*
X174620000Y-89761400D02*
X174620000Y-91556600D01*
X175716500Y-88664900D02*
X174620000Y-89761400D01*
X177663400Y-88664900D02*
X175716500Y-88664900D01*
X178434500Y-87893800D02*
X177663400Y-88664900D01*
X172857500Y-78307900D02*
X172857500Y-77869300D01*
X172275400Y-78890000D02*
X172857500Y-78307900D01*
X172275400Y-81566100D02*
X172275400Y-78890000D01*
X168835100Y-85006400D02*
X172275400Y-81566100D01*
X168835100Y-86270000D02*
X168835100Y-85006400D01*
X169593200Y-87028100D02*
X168835100Y-86270000D01*
X169593200Y-93296800D02*
X169593200Y-87028100D01*
X168910000Y-93980000D02*
X169593200Y-93296800D01*
X153670000Y-93980000D02*
X153670000Y-92655200D01*
X153493900Y-92479100D02*
X153670000Y-92655200D01*
X153493900Y-85420200D02*
X153493900Y-92479100D01*
X153920700Y-84993400D02*
X153493900Y-85420200D01*
X168023700Y-81321700D02*
X168023700Y-77874700D01*
X166973200Y-82372200D02*
X168023700Y-81321700D01*
X166973200Y-83330000D02*
X166973200Y-82372200D01*
X166648500Y-83654700D02*
X166973200Y-83330000D01*
X165870300Y-83654700D02*
X166648500Y-83654700D01*
X165504000Y-84021000D02*
X165870300Y-83654700D01*
X165504000Y-84253600D02*
X165504000Y-84021000D01*
X157102400Y-92655200D02*
X165504000Y-84253600D01*
X153670000Y-92655200D02*
X157102400Y-92655200D01*
X167954500Y-82207500D02*
X167954500Y-82383000D01*
X168649000Y-81513000D02*
X167954500Y-82207500D01*
X168649100Y-81513000D02*
X168649000Y-81513000D01*
X168649100Y-77749700D02*
X168649100Y-81513000D01*
X171562400Y-74836400D02*
X168649100Y-77749700D01*
X171957800Y-74836400D02*
X171562400Y-74836400D01*
X173134200Y-73660000D02*
X171957800Y-74836400D01*
X173990000Y-73660000D02*
X173134200Y-73660000D01*
X165489700Y-74540300D02*
X165489700Y-79300000D01*
X166370000Y-73660000D02*
X165489700Y-74540300D01*
X171718000Y-78210400D02*
X172057100Y-77871300D01*
X171718000Y-81486600D02*
X171718000Y-78210400D01*
X166370000Y-86834600D02*
X171718000Y-81486600D01*
X166370000Y-93980000D02*
X166370000Y-86834600D01*
X174272800Y-76637600D02*
X174585400Y-76325000D01*
X171769300Y-76637600D02*
X174272800Y-76637600D01*
X170443300Y-77963600D02*
X171769300Y-76637600D01*
X170443300Y-82124400D02*
X170443300Y-77963600D01*
X165550300Y-87017400D02*
X170443300Y-82124400D01*
X165550300Y-91624700D02*
X165550300Y-87017400D01*
X165100000Y-92075000D02*
X165550300Y-91624700D01*
X158750000Y-77945000D02*
X158750000Y-73660000D01*
X160573500Y-79768500D02*
X158750000Y-77945000D01*
X160573500Y-80024600D02*
X160573500Y-79768500D01*
X162300000Y-81751100D02*
X160573500Y-80024600D01*
X162300000Y-82140600D02*
X162300000Y-81751100D01*
X156210000Y-76678800D02*
X156210000Y-73660000D01*
X159672900Y-80141700D02*
X156210000Y-76678800D01*
X159672900Y-80397800D02*
X159672900Y-80141700D01*
X160736600Y-81461500D02*
X159672900Y-80397800D01*
X160736600Y-82369500D02*
X160736600Y-81461500D01*
X161583300Y-83216200D02*
X160736600Y-82369500D01*
X165389100Y-83216200D02*
X161583300Y-83216200D01*
X165480300Y-83125000D02*
X165389100Y-83216200D01*
X163436000Y-75806000D02*
X161290000Y-73660000D01*
X163436000Y-78078600D02*
X163436000Y-75806000D01*
X162785800Y-78728800D02*
X163436000Y-78078600D01*
X162785800Y-79204600D02*
X162785800Y-78728800D01*
X163529400Y-79948200D02*
X162785800Y-79204600D01*
X165911800Y-79948200D02*
X163529400Y-79948200D01*
X166491100Y-79368900D02*
X165911800Y-79948200D01*
X166989300Y-79368900D02*
X166491100Y-79368900D01*
X167376800Y-79756400D02*
X166989300Y-79368900D01*
X167376800Y-81119500D02*
X167376800Y-79756400D01*
X166303300Y-82193000D02*
X167376800Y-81119500D01*
X166303200Y-82193000D02*
X166303300Y-82193000D01*
X166303200Y-83029300D02*
X166303200Y-82193000D01*
X183458500Y-75157400D02*
X183422400Y-75193500D01*
X187732600Y-75157400D02*
X183458500Y-75157400D01*
X189230000Y-73660000D02*
X187732600Y-75157400D01*
X189636200Y-75793800D02*
X185538900Y-75793800D01*
X191770000Y-73660000D02*
X189636200Y-75793800D01*
X181591900Y-75111700D02*
X182924400Y-76444200D01*
X172832800Y-75111700D02*
X181591900Y-75111700D01*
X172657800Y-75286700D02*
X172832800Y-75111700D01*
X171830500Y-75286700D02*
X172657800Y-75286700D01*
X169322100Y-77795100D02*
X171830500Y-75286700D01*
X169322100Y-78039500D02*
X169322100Y-77795100D01*
X172773800Y-86518800D02*
X173045400Y-86790400D01*
X172773800Y-84798800D02*
X172773800Y-86518800D01*
X173459600Y-84113000D02*
X172773800Y-84798800D01*
X181692400Y-84113000D02*
X173459600Y-84113000D01*
X183935000Y-81870400D02*
X181692400Y-84113000D01*
X183935000Y-76941900D02*
X183935000Y-81870400D01*
X183671200Y-76678100D02*
X183935000Y-76941900D01*
X183671200Y-76248200D02*
X183671200Y-76678100D01*
X183241800Y-75818800D02*
X183671200Y-76248200D01*
X183163400Y-75818800D02*
X183241800Y-75818800D01*
X182754400Y-75409800D02*
X183163400Y-75818800D01*
X182754400Y-74916000D02*
X182754400Y-75409800D01*
X184010400Y-73660000D02*
X182754400Y-74916000D01*
X184150000Y-73660000D02*
X184010400Y-73660000D01*
X187655100Y-77549600D02*
X187575800Y-77470300D01*
X187655100Y-79750800D02*
X187655100Y-77549600D01*
X182842500Y-84563400D02*
X187655100Y-79750800D01*
X173646100Y-84563400D02*
X182842500Y-84563400D01*
X173224100Y-84985400D02*
X173646100Y-84563400D01*
X173224100Y-85911900D02*
X173224100Y-84985400D01*
X173969300Y-86657100D02*
X173224100Y-85911900D01*
X173969300Y-86846600D02*
X173969300Y-86657100D01*
X180474600Y-85224600D02*
X189230000Y-93980000D01*
X173875900Y-85224600D02*
X180474600Y-85224600D01*
X178572300Y-85862300D02*
X174409400Y-85862300D01*
X186690000Y-93980000D02*
X178572300Y-85862300D01*
X172817900Y-87471900D02*
X172132900Y-86786900D01*
X174610400Y-87471900D02*
X172817900Y-87471900D01*
X175344300Y-86738000D02*
X174610400Y-87471900D01*
X178180600Y-86738000D02*
X175344300Y-86738000D01*
X184150000Y-92707400D02*
X178180600Y-86738000D01*
X184150000Y-93980000D02*
X184150000Y-92707400D01*
X177112100Y-89346300D02*
X176020500Y-89346300D01*
X181610000Y-93844200D02*
X177112100Y-89346300D01*
X181610000Y-93980000D02*
X181610000Y-93844200D01*
X164291200Y-90343800D02*
X162560000Y-92075000D01*
X164291200Y-87002700D02*
X164291200Y-90343800D01*
X168816200Y-82477700D02*
X164291200Y-87002700D01*
X168816200Y-82230100D02*
X168816200Y-82477700D01*
X173990000Y-93980000D02*
X173990000Y-92654700D01*
X177781200Y-87409100D02*
X177781200Y-87409000D01*
X176328900Y-87409100D02*
X177781200Y-87409100D01*
X173990000Y-89748000D02*
X176328900Y-87409100D01*
X173990000Y-92654700D02*
X173990000Y-89748000D01*
X171450000Y-93980000D02*
X171450000Y-92654700D01*
X171247900Y-84999500D02*
X171247900Y-84447600D01*
X170575400Y-85672000D02*
X171247900Y-84999500D01*
X170575400Y-91756300D02*
X170575400Y-85672000D01*
X171450000Y-92630900D02*
X170575400Y-91756300D01*
X171450000Y-92654700D02*
X171450000Y-92630900D01*
X187225600Y-88184300D02*
X187225600Y-82055400D01*
X187210000Y-88199900D02*
X187225600Y-88184300D01*
X179474400Y-76129300D02*
X178744600Y-76129300D01*
X182353600Y-79008500D02*
X179474400Y-76129300D01*
X183304600Y-78955800D02*
X183304600Y-77196000D01*
X181700900Y-80559500D02*
X183304600Y-78955800D01*
X181158800Y-80559500D02*
X181700900Y-80559500D01*
X180831800Y-80232500D02*
X181158800Y-80559500D01*
X180831800Y-80101300D02*
X180831800Y-80232500D01*
X177955400Y-77224900D02*
X180831800Y-80101300D01*
X171818900Y-77224900D02*
X177955400Y-77224900D01*
X171092700Y-77951100D02*
X171818900Y-77224900D01*
X171092700Y-78198800D02*
X171092700Y-77951100D01*
X184507600Y-77076300D02*
X184507600Y-76514100D01*
X186961900Y-79530600D02*
X184507600Y-77076300D01*
X163886300Y-73716300D02*
X163830000Y-73660000D01*
X163886300Y-78568400D02*
X163886300Y-73716300D01*
X163464800Y-78989900D02*
X163886300Y-78568400D01*
X155551700Y-90111700D02*
X154313000Y-91350400D01*
X155551700Y-74856300D02*
X155551700Y-90111700D01*
X155570100Y-74837900D02*
X155551700Y-74856300D01*
X189579400Y-87167600D02*
X192017800Y-84729200D01*
X189579400Y-89154000D02*
X189579400Y-87167600D01*
M02*
